NewsreaderText-ExtraLightItalic.ufo
<glyph name="exclam" format="2">
	<unicode hex="0021"/>
	<advance width="478"/>
	<outline>
		<contour>
			<point x="555" y="1318" type="line" smooth="yes"/>
			<point x="562" y="1341"/>
			<point x="547" y="1350"/>
			<point x="517" y="1350" type="curve" smooth="yes"/>
			<point x="488" y="1350"/>
			<point x="476" y="1341"/>
			<point x="469" y="1318" type="curve" smooth="yes"/>
			<point x="463" y="1298" type="line" smooth="yes"/>
			<point x="453" y="1267"/>
			<point x="306" y="717"/>
			<point x="213" y="396" type="curve"/>
			<point x="245" y="396" type="line"/>
			<point x="348" y="717"/>
			<point x="541" y="1270"/>
			<point x="549" y="1298" type="curve" smooth="yes"/>
		</contour>
		<contour>
			<point x="146" y="145" type="curve" smooth="yes"/>
			<point x="92" y="145"/>
			<point x="52" y="101"/>
			<point x="52" y="47" type="curve" smooth="yes"/>
			<point x="52" y="11"/>
			<point x="75" y="-15"/>
			<point x="113" y="-15" type="curve" smooth="yes"/>
			<point x="167" y="-15"/>
			<point x="207" y="29"/>
			<point x="207" y="83" type="curve" smooth="yes"/>
			<point x="207" y="119"/>
			<point x="184" y="145"/>
		</contour>
	</outline>
</glyph>
<glyph name="ampersand" format="2">
	<unicode hex="0026"/>
	<advance width="1285"/>
	<outline>
		<contour>
			<point x="878" y="180" type="line"/>
			<point x="989" y="298"/>
			<point x="1106" y="484"/>
			<point x="1214" y="763" type="curve"/>
			<point x="1363" y="789" type="line"/>
			<point x="1370" y="813" type="line"/>
			<point x="1009" y="813" type="line"/>
			<point x="1002" y="789" type="line"/>
			<point x="1151" y="763" type="line"/>
			<point x="1070" y="490"/>
			<point x="966" y="312"/>
			<point x="859" y="203" type="curve"/>
			<point x="836" y="187" type="line"/>
			<point x="701" y="61"/>
			<point x="564" y="34"/>
			<point x="455" y="34" type="curve" smooth="yes"/>
			<point x="275" y="34"/>
			<point x="169" y="134"/>
			<point x="169" y="310" type="curve" smooth="yes"/>
			<point x="169" y="474"/>
			<point x="255" y="601"/>
			<point x="538" y="724" type="curve"/>
			<point x="588" y="743" type="line"/>
			<point x="901" y="882"/>
			<point x="990" y="1012"/>
			<point x="990" y="1150" type="curve" smooth="yes"/>
			<point x="990" y="1265"/>
			<point x="910" y="1360"/>
			<point x="751" y="1360" type="curve" smooth="yes"/>
			<point x="551" y="1360"/>
			<point x="431" y="1229"/>
			<point x="431" y="1038" type="curve" smooth="yes"/>
			<point x="431" y="962"/>
			<point x="453" y="872"/>
			<point x="525" y="738" type="curve" smooth="yes"/>
			<point x="921" y="0" type="line"/>
			<point x="1151" y="0" type="line"/>
			<point x="1158" y="22" type="line"/>
			<point x="967" y="54" type="line"/>
			<point x="567" y="798" type="line" smooth="yes"/>
			<point x="507" y="909"/>
			<point x="487" y="987"/>
			<point x="487" y="1077" type="curve" smooth="yes"/>
			<point x="487" y="1233"/>
			<point x="598" y="1330"/>
			<point x="750" y="1330" type="curve" smooth="yes"/>
			<point x="866" y="1330"/>
			<point x="927" y="1260"/>
			<point x="927" y="1156" type="curve" smooth="yes"/>
			<point x="927" y="1024"/>
			<point x="863" y="895"/>
			<point x="577" y="768" type="curve"/>
			<point x="538" y="752" type="line"/>
			<point x="184" y="616"/>
			<point x="97" y="455"/>
			<point x="97" y="288" type="curve" smooth="yes"/>
			<point x="97" y="105"/>
			<point x="209" y="-20"/>
			<point x="424" y="-20" type="curve" smooth="yes"/>
			<point x="559" y="-20"/>
			<point x="706" y="16"/>
			<point x="855" y="163" type="curve"/>
		</contour>
	</outline>
</glyph>
<glyph name="quotesingle" format="2">
	<unicode hex="0027"/>
	<advance width="297"/>
	<outline>
		<contour>
			<point x="282" y="929" type="line"/>
			<point x="308" y="929" type="line"/>
			<point x="455" y="1300" type="line"/>
			<point x="467" y="1340" type="line"/>
			<point x="378" y="1340" type="line"/>
			<point x="365" y="1300" type="line"/>
		</contour>
	</outline>
</glyph>
<glyph name="parenleft" format="2">
	<unicode hex="0028"/>
	<advance width="497"/>
	<outline>
		<contour>
			<point x="731" y="1395" type="curve"/>
			<point x="708" y="1419" type="line"/>
			<point x="183" y="916"/>
			<point x="92" y="581"/>
			<point x="92" y="267" type="curve" smooth="yes"/>
			<point x="92" y="121"/>
			<point x="123" y="-51"/>
			<point x="193" y="-275" type="curve"/>
			<point x="226" y="-264" type="line"/>
			<point x="181" y="-104"/>
			<point x="157" y="47"/>
			<point x="157" y="193" type="curve" smooth="yes"/>
			<point x="157" y="627"/>
			<point x="357" y="1013"/>
		</contour>
	</outline>
</glyph>
<glyph name="parenright" format="2">
	<unicode hex="0029"/>
	<advance width="497"/>
	<outline>
		<contour>
			<point x="-145" y="-251" type="curve"/>
			<point x="-122" y="-275" type="line"/>
			<point x="403" y="228"/>
			<point x="494" y="563"/>
			<point x="494" y="877" type="curve" smooth="yes"/>
			<point x="494" y="1023"/>
			<point x="463" y="1195"/>
			<point x="393" y="1419" type="curve"/>
			<point x="360" y="1408" type="line"/>
			<point x="405" y="1248"/>
			<point x="429" y="1097"/>
			<point x="429" y="951" type="curve" smooth="yes"/>
			<point x="429" y="517"/>
			<point x="229" y="131"/>
		</contour>
	</outline>
</glyph>
<glyph name="asterisk" format="2">
	<unicode hex="002A"/>
	<advance width="748"/>
	<outline>
		<contour>
			<point x="684" y="796" type="line"/>
			<point x="605" y="1030" type="line"/>
			<point x="851" y="1057" type="line"/>
			<point x="848" y="1090" type="line"/>
			<point x="601" y="1088" type="line"/>
			<point x="651" y="1330" type="line"/>
			<point x="619" y="1339" type="line"/>
			<point x="544" y="1103" type="line"/>
			<point x="330" y="1225" type="line"/>
			<point x="312" y="1197" type="line"/>
			<point x="513" y="1054" type="line"/>
			<point x="330" y="888" type="line"/>
			<point x="351" y="862" type="line"/>
			<point x="551" y="1008" type="line"/>
			<point x="652" y="783" type="line"/>
		</contour>
	</outline>
</glyph>
<glyph name="plus" format="2">
	<unicode hex="002B"/>
	<advance width="1000"/>
	<outline>
		<contour>
			<point x="371" y="79" type="line"/>
			<point x="417" y="79" type="line"/>
			<point x="635" y="793" type="line"/>
			<point x="589" y="793" type="line"/>
		</contour>
		<contour>
			<point x="152" y="454" type="line"/>
			<point x="138" y="410" type="line"/>
			<point x="852" y="410" type="line"/>
			<point x="866" y="454" type="line"/>
		</contour>
	</outline>
</glyph>
<glyph name="comma" format="2">
	<unicode hex="002C"/>
	<advance width="318"/>
	<outline>
		<contour>
			<point x="-157" y="-265" type="curve"/>
			<point x="-142" y="-291" type="line"/>
			<point x="66" y="-159"/>
			<point x="145" y="-26"/>
			<point x="145" y="69" type="curve" smooth="yes"/>
			<point x="145" y="119"/>
			<point x="118" y="145"/>
			<point x="80" y="145" type="curve" smooth="yes"/>
			<point x="29" y="145"/>
			<point x="-2" y="104"/>
			<point x="-2" y="74" type="curve" smooth="yes"/>
			<point x="-2" y="46"/>
			<point x="53" y="40"/>
			<point x="53" y="-16" type="curve" smooth="yes"/>
			<point x="53" y="-76"/>
			<point x="8" y="-157"/>
		</contour>
	</outline>
</glyph>
<glyph name="hyphen" format="2">
	<unicode hex="002D"/>
	<advance width="578"/>
	<outline>
		<contour>
			<point x="132" y="472" type="line"/>
			<point x="110" y="400" type="line"/>
			<point x="452" y="400" type="line"/>
			<point x="474" y="472" type="line"/>
		</contour>
	</outline>
</glyph>
<glyph name="period" format="2">
  <advance width="361"/>
  <unicode hex="002E"/>
  <outline>
    <contour>
      <point x="112.0" y="145.0" type="curve" smooth="yes"/>
      <point x="58.0" y="145.0"/>
      <point x="18.0" y="101.0"/>
      <point x="18.0" y="47.0" type="curve" smooth="yes"/>
      <point x="18.0" y="11.0"/>
      <point x="41.0" y="-15.0"/>
      <point x="79.0" y="-15.0" type="curve" smooth="yes"/>
      <point x="133.0" y="-15.0"/>
      <point x="173.0" y="29.0"/>
      <point x="173.0" y="83.0" type="curve" smooth="yes"/>
      <point x="173.0" y="119.0"/>
      <point x="150.0" y="145.0"/>
    </contour>
  </outline>
</glyph>
<glyph name="slash" format="2">
	<unicode hex="002F"/>
	<advance width="771"/>
	<outline>
		<contour>
			<point x="-41" y="0" type="line"/>
			<point x="20" y="0" type="line"/>
			<point x="961" y="1340" type="line"/>
			<point x="900" y="1340" type="line"/>
		</contour>
	</outline>
</glyph>
<glyph name="zero" format="2">
	<unicode hex="0030"/>
	<advance width="1100"/>
	<outline>
		<contour>
			<point x="214" y="383" type="curve" smooth="yes"/>
			<point x="214" y="775"/>
			<point x="463" y="1323"/>
			<point x="803" y="1323" type="curve" smooth="yes"/>
			<point x="951" y="1323"/>
			<point x="1036" y="1216"/>
			<point x="1036" y="957" type="curve" smooth="yes"/>
			<point x="1036" y="565"/>
			<point x="787" y="17"/>
			<point x="447" y="17" type="curve" smooth="yes"/>
			<point x="299" y="17"/>
			<point x="214" y="124"/>
		</contour>
		<contour>
			<point x="806" y="1360" type="curve" smooth="yes"/>
			<point x="409" y="1360"/>
			<point x="140" y="786"/>
			<point x="140" y="372" type="curve" smooth="yes"/>
			<point x="140" y="124"/>
			<point x="245" y="-20"/>
			<point x="444" y="-20" type="curve" smooth="yes"/>
			<point x="841" y="-20"/>
			<point x="1110" y="554"/>
			<point x="1110" y="968" type="curve" smooth="yes"/>
			<point x="1110" y="1216"/>
			<point x="1005" y="1360"/>
		</contour>
	</outline>
</glyph>
<glyph name="one" format="2">
	<unicode hex="0031"/>
	<advance width="1100"/>
	<outline>
		<contour>
			<point x="467" y="51" type="line"/>
			<point x="204" y="22" type="line"/>
			<point x="197" y="0" type="line"/>
			<point x="753" y="0" type="line"/>
			<point x="762" y="22" type="line"/>
			<point x="537" y="51" type="line"/>
			<point x="937" y="1360" type="line"/>
			<point x="922" y="1360" type="line"/>
			<point x="433" y="1156" type="line"/>
			<point x="439" y="1132" type="line"/>
			<point x="864" y="1261" type="line"/>
			<point x="842" y="1279" type="line"/>
		</contour>
	</outline>
</glyph>
<glyph name="colon" format="2">
	<unicode hex="003A"/>
	<advance width="416"/>
	<outline>
		<contour>
			<point x="119" y="145" type="curve" smooth="yes"/>
			<point x="65" y="145"/>
			<point x="25" y="101"/>
			<point x="25" y="47" type="curve" smooth="yes"/>
			<point x="25" y="11"/>
			<point x="48" y="-15"/>
			<point x="86" y="-15" type="curve" smooth="yes"/>
			<point x="140" y="-15"/>
			<point x="180" y="29"/>
			<point x="180" y="83" type="curve" smooth="yes"/>
			<point x="180" y="119"/>
			<point x="157" y="145"/>
		</contour>
		<contour>
			<point x="329" y="863" type="curve" smooth="yes"/>
			<point x="275" y="863"/>
			<point x="235" y="819"/>
			<point x="235" y="765" type="curve" smooth="yes"/>
			<point x="235" y="729"/>
			<point x="258" y="703"/>
			<point x="296" y="703" type="curve" smooth="yes"/>
			<point x="350" y="703"/>
			<point x="390" y="747"/>
			<point x="390" y="801" type="curve" smooth="yes"/>
			<point x="390" y="837"/>
			<point x="367" y="863"/>
		</contour>
	</outline>
</glyph>
<glyph name="semicolon" format="2">
	<unicode hex="003B"/>
	<advance width="456"/>
	<outline>
		<contour>
			<point x="-101" y="-265" type="curve"/>
			<point x="-86" y="-291" type="line"/>
			<point x="122" y="-159"/>
			<point x="201" y="-26"/>
			<point x="201" y="69" type="curve" smooth="yes"/>
			<point x="201" y="119"/>
			<point x="174" y="145"/>
			<point x="136" y="145" type="curve" smooth="yes"/>
			<point x="85" y="145"/>
			<point x="54" y="104"/>
			<point x="54" y="74" type="curve" smooth="yes"/>
			<point x="54" y="46"/>
			<point x="109" y="40"/>
			<point x="109" y="-16" type="curve" smooth="yes"/>
			<point x="109" y="-76"/>
			<point x="64" y="-157"/>
		</contour>
		<contour>
			<point x="359" y="863" type="curve" smooth="yes"/>
			<point x="305" y="863"/>
			<point x="265" y="819"/>
			<point x="265" y="765" type="curve" smooth="yes"/>
			<point x="265" y="729"/>
			<point x="288" y="703"/>
			<point x="326" y="703" type="curve" smooth="yes"/>
			<point x="380" y="703"/>
			<point x="420" y="747"/>
			<point x="420" y="801" type="curve" smooth="yes"/>
			<point x="420" y="837"/>
			<point x="397" y="863"/>
		</contour>
	</outline>
</glyph>
<glyph name="less" format="2">
	<unicode hex="003C"/>
	<advance width="1000"/>
	<outline>
		<contour>
			<point x="93" y="420" type="line"/>
			<point x="1071" y="835" type="line"/>
			<point x="1088" y="892" type="line"/>
			<point x="54" y="453" type="line"/>
			<point x="43" y="417" type="line"/>
			<point x="810" y="-20" type="line"/>
			<point x="824" y="27" type="line"/>
			<point x="99" y="439" type="line"/>
		</contour>
	</outline>
</glyph>
<glyph name="greater" format="2">
	<unicode hex="003E"/>
	<advance width="1000"/>
	<outline>
		<contour>
			<point x="914" y="452" type="line"/>
			<point x="-64" y="37" type="line"/>
			<point x="-81" y="-20" type="line"/>
			<point x="953" y="419" type="line"/>
			<point x="964" y="455" type="line"/>
			<point x="197" y="892" type="line"/>
			<point x="183" y="845" type="line"/>
			<point x="908" y="433" type="line"/>
		</contour>
	</outline>
</glyph>
<glyph name="question" format="2">
	<unicode hex="003F"/>
	<advance width="847"/>
	<outline>
		<contour>
			<point x="243" y="145" type="curve" smooth="yes"/>
			<point x="189" y="145"/>
			<point x="149" y="101"/>
			<point x="149" y="47" type="curve" smooth="yes"/>
			<point x="149" y="11"/>
			<point x="172" y="-15"/>
			<point x="210" y="-15" type="curve" smooth="yes"/>
			<point x="264" y="-15"/>
			<point x="304" y="29"/>
			<point x="304" y="83" type="curve" smooth="yes"/>
			<point x="304" y="119"/>
			<point x="281" y="145"/>
		</contour>
		<contour>
			<point x="486" y="1360" type="curve" smooth="yes"/>
			<point x="352" y="1360"/>
			<point x="324" y="1328"/>
			<point x="324" y="1291" type="curve" smooth="yes"/>
			<point x="324" y="1267"/>
			<point x="341" y="1248"/>
			<point x="377" y="1248" type="curve" smooth="yes"/>
			<point x="432" y="1248"/>
			<point x="463" y="1302"/>
			<point x="577" y="1302" type="curve" smooth="yes"/>
			<point x="702" y="1302"/>
			<point x="844" y="1173"/>
			<point x="844" y="988" type="curve" smooth="yes"/>
			<point x="844" y="804"/>
			<point x="741" y="684"/>
			<point x="384" y="718" type="curve"/>
			<point x="299" y="396" type="line"/>
			<point x="325" y="396" type="line"/>
			<point x="438" y="703" type="line"/>
			<point x="385" y="650" type="line"/>
			<point x="779" y="615"/>
			<point x="894" y="760"/>
			<point x="894" y="968" type="curve" smooth="yes"/>
			<point x="894" y="1189"/>
			<point x="701" y="1360"/>
		</contour>
	</outline>
</glyph>
<glyph name="at" format="2">
	<unicode hex="0040"/>
	<advance width="1806"/>
	<outline>
		<contour>
			<point x="1328" y="239" type="curve" smooth="yes"/>
			<point x="1239" y="239"/>
			<point x="1178" y="283"/>
			<point x="1178" y="388" type="curve" smooth="yes"/>
			<point x="1178" y="437"/>
			<point x="1189" y="500"/>
			<point x="1215" y="576" type="curve" smooth="yes"/>
			<point x="1358" y="999" type="line"/>
			<point x="1287" y="999" type="line"/>
			<point x="1261" y="924" type="line"/>
			<point x="1217" y="792" type="line" smooth="yes"/>
			<point x="1088" y="405"/>
			<point x="868" y="251"/>
			<point x="776" y="251" type="curve" smooth="yes"/>
			<point x="701" y="251"/>
			<point x="669" y="301"/>
			<point x="669" y="392" type="curve" smooth="yes"/>
			<point x="669" y="607"/>
			<point x="883" y="983"/>
			<point x="1101" y="983" type="curve" smooth="yes"/>
			<point x="1159" y="983"/>
			<point x="1211" y="966"/>
			<point x="1258" y="901" type="curve"/>
			<point x="1272" y="919" type="line"/>
			<point x="1228" y="986"/>
			<point x="1176" y="1016"/>
			<point x="1101" y="1016" type="curve" smooth="yes"/>
			<point x="862" y="1016"/>
			<point x="591" y="651"/>
			<point x="591" y="390" type="curve" smooth="yes"/>
			<point x="591" y="280"/>
			<point x="631" y="200"/>
			<point x="749" y="200" type="curve" smooth="yes"/>
			<point x="844" y="200"/>
			<point x="975" y="271"/>
			<point x="1151" y="563" type="curve"/>
			<point x="1143" y="563" type="line"/>
			<point x="1125" y="493" type="line" smooth="yes"/>
			<point x="1117" y="461"/>
			<point x="1113" y="429"/>
			<point x="1113" y="401" type="curve" smooth="yes"/>
			<point x="1113" y="282"/>
			<point x="1185" y="205"/>
			<point x="1319" y="205" type="curve" smooth="yes"/>
			<point x="1589" y="205"/>
			<point x="1801" y="463"/>
			<point x="1801" y="832" type="curve" smooth="yes"/>
			<point x="1801" y="1171"/>
			<point x="1561" y="1419"/>
			<point x="1151" y="1419" type="curve" smooth="yes"/>
			<point x="575" y="1419"/>
			<point x="122" y="971"/>
			<point x="122" y="394" type="curve" smooth="yes"/>
			<point x="122" y="-25"/>
			<point x="402" y="-255"/>
			<point x="839" y="-255" type="curve" smooth="yes"/>
			<point x="1067" y="-255"/>
			<point x="1302" y="-181"/>
			<point x="1496" y="-60" type="curve"/>
			<point x="1479" y="-29" type="line"/>
			<point x="1267" y="-154"/>
			<point x="1047" y="-210"/>
			<point x="840" y="-210" type="curve" smooth="yes"/>
			<point x="435" y="-210"/>
			<point x="193" y="11"/>
			<point x="193" y="397" type="curve" smooth="yes"/>
			<point x="193" y="940"/>
			<point x="585" y="1376"/>
			<point x="1151" y="1376" type="curve" smooth="yes"/>
			<point x="1513" y="1376"/>
			<point x="1745" y="1132"/>
			<point x="1745" y="809" type="curve" smooth="yes"/>
			<point x="1745" y="473"/>
			<point x="1557" y="239"/>
		</contour>
	</outline>
</glyph>
<glyph name="A" format="2">
	<unicode hex="0041"/>
	<advance width="1292"/>
	<outline>
		<contour>
			<point x="409" y="555" type="line"/>
			<point x="952" y="555" type="line"/>
			<point x="966" y="597" type="line"/>
			<point x="424" y="597" type="line"/>
		</contour>
		<contour>
			<point x="1033" y="50" type="line"/>
			<point x="936" y="1360" type="line"/>
			<point x="916" y="1360" type="line"/>
			<point x="55" y="50" type="line"/>
			<point x="-115" y="22" type="line"/>
			<point x="-121" y="0" type="line"/>
			<point x="257" y="0" type="line"/>
			<point x="264" y="22" type="line"/>
			<point x="106" y="50" type="line"/>
			<point x="904" y="1265" type="line"/>
			<point x="877" y="1265" type="line"/>
			<point x="963" y="50" type="line"/>
			<point x="795" y="22" type="line"/>
			<point x="788" y="0" type="line"/>
			<point x="1185" y="0" type="line"/>
			<point x="1192" y="22" type="line"/>
		</contour>
	</outline>
	<anchor name="UCtop" x="895" y="1340"/>
	<anchor name="bottom" x="523" y="0"/>
	<anchor name="right" x="1172" y="0"/>
</glyph>
<glyph name="B" format="2">
	<unicode hex="0042"/>
	<advance width="1101"/>
	<outline>
		<contour>
			<point x="550" y="1298" type="line"/>
			<point x="735" y="1298" type="line" smooth="yes"/>
			<point x="942" y="1298"/>
			<point x="1031" y="1221"/>
			<point x="1031" y="1083" type="curve" smooth="yes"/>
			<point x="1031" y="882"/>
			<point x="889" y="734"/>
			<point x="602" y="734" type="curve" smooth="yes"/>
			<point x="379" y="734" type="line"/>
			<point x="363" y="692" type="line"/>
			<point x="580" y="692" type="line" smooth="yes"/>
			<point x="833" y="692"/>
			<point x="922" y="591"/>
			<point x="922" y="444" type="curve" smooth="yes"/>
			<point x="922" y="191"/>
			<point x="759" y="42"/>
			<point x="391" y="42" type="curve" smooth="yes"/>
			<point x="166" y="42" type="line"/>
			<point x="152" y="0" type="line"/>
			<point x="423" y="0" type="line" smooth="yes"/>
			<point x="804" y="0"/>
			<point x="995" y="178"/>
			<point x="995" y="443" type="curve" smooth="yes"/>
			<point x="995" y="584"/>
			<point x="915" y="688"/>
			<point x="727" y="716" type="curve"/>
			<point x="725" y="706" type="line"/>
			<point x="981" y="750"/>
			<point x="1103" y="905"/>
			<point x="1103" y="1085" type="curve" smooth="yes"/>
			<point x="1103" y="1221"/>
			<point x="1016" y="1340"/>
			<point x="762" y="1340" type="curve" smooth="yes"/>
			<point x="561" y="1340" type="line"/>
		</contour>
		<contour>
			<point x="501" y="1290" type="line"/>
			<point x="121" y="50" type="line"/>
			<point x="-47" y="22" type="line"/>
			<point x="-53" y="0" type="line"/>
			<point x="178" y="0" type="line"/>
			<point x="588" y="1340" type="line"/>
			<point x="348" y="1340" type="line"/>
			<point x="342" y="1318" type="line"/>
		</contour>
	</outline>
	<anchor name="UCtop" x="764" y="1340"/>
	<anchor name="bottom" x="465" y="0"/>
</glyph>
<glyph name="C" format="2">
	<unicode hex="0043"/>
	<advance width="1291"/>
	<outline>
		<contour>
			<point x="1047" y="105" type="line"/>
			<point x="942" y="40"/>
			<point x="806" y="19"/>
			<point x="690" y="19" type="curve" smooth="yes"/>
			<point x="429" y="19"/>
			<point x="245" y="183"/>
			<point x="245" y="511" type="curve" smooth="yes"/>
			<point x="245" y="954"/>
			<point x="539" y="1315"/>
			<point x="999" y="1315" type="curve" smooth="yes"/>
			<point x="1123" y="1315"/>
			<point x="1233" y="1286"/>
			<point x="1327" y="1203" type="curve"/>
			<point x="1262" y="1278" type="line"/>
			<point x="1311" y="956" type="line"/>
			<point x="1336" y="956" type="line"/>
			<point x="1371" y="1386" type="line"/>
			<point x="1364" y="1386" type="line"/>
			<point x="1284" y="1309" type="line"/>
			<point x="1343" y="1303" type="line"/>
			<point x="1239" y="1343"/>
			<point x="1156" y="1360"/>
			<point x="1039" y="1360" type="curve" smooth="yes"/>
			<point x="538" y="1360"/>
			<point x="163" y="992"/>
			<point x="163" y="500" type="curve" smooth="yes"/>
			<point x="163" y="161"/>
			<point x="370" y="-20"/>
			<point x="697" y="-20" type="curve" smooth="yes"/>
			<point x="809" y="-20"/>
			<point x="961" y="3"/>
			<point x="1077" y="42" type="curve"/>
			<point x="1200" y="301" type="line"/>
			<point x="1175" y="301" type="line"/>
			<point x="969" y="44" type="line"/>
		</contour>
	</outline>
	<anchor name="UCtop" x="996" y="1340"/>
	<anchor name="bottom" x="677" y="0"/>
	<anchor name="right" x="1101" y="0"/>
</glyph>
<glyph name="D" format="2">
	<unicode hex="0044"/>
	<advance width="1368"/>
	<outline>
		<contour>
			<point x="414" y="42" type="curve" smooth="yes"/>
			<point x="123" y="42" type="line"/>
			<point x="126" y="0" type="line"/>
			<point x="448" y="0" type="line" smooth="yes"/>
			<point x="1026" y="0"/>
			<point x="1353" y="364"/>
			<point x="1353" y="844" type="curve" smooth="yes"/>
			<point x="1353" y="1153"/>
			<point x="1157" y="1340"/>
			<point x="752" y="1340" type="curve" smooth="yes"/>
			<point x="536" y="1340" type="line"/>
			<point x="504" y="1298" type="line"/>
			<point x="710" y="1298" type="line" smooth="yes"/>
			<point x="1098" y="1298"/>
			<point x="1275" y="1148"/>
			<point x="1275" y="829" type="curve" smooth="yes"/>
			<point x="1275" y="460"/>
			<point x="1062" y="42"/>
		</contour>
		<contour>
			<point x="501" y="1290" type="line"/>
			<point x="121" y="50" type="line"/>
			<point x="-47" y="22" type="line"/>
			<point x="-53" y="0" type="line"/>
			<point x="178" y="0" type="line"/>
			<point x="588" y="1340" type="line"/>
			<point x="348" y="1340" type="line"/>
			<point x="342" y="1318" type="line"/>
		</contour>
	</outline>
	<anchor name="UCtop" x="939" y="1340"/>
	<anchor name="bottom" x="520" y="0"/>
</glyph>
<glyph name="E" format="2">
	<unicode hex="0045"/>
	<advance width="1155"/>
	<outline>
		<contour>
			<point x="501" y="1290" type="line"/>
			<point x="121" y="50" type="line"/>
			<point x="-47" y="22" type="line"/>
			<point x="-53" y="0" type="line"/>
			<point x="178" y="0" type="line"/>
			<point x="588" y="1340" type="line"/>
			<point x="348" y="1340" type="line"/>
			<point x="342" y="1318" type="line"/>
		</contour>
		<contour>
			<point x="1157" y="1313" type="line"/>
			<point x="1186" y="1004" type="line"/>
			<point x="1209" y="1005" type="line"/>
			<point x="1260" y="1377" type="line"/>
			<point x="1251" y="1377" type="line"/>
			<point x="1175" y="1340" type="line"/>
			<point x="518" y="1340" type="line"/>
			<point x="504" y="1298" type="line"/>
			<point x="1201" y="1298" type="line"/>
		</contour>
		<contour>
			<point x="863" y="-46" type="line"/>
			<point x="871" y="-46" type="line"/>
			<point x="1082" y="338" type="line"/>
			<point x="1063" y="349" type="line"/>
			<point x="786" y="17" type="line"/>
			<point x="858" y="42" type="line"/>
			<point x="122" y="42" type="line"/>
			<point x="108" y="0" type="line"/>
			<point x="803" y="0" type="line"/>
		</contour>
		<contour>
			<point x="783" y="434" type="line"/>
			<point x="851" y="701" type="line"/>
			<point x="947" y="969" type="line"/>
			<point x="923" y="969" type="line"/>
			<point x="799" y="732" type="line"/>
			<point x="378" y="720" type="line"/>
			<point x="365" y="682" type="line"/>
			<point x="782" y="673" type="line"/>
			<point x="759" y="434" type="line"/>
		</contour>
	</outline>
	<anchor name="UCtop" x="833" y="1340"/>
	<anchor name="right" x="900" y="0"/>
	<anchor name="bottom" x="504" y="0"/>
</glyph>
<glyph name="F" format="2">
	<unicode hex="0046"/>
	<advance width="1022"/>
	<outline>
		<contour>
			<point x="930" y="939" type="line"/>
			<point x="906" y="939" type="line"/>
			<point x="782" y="702" type="line"/>
			<point x="367" y="690" type="line"/>
			<point x="354" y="652" type="line"/>
			<point x="765" y="643" type="line"/>
			<point x="742" y="404" type="line"/>
			<point x="766" y="404" type="line"/>
			<point x="834" y="671" type="line"/>
		</contour>
		<contour>
			<point x="1149" y="1005" type="line"/>
			<point x="1200" y="1377" type="line"/>
			<point x="1191" y="1377" type="line"/>
			<point x="1115" y="1340" type="line"/>
			<point x="518" y="1340" type="line"/>
			<point x="504" y="1298" type="line"/>
			<point x="1141" y="1298" type="line"/>
			<point x="1097" y="1313" type="line"/>
			<point x="1126" y="1004" type="line"/>
		</contour>
		<contour>
			<point x="193" y="50" type="line"/>
			<point x="588" y="1340" type="line"/>
			<point x="348" y="1340" type="line"/>
			<point x="342" y="1318" type="line"/>
			<point x="501" y="1290" type="line"/>
			<point x="121" y="50" type="line"/>
			<point x="-47" y="22" type="line"/>
			<point x="-53" y="0" type="line"/>
			<point x="346" y="0" type="line"/>
			<point x="352" y="22" type="line"/>
		</contour>
	</outline>
	<anchor name="UCtop" x="813" y="1340"/>
	<anchor name="bottom" x="142" y="0"/>
</glyph>
<glyph name="G" format="2">
	<unicode hex="0047"/>
	<advance width="1363"/>
	<outline>
		<contour>
			<point x="690" y="19" type="curve" smooth="yes"/>
			<point x="429" y="19"/>
			<point x="245" y="183"/>
			<point x="245" y="511" type="curve" smooth="yes"/>
			<point x="245" y="954"/>
			<point x="535" y="1315"/>
			<point x="989" y="1315" type="curve" smooth="yes"/>
			<point x="1109" y="1315"/>
			<point x="1215" y="1285"/>
			<point x="1307" y="1203" type="curve"/>
			<point x="1242" y="1278" type="line"/>
			<point x="1291" y="956" type="line"/>
			<point x="1316" y="956" type="line"/>
			<point x="1351" y="1386" type="line"/>
			<point x="1344" y="1386" type="line"/>
			<point x="1264" y="1309" type="line"/>
			<point x="1323" y="1303" type="line"/>
			<point x="1222" y="1342"/>
			<point x="1142" y="1360"/>
			<point x="1029" y="1360" type="curve" smooth="yes"/>
			<point x="534" y="1360"/>
			<point x="163" y="992"/>
			<point x="163" y="500" type="curve" smooth="yes"/>
			<point x="163" y="161"/>
			<point x="370" y="-20"/>
			<point x="697" y="-20" type="curve" smooth="yes"/>
			<point x="856" y="-20"/>
			<point x="1005" y="14"/>
			<point x="1138" y="66" type="curve"/>
			<point x="1140" y="70" type="line"/>
			<point x="1101" y="104" type="line"/>
			<point x="1236" y="549" type="line"/>
			<point x="1363" y="577" type="line"/>
			<point x="1371" y="599" type="line"/>
			<point x="972" y="599" type="line"/>
			<point x="964" y="577" type="line"/>
			<point x="1164" y="549" type="line"/>
			<point x="1012" y="51" type="line"/>
			<point x="1053" y="105" type="line"/>
			<point x="948" y="40"/>
			<point x="806" y="19"/>
		</contour>
	</outline>
	<anchor name="UCtop" x="948" y="1340"/>
	<anchor name="bottom" x="657" y="0"/>
</glyph>
<glyph name="H" format="2">
	<unicode hex="0048"/>
	<advance width="1399"/>
	<outline>
		<contour>
			<point x="325" y="668" type="line"/>
			<point x="1221" y="668" type="line"/>
			<point x="1235" y="710" type="line"/>
			<point x="339" y="710" type="line"/>
		</contour>
		<contour>
			<point x="501" y="1290" type="line"/>
			<point x="121" y="50" type="line"/>
			<point x="-47" y="22" type="line"/>
			<point x="-53" y="0" type="line"/>
			<point x="346" y="0" type="line"/>
			<point x="352" y="22" type="line"/>
			<point x="193" y="50" type="line"/>
			<point x="573" y="1290" type="line"/>
			<point x="741" y="1318" type="line"/>
			<point x="747" y="1340" type="line"/>
			<point x="348" y="1340" type="line"/>
			<point x="342" y="1318" type="line"/>
		</contour>
		<contour>
			<point x="1356" y="1290" type="line"/>
			<point x="976" y="50" type="line"/>
			<point x="808" y="22" type="line"/>
			<point x="802" y="0" type="line"/>
			<point x="1201" y="0" type="line"/>
			<point x="1207" y="22" type="line"/>
			<point x="1048" y="50" type="line"/>
			<point x="1428" y="1290" type="line"/>
			<point x="1596" y="1318" type="line"/>
			<point x="1602" y="1340" type="line"/>
			<point x="1203" y="1340" type="line"/>
			<point x="1197" y="1318" type="line"/>
		</contour>
	</outline>
	<anchor name="UCtop" x="963" y="1340"/>
	<anchor name="bottom" x="554" y="0"/>
</glyph>
<glyph name="I" format="2">
	<unicode hex="0049"/>
	<advance width="544"/>
	<outline>
		<contour>
			<point x="501" y="1290" type="line"/>
			<point x="121" y="50" type="line"/>
			<point x="-47" y="22" type="line"/>
			<point x="-53" y="0" type="line"/>
			<point x="346" y="0" type="line"/>
			<point x="352" y="22" type="line"/>
			<point x="193" y="50" type="line"/>
			<point x="573" y="1290" type="line"/>
			<point x="741" y="1318" type="line"/>
			<point x="747" y="1340" type="line"/>
			<point x="348" y="1340" type="line"/>
			<point x="342" y="1318" type="line"/>
		</contour>
	</outline>
	<anchor name="UCtop" x="546" y="1340"/>
	<anchor name="right" x="297" y="0"/>
	<anchor name="bottom" x="137" y="0"/>
</glyph>
<glyph name="J" format="2">
	<unicode hex="004A"/>
	<advance width="617"/>
	<outline>
		<contour>
			<point x="397" y="391" type="curve" smooth="yes"/>
			<point x="673" y="1290" type="line"/>
			<point x="841" y="1318" type="line"/>
			<point x="847" y="1340" type="line"/>
			<point x="448" y="1340" type="line"/>
			<point x="442" y="1318" type="line"/>
			<point x="601" y="1290" type="line"/>
			<point x="300" y="308" type="line" smooth="yes"/>
			<point x="245" y="128"/>
			<point x="157" y="41"/>
			<point x="78" y="41" type="curve" smooth="yes"/>
			<point x="12" y="41"/>
			<point x="-17" y="85"/>
			<point x="-43" y="85" type="curve" smooth="yes"/>
			<point x="-69" y="85"/>
			<point x="-88" y="68"/>
			<point x="-88" y="37" type="curve" smooth="yes"/>
			<point x="-88" y="6"/>
			<point x="-61" y="-16"/>
			<point x="-7" y="-16" type="curve" smooth="yes"/>
			<point x="160" y="-16"/>
			<point x="314" y="122"/>
		</contour>
	</outline>
	<anchor name="UCtop" x="641" y="1340"/>
	<anchor name="bottom" x="119" y="0"/>
</glyph>
<glyph name="K" format="2">
	<unicode hex="004B"/>
	<advance width="1249"/>
	<outline>
		<contour>
			<point x="992" y="52" type="line"/>
			<point x="560" y="741" type="line"/>
			<point x="551" y="689" type="line"/>
			<point x="1284" y="1288" type="line"/>
			<point x="1448" y="1318" type="line"/>
			<point x="1454" y="1340" type="line"/>
			<point x="1071" y="1340" type="line"/>
			<point x="1065" y="1318" type="line"/>
			<point x="1219" y="1288" type="line"/>
			<point x="530" y="721" type="line"/>
			<point x="378" y="721" type="line"/>
			<point x="364" y="679" type="line"/>
			<point x="521" y="679" type="line"/>
			<point x="910" y="52" type="line"/>
			<point x="749" y="22" type="line"/>
			<point x="742" y="0" type="line"/>
			<point x="1140" y="0" type="line"/>
			<point x="1146" y="22" type="line"/>
		</contour>
		<contour>
			<point x="501" y="1290" type="line"/>
			<point x="121" y="50" type="line"/>
			<point x="-47" y="22" type="line"/>
			<point x="-53" y="0" type="line"/>
			<point x="346" y="0" type="line"/>
			<point x="352" y="22" type="line"/>
			<point x="193" y="50" type="line"/>
			<point x="573" y="1290" type="line"/>
			<point x="741" y="1318" type="line"/>
			<point x="747" y="1340" type="line"/>
			<point x="348" y="1340" type="line"/>
			<point x="342" y="1318" type="line"/>
		</contour>
	</outline>
	<anchor name="UCtop" x="879" y="1340"/>
	<anchor name="bottom" x="570" y="0"/>
</glyph>
<glyph name="L" format="2">
	<unicode hex="004C"/>
	<advance width="1060"/>
	<outline>
		<contour>
			<point x="573" y="1290" type="line"/>
			<point x="741" y="1318" type="line"/>
			<point x="747" y="1340" type="line"/>
			<point x="348" y="1340" type="line"/>
			<point x="342" y="1318" type="line"/>
			<point x="501" y="1290" type="line"/>
			<point x="121" y="50" type="line"/>
			<point x="-47" y="22" type="line"/>
			<point x="-53" y="0" type="line"/>
			<point x="178" y="0" type="line"/>
		</contour>
		<contour>
			<point x="736" y="17" type="line"/>
			<point x="808" y="42" type="line"/>
			<point x="142" y="42" type="line"/>
			<point x="128" y="0" type="line"/>
			<point x="753" y="0" type="line"/>
			<point x="813" y="-46" type="line"/>
			<point x="821" y="-46" type="line"/>
			<point x="1003" y="331" type="line"/>
			<point x="984" y="342" type="line"/>
		</contour>
	</outline>
	<anchor name="UCtop" x="552" y="1340"/>
	<anchor name="right" x="822" y="1340"/>
	<anchor name="bottom" x="435" y="0"/>
	<anchor name="mid" x="891" y="702"/>
</glyph>
<glyph name="M" format="2">
	<unicode hex="004D"/>
	<advance width="1742"/>
	<outline>
		<contour>
			<point x="597" y="1300" type="line"/>
			<point x="574" y="1272" type="line"/>
			<point x="691" y="-20" type="line"/>
			<point x="716" y="-20" type="line"/>
			<point x="1664" y="1315" type="line"/>
			<point x="1672" y="1340" type="line"/>
			<point x="1631" y="1340" type="line"/>
			<point x="713" y="45" type="line"/>
			<point x="754" y="52" type="line"/>
			<point x="638" y="1340" type="line"/>
			<point x="398" y="1340" type="line"/>
			<point x="391" y="1318" type="line"/>
			<point x="548" y="1281" type="line"/>
			<point x="96" y="52" type="line"/>
			<point x="-73" y="22" type="line"/>
			<point x="-80" y="0" type="line"/>
			<point x="291" y="0" type="line"/>
			<point x="298" y="22" type="line"/>
			<point x="139" y="52" type="line"/>
		</contour>
		<contour>
			<point x="1649" y="1340" type="line"/>
			<point x="1347" y="52" type="line"/>
			<point x="1178" y="22" type="line"/>
			<point x="1172" y="0" type="line"/>
			<point x="1569" y="0" type="line"/>
			<point x="1575" y="22" type="line"/>
			<point x="1417" y="52" type="line"/>
			<point x="1704" y="1288" type="line"/>
			<point x="1872" y="1318" type="line"/>
			<point x="1879" y="1340" type="line"/>
		</contour>
	</outline>
	<anchor name="UCtop" x="1109" y="1340"/>
	<anchor name="bottom" x="730" y="0"/>
</glyph>
<glyph name="N" format="2">
	<unicode hex="004E"/>
	<advance width="1382"/>
	<outline>
		<contour>
			<point x="1045" y="71" type="line"/>
			<point x="576" y="1340" type="line"/>
			<point x="351" y="1340" type="line"/>
			<point x="344" y="1318" type="line"/>
			<point x="497" y="1281" type="line"/>
			<point x="120" y="50" type="line"/>
			<point x="-48" y="22" type="line"/>
			<point x="-54" y="0" type="line"/>
			<point x="318" y="0" type="line"/>
			<point x="324" y="22" type="line"/>
			<point x="165" y="50" type="line"/>
			<point x="550" y="1303" type="line"/>
			<point x="521" y="1286" type="line"/>
			<point x="1006" y="-20" type="line"/>
			<point x="1035" y="-20" type="line"/>
			<point x="1436" y="1290" type="line"/>
			<point x="1604" y="1318" type="line"/>
			<point x="1610" y="1340" type="line"/>
			<point x="1238" y="1340" type="line"/>
			<point x="1232" y="1318" type="line"/>
			<point x="1391" y="1290" type="line"/>
			<point x="1015" y="67" type="line"/>
		</contour>
	</outline>
	<anchor name="UCtop" x="977" y="1340"/>
	<anchor name="bottom" x="608" y="0"/>
</glyph>
<glyph name="O" format="2">
	<unicode hex="004F"/>
	<advance width="1437"/>
	<outline>
		<contour>
			<point x="239" y="476" type="curve" smooth="yes"/>
			<point x="239" y="892"/>
			<point x="517" y="1321"/>
			<point x="942" y="1321" type="curve" smooth="yes"/>
			<point x="1216" y="1321"/>
			<point x="1348" y="1139"/>
			<point x="1348" y="864" type="curve" smooth="yes"/>
			<point x="1348" y="448"/>
			<point x="1070" y="19"/>
			<point x="645" y="19" type="curve" smooth="yes"/>
			<point x="371" y="19"/>
			<point x="239" y="201"/>
		</contour>
		<contour>
			<point x="1425" y="856" type="curve" smooth="yes"/>
			<point x="1425" y="1144"/>
			<point x="1271" y="1360"/>
			<point x="943" y="1360" type="curve" smooth="yes"/>
			<point x="485" y="1360"/>
			<point x="162" y="938"/>
			<point x="162" y="484" type="curve" smooth="yes"/>
			<point x="162" y="196"/>
			<point x="316" y="-20"/>
			<point x="644" y="-20" type="curve" smooth="yes"/>
			<point x="1102" y="-20"/>
			<point x="1425" y="402"/>
		</contour>
	</outline>
	<anchor name="UCtop" x="998" y="1340"/>
	<anchor name="bottom" x="589" y="0"/>
	<anchor name="right" x="779" y="0"/>
	<anchor name="horn" x="1289" y="1340"/>
</glyph>
<glyph name="P" format="2">
  <advance width="1070"/>
  <unicode hex="0050"/>
  <anchor x="813.0" y="1340" name="UCtop"/>
  <anchor x="142.0" y="0" name="bottom"/>
  <outline>
    <contour>
      <point x="564.0" y="640.0" type="curve" smooth="yes"/>
      <point x="338.0" y="640.0" type="line"/>
      <point x="324.0" y="598.0" type="line"/>
      <point x="615.0" y="598.0" type="line" smooth="yes"/>
      <point x="1000.0" y="598.0"/>
      <point x="1180.0" y="817.0"/>
      <point x="1180.0" y="1056.0" type="curve" smooth="yes"/>
      <point x="1180.0" y="1220.0"/>
      <point x="1077.0" y="1340.0"/>
      <point x="799.0" y="1340.0" type="curve" smooth="yes"/>
      <point x="552.0" y="1340.0" type="line"/>
      <point x="538.0" y="1298.0" type="line"/>
      <point x="743.0" y="1298.0" type="line" smooth="yes"/>
      <point x="1013.0" y="1298.0"/>
      <point x="1107.0" y="1207.0"/>
      <point x="1107.0" y="1058.0" type="curve" smooth="yes"/>
      <point x="1107.0" y="829.0"/>
      <point x="957.0" y="640.0"/>
    </contour>
    <contour>
      <point x="193.0" y="50.0" type="line"/>
      <point x="588.0" y="1340.0" type="line"/>
      <point x="348.0" y="1340.0" type="line"/>
      <point x="342.0" y="1318.0" type="line"/>
      <point x="501.0" y="1290.0" type="line"/>
      <point x="121.0" y="50.0" type="line"/>
      <point x="-47.0" y="22.0" type="line"/>
      <point x="-53.0" y="0.0" type="line"/>
      <point x="346.0" y="0.0" type="line"/>
      <point x="352.0" y="22.0" type="line"/>
    </contour>
  </outline>
</glyph>
<glyph name="Q" format="2">
	<unicode hex="0051"/>
	<advance width="1437"/>
	<outline>
		<contour>
			<point x="809" y="-249" type="line" smooth="yes"/>
			<point x="997" y="-375"/>
			<point x="1062" y="-393"/>
			<point x="1133" y="-393" type="curve" smooth="yes"/>
			<point x="1182" y="-393"/>
			<point x="1238" y="-384"/>
			<point x="1291" y="-368" type="curve"/>
			<point x="1298" y="-347" type="line"/>
			<point x="1191" y="-359"/>
			<point x="1119" y="-359"/>
			<point x="940" y="-248" type="curve" smooth="yes"/>
			<point x="524" y="10" type="line"/>
			<point x="525" y="-8" type="line"/>
			<point x="1026" y="-84"/>
			<point x="1425" y="337"/>
			<point x="1425" y="856" type="curve" smooth="yes"/>
			<point x="1425" y="1144"/>
			<point x="1271" y="1360"/>
			<point x="943" y="1360" type="curve" smooth="yes"/>
			<point x="485" y="1360"/>
			<point x="162" y="938"/>
			<point x="162" y="484" type="curve" smooth="yes"/>
			<point x="162" y="298"/>
			<point x="226" y="144"/>
			<point x="359" y="54" type="curve" smooth="yes"/>
		</contour>
		<contour>
			<point x="239" y="476" type="curve" smooth="yes"/>
			<point x="239" y="892"/>
			<point x="517" y="1321"/>
			<point x="942" y="1321" type="curve" smooth="yes"/>
			<point x="1216" y="1321"/>
			<point x="1348" y="1139"/>
			<point x="1348" y="864" type="curve" smooth="yes"/>
			<point x="1348" y="448"/>
			<point x="1070" y="19"/>
			<point x="645" y="19" type="curve" smooth="yes"/>
			<point x="371" y="19"/>
			<point x="239" y="201"/>
		</contour>
	</outline>
	<anchor name="bottom" x="527" y="0"/>
	<anchor name="UCtop" x="998" y="1340"/>
</glyph>
<glyph name="R" format="2">
	<unicode hex="0052"/>
	<advance width="1144"/>
	<outline>
		<contour>
			<point x="621" y="707" type="curve" smooth="yes"/>
			<point x="329" y="707" type="line"/>
			<point x="324" y="665" type="line"/>
			<point x="620" y="665" type="line" smooth="yes"/>
			<point x="715" y="665"/>
			<point x="737" y="645"/>
			<point x="783" y="455" type="curve" smooth="yes"/>
			<point x="855" y="155" type="line" smooth="yes"/>
			<point x="893" y="-2"/>
			<point x="913" y="-11"/>
			<point x="1072" y="0" type="curve"/>
			<point x="1080" y="25" type="line"/>
			<point x="977" y="25"/>
			<point x="957" y="38"/>
			<point x="921" y="186" type="curve" smooth="yes"/>
			<point x="849" y="480" type="line" smooth="yes"/>
			<point x="814" y="624"/>
			<point x="793" y="678"/>
			<point x="674" y="684" type="curve"/>
			<point x="674" y="678" type="line"/>
			<point x="917" y="700"/>
			<point x="1099" y="849"/>
			<point x="1099" y="1075" type="curve" smooth="yes"/>
			<point x="1099" y="1236"/>
			<point x="1007" y="1340"/>
			<point x="750" y="1340" type="curve" smooth="yes"/>
			<point x="492" y="1340" type="line"/>
			<point x="502" y="1298" type="line"/>
			<point x="754" y="1298" type="line" smooth="yes"/>
			<point x="929" y="1298"/>
			<point x="1018" y="1215"/>
			<point x="1018" y="1068" type="curve" smooth="yes"/>
			<point x="1018" y="861"/>
			<point x="861" y="707"/>
		</contour>
		<contour>
			<point x="193" y="50" type="line"/>
			<point x="588" y="1340" type="line"/>
			<point x="348" y="1340" type="line"/>
			<point x="342" y="1318" type="line"/>
			<point x="501" y="1290" type="line"/>
			<point x="121" y="50" type="line"/>
			<point x="-47" y="22" type="line"/>
			<point x="-53" y="0" type="line"/>
			<point x="346" y="0" type="line"/>
			<point x="352" y="22" type="line"/>
		</contour>
	</outline>
	<anchor name="UCtop" x="772" y="1340"/>
	<anchor name="bottom" x="573" y="0"/>
</glyph>
<glyph name="T" format="2">
	<unicode hex="0054"/>
	<advance width="1188"/>
	<outline>
		<contour>
			<point x="1327" y="1298" type="line"/>
			<point x="1282" y="1308" type="line"/>
			<point x="1289" y="985" type="line"/>
			<point x="1315" y="985" type="line"/>
			<point x="1391" y="1404" type="line"/>
			<point x="1381" y="1404" type="line"/>
			<point x="1282" y="1330" type="line"/>
			<point x="1318" y="1340" type="line"/>
			<point x="419" y="1340" type="line"/>
			<point x="459" y="1330" type="line"/>
			<point x="394" y="1404" type="line"/>
			<point x="384" y="1404" type="line"/>
			<point x="222" y="987" type="line"/>
			<point x="243" y="976" type="line"/>
			<point x="453" y="1308" type="line"/>
			<point x="382" y="1298" type="line"/>
		</contour>
		<contour>
			<point x="828" y="1323" type="line"/>
			<point x="438" y="50" type="line"/>
			<point x="270" y="22" type="line"/>
			<point x="264" y="0" type="line"/>
			<point x="663" y="0" type="line"/>
			<point x="669" y="22" type="line"/>
			<point x="510" y="50" type="line"/>
			<point x="900" y="1323" type="line"/>
		</contour>
	</outline>
	<anchor name="UCtop" x="845" y="1340"/>
	<anchor name="bottom" x="466" y="0"/>
</glyph>
<glyph name="U" format="2">
	<unicode hex="0055"/>
	<advance width="1376"/>
	<outline>
		<contour>
			<point x="326" y="552" type="curve" smooth="yes"/>
			<point x="552" y="1290" type="line"/>
			<point x="720" y="1318" type="line"/>
			<point x="726" y="1340" type="line"/>
			<point x="327" y="1340" type="line"/>
			<point x="321" y="1318" type="line"/>
			<point x="480" y="1290" type="line"/>
			<point x="259" y="566" type="line" smooth="yes"/>
			<point x="133" y="155"/>
			<point x="278" y="-20"/>
			<point x="592" y="-20" type="curve" smooth="yes"/>
			<point x="877" y="-20"/>
			<point x="1073" y="116"/>
			<point x="1179" y="462" type="curve" smooth="yes"/>
			<point x="1432" y="1290" type="line"/>
			<point x="1600" y="1318" type="line"/>
			<point x="1606" y="1340" type="line"/>
			<point x="1234" y="1340" type="line"/>
			<point x="1228" y="1318" type="line"/>
			<point x="1387" y="1290" type="line"/>
			<point x="1139" y="484" type="line" smooth="yes"/>
			<point x="1041" y="164"/>
			<point x="867" y="36"/>
			<point x="601" y="36" type="curve" smooth="yes"/>
			<point x="320" y="36"/>
			<point x="219" y="202"/>
		</contour>
	</outline>
	<anchor name="UCtop" x="979" y="1340"/>
	<anchor name="right" x="776" y="0"/>
	<anchor name="bottom" x="590" y="0"/>
	<anchor name="horn" x="1475" y="1340"/>
</glyph>
<glyph name="V" format="2">
	<unicode hex="0056"/>
	<advance width="1266"/>
	<outline>
		<contour>
			<point x="410" y="1288" type="line"/>
			<point x="493" y="-20" type="line"/>
			<point x="513" y="-20" type="line"/>
			<point x="1360" y="1288" type="line"/>
			<point x="1528" y="1318" type="line"/>
			<point x="1535" y="1340" type="line"/>
			<point x="1154" y="1340" type="line"/>
			<point x="1147" y="1318" type="line"/>
			<point x="1308" y="1288" type="line"/>
			<point x="524" y="75" type="line"/>
			<point x="550" y="75" type="line"/>
			<point x="478" y="1288" type="line"/>
			<point x="645" y="1318" type="line"/>
			<point x="652" y="1340" type="line"/>
			<point x="257" y="1340" type="line"/>
			<point x="250" y="1318" type="line"/>
		</contour>
	</outline>
	<anchor name="UCtop" x="891" y="1340"/>
	<anchor name="bottom" x="552" y="0"/>
</glyph>
<glyph name="W" format="2">
	<unicode hex="0057"/>
	<advance width="1749"/>
	<outline>
		<contour>
			<point x="1786" y="1288" type="line"/>
			<point x="1128" y="75" type="line"/>
			<point x="1174" y="85" type="line"/>
			<point x="1173" y="1360" type="line"/>
			<point x="1152" y="1360" type="line"/>
			<point x="359" y="75" type="line"/>
			<point x="403" y="85" type="line"/>
			<point x="486" y="1288" type="line"/>
			<point x="659" y="1318" type="line"/>
			<point x="665" y="1340" type="line"/>
			<point x="270" y="1340" type="line"/>
			<point x="264" y="1318" type="line"/>
			<point x="419" y="1288" type="line"/>
			<point x="331" y="-20" type="line"/>
			<point x="349" y="-20" type="line"/>
			<point x="1122" y="1233" type="line"/>
			<point x="1106" y="1233" type="line"/>
			<point x="1104" y="-20" type="line"/>
			<point x="1125" y="-20" type="line"/>
			<point x="1839" y="1288" type="line"/>
			<point x="2013" y="1318" type="line"/>
			<point x="2019" y="1340" type="line"/>
			<point x="1639" y="1340" type="line"/>
			<point x="1632" y="1318" type="line"/>
		</contour>
	</outline>
	<anchor name="UCtop" x="1141" y="1340"/>
	<anchor name="bottom" x="742" y="0"/>
</glyph>
<glyph name="X" format="2">
	<unicode hex="0058"/>
	<advance width="1292"/>
	<outline>
		<contour>
			<point x="733" y="676" type="line"/>
			<point x="755" y="687" type="line"/>
			<point x="1355" y="1290" type="line"/>
			<point x="1519" y="1318" type="line"/>
			<point x="1526" y="1340" type="line"/>
			<point x="1147" y="1340" type="line"/>
			<point x="1141" y="1318" type="line"/>
			<point x="1295" y="1290" type="line"/>
			<point x="733" y="723" type="line"/>
			<point x="711" y="711" type="line"/>
			<point x="46" y="50" type="line"/>
			<point x="-118" y="22" type="line"/>
			<point x="-124" y="0" type="line"/>
			<point x="254" y="0" type="line"/>
			<point x="261" y="22" type="line"/>
			<point x="107" y="50" type="line"/>
		</contour>
		<contour>
			<point x="949" y="50" type="line"/>
			<point x="776" y="22" type="line"/>
			<point x="769" y="0" type="line"/>
			<point x="1168" y="0" type="line"/>
			<point x="1175" y="22" type="line"/>
			<point x="1021" y="50" type="line"/>
			<point x="764" y="718" type="line"/>
			<point x="759" y="731" type="line"/>
			<point x="544" y="1290" type="line"/>
			<point x="717" y="1318" type="line"/>
			<point x="723" y="1340" type="line"/>
			<point x="324" y="1340" type="line"/>
			<point x="317" y="1318" type="line"/>
			<point x="472" y="1290" type="line"/>
			<point x="704" y="687" type="line"/>
			<point x="710" y="671" type="line"/>
		</contour>
	</outline>
	<anchor name="UCtop" x="930" y="1340"/>
	<anchor name="bottom" x="521" y="0"/>
</glyph>
<glyph name="Y" format="2">
	<unicode hex="0059"/>
	<advance width="1257"/>
	<outline>
		<contour>
			<point x="1275" y="1288" type="line"/>
			<point x="687" y="603" type="line"/>
			<point x="718" y="604" type="line"/>
			<point x="493" y="1288" type="line"/>
			<point x="666" y="1318" type="line"/>
			<point x="672" y="1340" type="line"/>
			<point x="268" y="1340" type="line"/>
			<point x="262" y="1318" type="line"/>
			<point x="416" y="1288" type="line"/>
			<point x="650" y="585" type="line"/>
			<point x="486" y="50" type="line"/>
			<point x="318" y="22" type="line"/>
			<point x="312" y="0" type="line"/>
			<point x="711" y="0" type="line"/>
			<point x="717" y="22" type="line"/>
			<point x="558" y="50" type="line"/>
			<point x="722" y="585" type="line"/>
			<point x="1328" y="1288" type="line"/>
			<point x="1501" y="1318" type="line"/>
			<point x="1508" y="1340" type="line"/>
			<point x="1128" y="1340" type="line"/>
			<point x="1121" y="1318" type="line"/>
		</contour>
	</outline>
	<anchor name="UCtop" x="894" y="1340"/>
	<anchor name="bottom" x="525" y="0"/>
</glyph>
<glyph name="Z" format="2">
	<unicode hex="005A"/>
	<advance width="1162"/>
	<outline>
		<contour>
			<point x="1338" y="1340" type="line"/>
			<point x="505" y="1340" type="line"/>
			<point x="439" y="1392" type="line"/>
			<point x="429" y="1392" type="line"/>
			<point x="252" y="991" type="line"/>
			<point x="269" y="982" type="line"/>
			<point x="507" y="1298" type="line"/>
			<point x="1275" y="1298" type="line"/>
			<point x="1234" y="1317" type="line"/>
			<point x="-11" y="15" type="line"/>
			<point x="-16" y="0" type="line"/>
			<point x="802" y="0" type="line"/>
			<point x="880" y="-38" type="line"/>
			<point x="889" y="-38" type="line"/>
			<point x="1058" y="326" type="line"/>
			<point x="1036" y="337" type="line"/>
			<point x="802" y="42" type="line"/>
			<point x="70" y="42" type="line"/>
			<point x="84" y="21" type="line"/>
			<point x="1334" y="1325" type="line"/>
		</contour>
	</outline>
	<anchor name="UCtop" x="870" y="1340"/>
	<anchor name="bottom" x="451" y="0"/>
</glyph>
<glyph name="bracketleft" format="2">
	<unicode hex="005B"/>
	<advance width="512"/>
	<outline>
		<contour>
			<point x="-12" y="-255" type="line"/>
			<point x="260" y="-255" type="line"/>
			<point x="273" y="-215" type="line"/>
			<point x="66" y="-215" type="line"/>
			<point x="547" y="1359" type="line"/>
			<point x="754" y="1359" type="line"/>
			<point x="766" y="1399" type="line"/>
			<point x="493" y="1399" type="line"/>
		</contour>
	</outline>
</glyph>
<glyph name="backslash" format="2">
	<unicode hex="005C"/>
	<advance width="710"/>
	<outline>
		<contour>
			<point x="521" y="0" type="line"/>
			<point x="391" y="1340" type="line"/>
			<point x="339" y="1340" type="line"/>
			<point x="469" y="0" type="line"/>
		</contour>
	</outline>
</glyph>
<glyph name="bracketright" format="2">
	<unicode hex="005D"/>
	<advance width="511"/>
	<outline>
		<contour>
			<point x="614" y="1400" type="line"/>
			<point x="342" y="1400" type="line"/>
			<point x="329" y="1360" type="line"/>
			<point x="536" y="1360" type="line"/>
			<point x="55" y="-214" type="line"/>
			<point x="-152" y="-214" type="line"/>
			<point x="-164" y="-254" type="line"/>
			<point x="109" y="-254" type="line"/>
		</contour>
	</outline>
</glyph>
<glyph name="asciicircum" format="2">
	<unicode hex="005E"/>
	<advance width="1000"/>
	<outline>
		<contour>
			<point x="770" y="1309" type="line"/>
			<point x="864" y="592" type="line"/>
			<point x="912" y="592" type="line"/>
			<point x="801" y="1340" type="line"/>
			<point x="765" y="1340" type="line"/>
			<point x="200" y="592" type="line"/>
			<point x="256" y="592" type="line"/>
			<point x="789" y="1309" type="line"/>
		</contour>
	</outline>
</glyph>
<glyph name="a" format="2">
	<unicode hex="0061"/>
	<advance width="874"/>
	<outline>
		<contour>
			<point x="500" y="59" type="line" smooth="yes"/>
			<point x="479" y="-1"/>
			<point x="480" y="-20"/>
			<point x="543" y="-20" type="curve" smooth="yes"/>
			<point x="613" y="-20"/>
			<point x="715" y="27"/>
			<point x="853" y="175" type="curve"/>
			<point x="836" y="194" type="line"/>
			<point x="680" y="49"/>
			<point x="593" y="39"/>
			<point x="529" y="46" type="curve"/>
			<point x="552" y="24" type="line"/>
			<point x="819" y="852" type="line"/>
			<point x="754" y="852" type="line"/>
			<point x="730" y="770" type="line"/>
			<point x="669" y="558" type="line" smooth="yes"/>
			<point x="595" y="303"/>
			<point x="375" y="44"/>
			<point x="223" y="44" type="curve" smooth="yes"/>
			<point x="136" y="44"/>
			<point x="102" y="94"/>
			<point x="102" y="192" type="curve" smooth="yes"/>
			<point x="102" y="424"/>
			<point x="349" y="827"/>
			<point x="602" y="827" type="curve" smooth="yes"/>
			<point x="680" y="827"/>
			<point x="714" y="782"/>
			<point x="737" y="706" type="curve"/>
			<point x="776" y="738" type="line"/>
			<point x="743" y="809"/>
			<point x="700" y="857"/>
			<point x="603" y="857" type="curve" smooth="yes"/>
			<point x="309" y="857"/>
			<point x="25" y="452"/>
			<point x="25" y="164" type="curve" smooth="yes"/>
			<point x="25" y="52"/>
			<point x="72" y="-20"/>
			<point x="190" y="-20" type="curve" smooth="yes"/>
			<point x="319" y="-20"/>
			<point x="504" y="173"/>
			<point x="627" y="394" type="curve"/>
			<point x="614" y="394" type="line"/>
		</contour>
	</outline>
	<anchor name="top" x="579" y="852"/>
	<anchor name="right" x="766" y="0"/>
	<anchor name="bottom" x="329" y="0"/>
</glyph>
<glyph name="c" format="2">
	<unicode hex="0063"/>
	<advance width="663"/>
	<outline>
		<contour>
			<point x="497" y="833" type="curve" smooth="yes"/>
			<point x="541" y="833"/>
			<point x="569" y="809"/>
			<point x="590" y="785" type="curve" smooth="yes"/>
			<point x="611" y="761"/>
			<point x="623" y="737"/>
			<point x="635" y="737" type="curve" smooth="yes"/>
			<point x="665" y="737"/>
			<point x="681" y="757"/>
			<point x="681" y="782" type="curve" smooth="yes"/>
			<point x="681" y="835"/>
			<point x="630" y="872"/>
			<point x="534" y="872" type="curve" smooth="yes"/>
			<point x="356" y="872"/>
			<point x="58" y="648"/>
			<point x="58" y="216" type="curve" smooth="yes"/>
			<point x="58" y="54"/>
			<point x="136" y="-20"/>
			<point x="247" y="-20" type="curve" smooth="yes"/>
			<point x="373" y="-20"/>
			<point x="468" y="49"/>
			<point x="580" y="277" type="curve"/>
			<point x="551" y="277" type="line"/>
			<point x="447" y="97"/>
			<point x="356" y="44"/>
			<point x="267" y="44" type="curve" smooth="yes"/>
			<point x="173" y="44"/>
			<point x="129" y="104"/>
			<point x="129" y="253" type="curve" smooth="yes"/>
			<point x="129" y="594"/>
			<point x="344" y="833"/>
		</contour>
	</outline>
	<anchor name="top" x="483" y="852"/>
	<anchor name="right" x="521" y="0"/>
	<anchor name="bottom" x="289" y="0"/>
</glyph>
<glyph name="e" format="2">
	<unicode hex="0065"/>
	<advance width="698"/>
	<outline>
		<contour>
			<point x="517" y="831" type="curve" smooth="yes"/>
			<point x="606" y="831"/>
			<point x="629" y="780"/>
			<point x="629" y="719" type="curve" smooth="yes"/>
			<point x="629" y="635"/>
			<point x="603" y="583"/>
			<point x="128" y="429" type="curve"/>
			<point x="125" y="399" type="line"/>
			<point x="328" y="462"/>
			<point x="515" y="526"/>
			<point x="650" y="587" type="curve"/>
			<point x="684" y="631"/>
			<point x="700" y="681"/>
			<point x="700" y="733" type="curve" smooth="yes"/>
			<point x="700" y="808"/>
			<point x="655" y="872"/>
			<point x="547" y="872" type="curve" smooth="yes"/>
			<point x="332" y="872"/>
			<point x="53" y="600"/>
			<point x="53" y="216" type="curve" smooth="yes"/>
			<point x="53" y="44"/>
			<point x="143" y="-20"/>
			<point x="250" y="-20" type="curve" smooth="yes"/>
			<point x="366" y="-20"/>
			<point x="470" y="32"/>
			<point x="596" y="277" type="curve"/>
			<point x="566" y="277" type="line"/>
			<point x="451" y="82"/>
			<point x="353" y="44"/>
			<point x="275" y="44" type="curve" smooth="yes"/>
			<point x="188" y="44"/>
			<point x="125" y="90"/>
			<point x="125" y="253" type="curve" smooth="yes"/>
			<point x="125" y="586"/>
			<point x="346" y="831"/>
		</contour>
	</outline>
	<anchor name="top" x="493" y="852"/>
	<anchor name="right" x="560" y="0"/>
	<anchor name="bottom" x="260" y="0"/>
</glyph>
<glyph name="f" format="2">
	<unicode hex="0066"/>
	<advance width="537"/>
	<outline>
		<contour>
			<point x="113" y="807" type="line"/>
			<point x="642" y="807" type="line"/>
			<point x="651" y="852" type="line"/>
			<point x="122" y="852" type="line"/>
		</contour>
		<contour>
			<point x="229" y="75" type="curve" smooth="yes"/>
			<point x="423" y="983" type="line" smooth="yes"/>
			<point x="484" y="1269"/>
			<point x="609" y="1377"/>
			<point x="753" y="1377" type="curve" smooth="yes"/>
			<point x="798" y="1377"/>
			<point x="825" y="1367"/>
			<point x="861" y="1340" type="curve" smooth="yes"/>
			<point x="897" y="1313"/>
			<point x="917" y="1282"/>
			<point x="929" y="1282" type="curve" smooth="yes"/>
			<point x="956" y="1282"/>
			<point x="983" y="1302"/>
			<point x="983" y="1329" type="curve" smooth="yes"/>
			<point x="983" y="1373"/>
			<point x="930" y="1419"/>
			<point x="814" y="1419" type="curve" smooth="yes"/>
			<point x="598" y="1419"/>
			<point x="417" y="1287"/>
			<point x="338" y="914" type="curve" smooth="yes"/>
			<point x="145" y="4" type="line" smooth="yes"/>
			<point x="63" y="-382"/>
			<point x="-39" y="-486"/>
			<point x="-160" y="-486" type="curve" smooth="yes"/>
			<point x="-196" y="-486"/>
			<point x="-227" y="-476"/>
			<point x="-259" y="-446" type="curve" smooth="yes"/>
			<point x="-291" y="-416"/>
			<point x="-304" y="-393"/>
			<point x="-315" y="-393" type="curve" smooth="yes"/>
			<point x="-342" y="-393"/>
			<point x="-369" y="-413"/>
			<point x="-369" y="-440" type="curve" smooth="yes"/>
			<point x="-369" y="-484"/>
			<point x="-316" y="-530"/>
			<point x="-209" y="-530" type="curve" smooth="yes"/>
			<point x="-17" y="-530"/>
			<point x="130" y="-389"/>
		</contour>
	</outline>
	<anchor name="UCtop" x="718" y="1340"/>
	<anchor name="bottom" x="-100" y="-510"/>
</glyph>
<glyph name="g" format="2">
	<unicode hex="0067"/>
	<advance width="703"/>
	<outline>
		<contour>
			<point x="779" y="770" type="curve" smooth="yes"/>
			<point x="813" y="770"/>
			<point x="838" y="800"/>
			<point x="838" y="829" type="curve" smooth="yes"/>
			<point x="838" y="852"/>
			<point x="822" y="863"/>
			<point x="803" y="863" type="curve" smooth="yes"/>
			<point x="751" y="863"/>
			<point x="692" y="831"/>
			<point x="489" y="857" type="curve"/>
			<point x="526" y="828" type="line"/>
			<point x="711" y="826"/>
			<point x="740" y="770"/>
		</contour>
		<contour>
			<point x="279" y="270" type="curve" smooth="yes"/>
			<point x="204" y="270"/>
			<point x="169" y="321"/>
			<point x="169" y="437" type="curve" smooth="yes"/>
			<point x="169" y="623"/>
			<point x="301" y="844"/>
			<point x="451" y="844" type="curve" smooth="yes"/>
			<point x="526" y="844"/>
			<point x="561" y="793"/>
			<point x="561" y="677" type="curve" smooth="yes"/>
			<point x="561" y="491"/>
			<point x="429" y="270"/>
		</contour>
		<contour>
			<point x="451" y="872" type="curve" smooth="yes"/>
			<point x="241" y="872"/>
			<point x="103" y="640"/>
			<point x="103" y="436" type="curve" smooth="yes"/>
			<point x="103" y="320"/>
			<point x="160" y="242"/>
			<point x="279" y="242" type="curve" smooth="yes"/>
			<point x="489" y="242"/>
			<point x="627" y="474"/>
			<point x="627" y="678" type="curve" smooth="yes"/>
			<point x="627" y="794"/>
			<point x="570" y="872"/>
		</contour>
		<contour>
			<point x="176" y="-530" type="curve" smooth="yes"/>
			<point x="419" y="-530"/>
			<point x="590" y="-405"/>
			<point x="590" y="-247" type="curve" smooth="yes"/>
			<point x="590" y="-161"/>
			<point x="526" y="-96"/>
			<point x="342" y="-28" type="curve" smooth="yes"/>
			<point x="194" y="27"/>
			<point x="134" y="72"/>
			<point x="134" y="130" type="curve" smooth="yes"/>
			<point x="134" y="172"/>
			<point x="167" y="219"/>
			<point x="266" y="250" type="curve"/>
			<point x="249" y="262" type="line"/>
			<point x="135" y="228"/>
			<point x="77" y="167"/>
			<point x="77" y="87" type="curve" smooth="yes"/>
			<point x="77" y="30"/>
			<point x="116" y="-16"/>
			<point x="302" y="-84" type="curve" smooth="yes"/>
			<point x="489" y="-152"/>
			<point x="527" y="-208"/>
			<point x="527" y="-276" type="curve" smooth="yes"/>
			<point x="527" y="-388"/>
			<point x="402" y="-500"/>
			<point x="177" y="-500" type="curve" smooth="yes"/>
			<point x="12" y="-500"/>
			<point x="-92" y="-430"/>
			<point x="-92" y="-315" type="curve" smooth="yes"/>
			<point x="-92" y="-191"/>
			<point x="27" y="-81"/>
			<point x="290" y="-71" type="curve"/>
			<point x="290" y="-56" type="line"/>
			<point x="234" y="-53" type="line"/>
			<point x="-56" y="-81"/>
			<point x="-167" y="-191"/>
			<point x="-167" y="-324" type="curve" smooth="yes"/>
			<point x="-167" y="-459"/>
			<point x="-21" y="-530"/>
		</contour>
	</outline>
	<anchor name="top" x="435" y="852"/>
	<anchor name="bottom" x="213" y="-510"/>
</glyph>
<glyph name="i" format="2">
	<unicode hex="0069"/>
	<advance width="498"/>
	<outline>
		<contour>
			<point x="102" y="59" type="line" smooth="yes"/>
			<point x="81.6861159003" y="-0.2488286241"/>
			<point x="83.0769230769" y="-20"/>
			<point x="143" y="-20" type="curve" smooth="yes"/>
			<point x="213" y="-20"/>
			<point x="315" y="27"/>
			<point x="453" y="175" type="curve"/>
			<point x="436" y="194" type="line"/>
			<point x="280" y="49"/>
			<point x="193" y="39"/>
			<point x="129" y="46" type="curve"/>
			<point x="155" y="23" type="line"/>
			<point x="419" y="793" type="line" smooth="yes"/>
			<point x="439.3138840997" y="852.2488286241"/>
			<point x="437.9230769231" y="872"/>
			<point x="378" y="872" type="curve" smooth="yes"/>
			<point x="313" y="872"/>
			<point x="201" y="824"/>
			<point x="55" y="652" type="curve"/>
			<point x="73" y="634" type="line"/>
			<point x="234" y="796"/>
			<point x="324" y="812"/>
			<point x="392" y="807" type="curve"/>
			<point x="366" y="829" type="line"/>
		</contour>
		<contour>
			<point x="420" y="1341" type="curve" smooth="yes"/>
			<point x="420" y="1297"/>
			<point x="452" y="1264"/>
			<point x="497" y="1264" type="curve" smooth="yes"/>
			<point x="545" y="1264"/>
			<point x="574" y="1297"/>
			<point x="574" y="1341" type="curve" smooth="yes"/>
			<point x="574" y="1383"/>
			<point x="545" y="1415"/>
			<point x="497" y="1415" type="curve" smooth="yes"/>
			<point x="452" y="1415"/>
			<point x="420" y="1383"/>
		</contour>
	</outline>
	<anchor name="top" x="474" y="1340"/>
	<anchor name="bottom" x="156" y="0"/>
	<anchor name="right" x="334" y="0"/>
</glyph>
<glyph name="l" format="2">
	<unicode hex="006C"/>
	<advance width="445"/>
	<outline>
		<contour>
			<point x="431" y="1330" type="curve"/>
			<point x="55" y="59" type="line" smooth="yes"/>
			<point x="38" y="0"/>
			<point x="38.2195121951" y="-20"/>
			<point x="98" y="-20" type="curve" smooth="yes"/>
			<point x="168" y="-20"/>
			<point x="269" y="27"/>
			<point x="403" y="175" type="curve"/>
			<point x="385" y="194" type="line"/>
			<point x="233" y="49"/>
			<point x="147" y="39"/>
			<point x="82" y="46" type="curve"/>
			<point x="109" y="23" type="line"/>
			<point x="523" y="1419" type="line"/>
			<point x="506" y="1419" type="line"/>
			<point x="284" y="1379" type="line"/>
			<point x="280" y="1366" type="line"/>
			<point x="337" y="1352.4105960265"/>
			<point x="395" y="1338.582781457"/>
		</contour>
	</outline>
	<anchor name="UCtop" x="418" y="1340"/>
	<anchor name="right" x="517" y="1399"/>
	<anchor name="bottom" x="126" y="0"/>
	<anchor name="mid" x="447" y="546"/>
</glyph>
<glyph name="m" format="2">
	<unicode hex="006D"/>
	<advance width="1345"/>
	<outline>
		<contour>
			<point x="996" y="24" type="line"/>
			<point x="1231" y="626" type="line" smooth="yes"/>
			<point x="1250" y="674"/>
			<point x="1259" y="717"/>
			<point x="1259" y="753" type="curve" smooth="yes"/>
			<point x="1259" y="828"/>
			<point x="1219" y="872"/>
			<point x="1143" y="872" type="curve" smooth="yes"/>
			<point x="1015" y="872"/>
			<point x="869" y="756"/>
			<point x="685" y="377" type="curve"/>
			<point x="702" y="377" type="line"/>
			<point x="783" y="609" type="line" smooth="yes"/>
			<point x="802" y="664"/>
			<point x="813" y="713"/>
			<point x="813" y="753" type="curve" smooth="yes"/>
			<point x="813" y="827"/>
			<point x="777" y="872"/>
			<point x="692" y="872" type="curve" smooth="yes"/>
			<point x="569" y="872"/>
			<point x="439" y="756"/>
			<point x="255" y="377" type="curve"/>
			<point x="274" y="377" type="line"/>
			<point x="422" y="856" type="line"/>
			<point x="407" y="862"/>
			<point x="371" y="868"/>
			<point x="339" y="868" type="curve" smooth="yes"/>
			<point x="236" y="868"/>
			<point x="151" y="818"/>
			<point x="57" y="630" type="curve"/>
			<point x="79" y="619" type="line"/>
			<point x="150" y="741"/>
			<point x="223" y="811"/>
			<point x="302" y="811" type="curve" smooth="yes"/>
			<point x="324" y="811"/>
			<point x="335" y="809"/>
			<point x="342" y="807" type="curve"/>
			<point x="98" y="0" type="line"/>
			<point x="163" y="0" type="line"/>
			<point x="240" y="253" type="line" smooth="yes"/>
			<point x="331" y="552"/>
			<point x="527" y="816"/>
			<point x="672" y="816" type="curve" smooth="yes"/>
			<point x="718" y="816"/>
			<point x="748" y="794"/>
			<point x="748" y="734" type="curve" smooth="yes"/>
			<point x="748" y="705"/>
			<point x="742" y="668"/>
			<point x="726" y="621" type="curve" smooth="yes"/>
			<point x="522" y="0" type="line"/>
			<point x="587" y="0" type="line"/>
			<point x="670" y="253" type="line" smooth="yes"/>
			<point x="760" y="527"/>
			<point x="962" y="816"/>
			<point x="1117" y="816" type="curve" smooth="yes"/>
			<point x="1163" y="816"/>
			<point x="1190" y="790"/>
			<point x="1190" y="737" type="curve" smooth="yes"/>
			<point x="1190" y="708"/>
			<point x="1182" y="670"/>
			<point x="1164" y="624" type="curve" smooth="yes"/>
			<point x="944" y="59" type="line" smooth="yes"/>
			<point x="921" y="0"/>
			<point x="924" y="-20"/>
			<point x="987" y="-20" type="curve" smooth="yes"/>
			<point x="1057" y="-20"/>
			<point x="1159" y="27"/>
			<point x="1297" y="175" type="curve"/>
			<point x="1280" y="194" type="line"/>
			<point x="1124" y="49"/>
			<point x="1037" y="39"/>
			<point x="973" y="46" type="curve"/>
		</contour>
	</outline>
	<anchor name="top" x="815" y="852"/>
	<anchor name="bottom" x="565" y="0"/>
</glyph>
<glyph name="n" format="2">
	<unicode hex="006E"/>
	<advance width="962"/>
	<outline>
		<contour>
			<point x="79" y="619" type="line"/>
			<point x="150" y="741"/>
			<point x="223" y="811"/>
			<point x="302" y="811" type="curve" smooth="yes"/>
			<point x="324" y="811"/>
			<point x="335" y="809"/>
			<point x="342" y="807" type="curve"/>
			<point x="98" y="0" type="line"/>
			<point x="163" y="0" type="line"/>
			<point x="240" y="253" type="line" smooth="yes"/>
			<point x="330" y="549"/>
			<point x="551" y="814"/>
			<point x="729" y="814" type="curve" smooth="yes"/>
			<point x="781" y="814"/>
			<point x="810" y="793"/>
			<point x="810" y="740" type="curve" smooth="yes"/>
			<point x="810" y="712"/>
			<point x="801" y="673"/>
			<point x="782" y="624" type="curve" smooth="yes"/>
			<point x="562" y="59" type="line" smooth="yes"/>
			<point x="539" y="1"/>
			<point x="548" y="-20"/>
			<point x="605" y="-20" type="curve" smooth="yes"/>
			<point x="675" y="-20"/>
			<point x="777" y="27"/>
			<point x="915" y="175" type="curve"/>
			<point x="898" y="194" type="line"/>
			<point x="742" y="49"/>
			<point x="655" y="39"/>
			<point x="591" y="46" type="curve"/>
			<point x="614" y="24" type="line"/>
			<point x="841" y="605" type="line" smooth="yes"/>
			<point x="864" y="662"/>
			<point x="877" y="714"/>
			<point x="877" y="755" type="curve" smooth="yes"/>
			<point x="877" y="828"/>
			<point x="837" y="872"/>
			<point x="741" y="872" type="curve" smooth="yes"/>
			<point x="606" y="872"/>
			<point x="445" y="759"/>
			<point x="259" y="377" type="curve"/>
			<point x="274" y="377" type="line"/>
			<point x="422" y="856" type="line"/>
			<point x="405" y="862"/>
			<point x="371" y="868"/>
			<point x="339" y="868" type="curve" smooth="yes"/>
			<point x="236" y="868"/>
			<point x="151" y="818"/>
			<point x="57" y="630" type="curve"/>
		</contour>
	</outline>
	<anchor name="top" x="593" y="852"/>
	<anchor name="bottom" x="396" y="0"/>
</glyph>
<glyph name="o" format="2">
	<unicode hex="006F"/>
	<advance width="800"/>
	<outline>
		<contour>
			<point x="521" y="872" type="curve" smooth="yes"/>
			<point x="257" y="872"/>
			<point x="63" y="557"/>
			<point x="63" y="245" type="curve" smooth="yes"/>
			<point x="63" y="74"/>
			<point x="138" y="-20"/>
			<point x="280" y="-20" type="curve" smooth="yes"/>
			<point x="544" y="-20"/>
			<point x="738" y="295"/>
			<point x="738" y="607" type="curve" smooth="yes"/>
			<point x="738" y="778"/>
			<point x="663" y="872"/>
		</contour>
		<contour>
			<point x="277" y="12" type="curve" smooth="yes"/>
			<point x="180" y="12"/>
			<point x="130" y="77"/>
			<point x="130" y="236" type="curve" smooth="yes"/>
			<point x="130" y="499"/>
			<point x="302" y="840"/>
			<point x="524" y="840" type="curve" smooth="yes"/>
			<point x="621" y="840"/>
			<point x="671" y="775"/>
			<point x="671" y="616" type="curve" smooth="yes"/>
			<point x="671" y="353"/>
			<point x="499" y="12"/>
		</contour>
	</outline>
	<anchor name="top" x="510" y="852"/>
	<anchor name="bottom" x="270" y="0"/>
	<anchor name="horn" x="635" y="852"/>
	<anchor name="right" x="348" y="0"/>
</glyph>
<glyph name="p" format="2">
	<unicode hex="0070"/>
	<advance width="950"/>
	<outline>
		<contour>
			<point x="251" y="202" type="curve" smooth="yes"/>
			<point x="282" y="323" type="line" smooth="yes"/>
			<point x="343" y="561"/>
			<point x="513" y="810"/>
			<point x="686" y="810" type="curve" smooth="yes"/>
			<point x="775" y="810"/>
			<point x="821" y="741"/>
			<point x="821" y="604" type="curve" smooth="yes"/>
			<point x="821" y="297"/>
			<point x="582" y="11"/>
			<point x="395" y="11" type="curve" smooth="yes"/>
			<point x="303" y="11"/>
			<point x="246" y="82"/>
			<point x="246" y="161" type="curve" smooth="yes"/>
			<point x="246" y="174"/>
			<point x="247" y="188"/>
		</contour>
		<contour>
			<point x="184" y="104" type="line"/>
			<point x="199" y="33"/>
			<point x="274" y="-20"/>
			<point x="388" y="-20" type="curve" smooth="yes"/>
			<point x="638" y="-20"/>
			<point x="903" y="294"/>
			<point x="903" y="649" type="curve" smooth="yes"/>
			<point x="903" y="790"/>
			<point x="837" y="872"/>
			<point x="715" y="872" type="curve" smooth="yes"/>
			<point x="600" y="872"/>
			<point x="436" y="765"/>
			<point x="300" y="460" type="curve"/>
			<point x="313" y="443" type="line"/>
			<point x="423" y="856" type="line"/>
			<point x="406" y="862"/>
			<point x="372" y="868"/>
			<point x="340" y="868" type="curve" smooth="yes"/>
			<point x="237" y="868"/>
			<point x="152" y="818"/>
			<point x="58" y="630" type="curve"/>
			<point x="80" y="619" type="line"/>
			<point x="151" y="741"/>
			<point x="224" y="811"/>
			<point x="303" y="811" type="curve" smooth="yes"/>
			<point x="325" y="811"/>
			<point x="336" y="809"/>
			<point x="343" y="807" type="curve"/>
			<point x="8" y="-461" type="line"/>
			<point x="-139" y="-487" type="line"/>
			<point x="-146" y="-510" type="line"/>
			<point x="245" y="-510" type="line"/>
			<point x="252" y="-487" type="line"/>
			<point x="75" y="-461" type="line"/>
			<point x="224" y="104" type="line"/>
		</contour>
	</outline>
	<anchor name="top" x="599" y="852"/>
	<anchor name="bottom" x="27" y="-510"/>
</glyph>
<glyph name="q" format="2">
	<unicode hex="0071"/>
	<advance width="830"/>
	<outline>
		<contour>
			<point x="373" y="-461" type="line"/>
			<point x="193" y="-487" type="line"/>
			<point x="186" y="-510" type="line"/>
			<point x="575" y="-510" type="line"/>
			<point x="582" y="-487" type="line"/>
			<point x="438" y="-461" type="line"/>
			<point x="819" y="852" type="line"/>
			<point x="754" y="852" type="line"/>
			<point x="733" y="781" type="line"/>
			<point x="669" y="558" type="line" smooth="yes"/>
			<point x="595" y="303"/>
			<point x="375" y="44"/>
			<point x="223" y="44" type="curve" smooth="yes"/>
			<point x="136" y="44"/>
			<point x="102" y="94"/>
			<point x="102" y="192" type="curve" smooth="yes"/>
			<point x="102" y="424"/>
			<point x="354" y="837"/>
			<point x="607" y="837" type="curve" smooth="yes"/>
			<point x="685" y="837"/>
			<point x="719" y="792"/>
			<point x="742" y="716" type="curve"/>
			<point x="770" y="740" type="line"/>
			<point x="736" y="817"/>
			<point x="705" y="867"/>
			<point x="608" y="867" type="curve" smooth="yes"/>
			<point x="314" y="867"/>
			<point x="25" y="452"/>
			<point x="25" y="164" type="curve" smooth="yes"/>
			<point x="25" y="52"/>
			<point x="72" y="-20"/>
			<point x="190" y="-20" type="curve" smooth="yes"/>
			<point x="322" y="-20"/>
			<point x="512" y="181"/>
			<point x="635" y="408" type="curve"/>
			<point x="624" y="408" type="line"/>
		</contour>
	</outline>
	<anchor name="top" x="542" y="852"/>
	<anchor name="bottom" x="391" y="-510"/>
</glyph>
<glyph name="r" format="2">
	<unicode hex="0072"/>
	<advance width="670"/>
	<outline>
		<contour>
			<point x="342" y="807" type="curve"/>
			<point x="98" y="0" type="line"/>
			<point x="163" y="0" type="line"/>
			<point x="258" y="313" type="line" smooth="yes"/>
			<point x="333" y="559"/>
			<point x="523" y="799"/>
			<point x="622" y="799" type="curve" smooth="yes"/>
			<point x="643" y="799"/>
			<point x="663" y="785"/>
			<point x="677" y="773" type="curve" smooth="yes"/>
			<point x="691" y="761"/>
			<point x="704" y="751"/>
			<point x="714" y="751" type="curve" smooth="yes"/>
			<point x="741" y="751"/>
			<point x="770" y="774"/>
			<point x="770" y="810" type="curve" smooth="yes"/>
			<point x="770" y="846"/>
			<point x="748" y="871"/>
			<point x="697" y="871" type="curve" smooth="yes"/>
			<point x="563" y="871"/>
			<point x="400" y="699"/>
			<point x="282" y="439" type="curve"/>
			<point x="293" y="439" type="line"/>
			<point x="422" y="856" type="line"/>
			<point x="407" y="862"/>
			<point x="371" y="868"/>
			<point x="339" y="868" type="curve" smooth="yes"/>
			<point x="236" y="868"/>
			<point x="151" y="818"/>
			<point x="57" y="630" type="curve"/>
			<point x="79" y="619" type="line"/>
			<point x="150" y="741"/>
			<point x="223" y="811"/>
			<point x="302" y="811" type="curve" smooth="yes"/>
			<point x="324" y="811"/>
			<point x="335" y="809"/>
		</contour>
	</outline>
	<anchor name="top" x="473" y="852"/>
	<anchor name="bottom" x="131" y="0"/>
</glyph>
<glyph name="t" format="2">
	<unicode hex="0074"/>
	<advance width="543"/>
	<outline>
		<contour>
			<point x="144" y="807" type="line"/>
			<point x="564" y="807" type="line"/>
			<point x="573" y="852" type="line"/>
			<point x="157" y="852" type="line"/>
		</contour>
		<contour>
			<point x="206" y="230" type="curve" smooth="yes"/>
			<point x="429" y="1026" type="line"/>
			<point x="364" y="1026" type="line"/>
			<point x="134" y="204" type="line" smooth="yes"/>
			<point x="118" y="147"/>
			<point x="110" y="103"/>
			<point x="110" y="70" type="curve" smooth="yes"/>
			<point x="110" y="6"/>
			<point x="138" y="-20"/>
			<point x="190" y="-20" type="curve" smooth="yes"/>
			<point x="259" y="-20"/>
			<point x="372" y="58"/>
			<point x="488" y="249" type="curve"/>
			<point x="463" y="265" type="line"/>
			<point x="377" y="127"/>
			<point x="273" y="38"/>
			<point x="215" y="38" type="curve" smooth="yes"/>
			<point x="191" y="38"/>
			<point x="178" y="50"/>
			<point x="178" y="86" type="curve" smooth="yes"/>
			<point x="178" y="115"/>
			<point x="187" y="161"/>
		</contour>
	</outline>
	<anchor name="right" x="480" y="1340"/>
	<anchor name="bottom" x="262" y="0"/>
</glyph>
<glyph name="w" format="2">
	<unicode hex="0077"/>
	<advance width="1127"/>
	<outline>
		<contour>
			<point x="700" y="852" type="line"/>
			<point x="593" y="469" type="line" smooth="yes"/>
			<point x="523" y="217"/>
			<point x="380" y="39"/>
			<point x="260" y="39" type="curve" smooth="yes"/>
			<point x="216" y="39"/>
			<point x="190" y="66"/>
			<point x="190" y="120" type="curve" smooth="yes"/>
			<point x="190" y="146"/>
			<point x="196" y="179"/>
			<point x="210" y="219" type="curve" smooth="yes"/>
			<point x="429" y="856" type="line"/>
			<point x="415" y="862"/>
			<point x="376" y="868"/>
			<point x="346" y="868" type="curve" smooth="yes"/>
			<point x="243" y="868"/>
			<point x="158" y="818"/>
			<point x="64" y="630" type="curve"/>
			<point x="86" y="619" type="line"/>
			<point x="157" y="741"/>
			<point x="230" y="811"/>
			<point x="309" y="811" type="curve" smooth="yes"/>
			<point x="331" y="811"/>
			<point x="342" y="809"/>
			<point x="349" y="807" type="curve"/>
			<point x="152" y="235" type="line" smooth="yes"/>
			<point x="134" y="183"/>
			<point x="126" y="140"/>
			<point x="126" y="106" type="curve" smooth="yes"/>
			<point x="126" y="19"/>
			<point x="175" y="-16"/>
			<point x="237" y="-16" type="curve" smooth="yes"/>
			<point x="343" y="-16"/>
			<point x="488" y="86"/>
			<point x="592" y="386" type="curve"/>
			<point x="575" y="386" type="line"/>
			<point x="531" y="235" type="line" smooth="yes"/>
			<point x="517" y="187"/>
			<point x="510" y="146"/>
			<point x="510" y="113" type="curve" smooth="yes"/>
			<point x="510" y="23"/>
			<point x="558" y="-16"/>
			<point x="645" y="-16" type="curve" smooth="yes"/>
			<point x="838" y="-16"/>
			<point x="1062" y="335"/>
			<point x="1062" y="708" type="curve" smooth="yes"/>
			<point x="1062" y="827"/>
			<point x="1040" y="872"/>
			<point x="993" y="872" type="curve" smooth="yes"/>
			<point x="962" y="872"/>
			<point x="933" y="849"/>
			<point x="933" y="813" type="curve" smooth="yes"/>
			<point x="933" y="783"/>
			<point x="1013" y="748"/>
			<point x="1013" y="631" type="curve" smooth="yes"/>
			<point x="1013" y="380"/>
			<point x="858" y="39"/>
			<point x="652" y="39" type="curve" smooth="yes"/>
			<point x="593" y="39"/>
			<point x="567" y="64"/>
			<point x="567" y="117" type="curve" smooth="yes"/>
			<point x="567" y="144"/>
			<point x="573" y="178"/>
			<point x="585" y="219" type="curve" smooth="yes"/>
			<point x="763" y="852" type="line"/>
		</contour>
	</outline>
	<anchor name="top" x="713" y="852"/>
	<anchor name="bottom" x="513" y="0"/>
</glyph>
<glyph name="x" format="2">
	<unicode hex="0078"/>
	<advance width="861"/>
	<outline>
		<contour>
			<point x="436" y="427" type="line"/>
			<point x="555" y="572" type="line" smooth="yes"/>
			<point x="718" y="771"/>
			<point x="750" y="789"/>
			<point x="786" y="789" type="curve" smooth="yes"/>
			<point x="805" y="789"/>
			<point x="818" y="784"/>
			<point x="832" y="774" type="curve" smooth="yes"/>
			<point x="846" y="764"/>
			<point x="852" y="761"/>
			<point x="858" y="761" type="curve" smooth="yes"/>
			<point x="883" y="761"/>
			<point x="907" y="786"/>
			<point x="907" y="815" type="curve" smooth="yes"/>
			<point x="907" y="849"/>
			<point x="887" y="872"/>
			<point x="840" y="872" type="curve" smooth="yes"/>
			<point x="776" y="872"/>
			<point x="733" y="845"/>
			<point x="580" y="653" type="curve" smooth="yes"/>
			<point x="442" y="479" type="line"/>
			<point x="414" y="459" type="line"/>
			<point x="281" y="270" type="line" smooth="yes"/>
			<point x="160" y="99"/>
			<point x="103" y="63"/>
			<point x="52" y="63" type="curve" smooth="yes"/>
			<point x="34" y="63"/>
			<point x="22" y="68"/>
			<point x="11" y="75" type="curve" smooth="yes"/>
			<point x="0" y="82"/>
			<point x="-9" y="90"/>
			<point x="-18" y="90" type="curve" smooth="yes"/>
			<point x="-42" y="90"/>
			<point x="-67" y="67"/>
			<point x="-67" y="36" type="curve" smooth="yes"/>
			<point x="-67" y="5"/>
			<point x="-46" y="-18"/>
			<point x="-1" y="-18" type="curve" smooth="yes"/>
			<point x="74" y="-18"/>
			<point x="141" y="20"/>
			<point x="253" y="179" type="curve" smooth="yes"/>
			<point x="412" y="405" type="line"/>
		</contour>
		<contour>
			<point x="813" y="297" type="curve"/>
			<point x="785" y="297" type="line"/>
			<point x="690" y="108"/>
			<point x="606" y="44"/>
			<point x="544" y="44" type="curve" smooth="yes"/>
			<point x="532" y="44"/>
			<point x="529" y="50"/>
			<point x="524" y="77" type="curve" smooth="yes"/>
			<point x="390" y="812" type="line" smooth="yes"/>
			<point x="382" y="857"/>
			<point x="369" y="872"/>
			<point x="341" y="872" type="curve" smooth="yes"/>
			<point x="256" y="872"/>
			<point x="162" y="793"/>
			<point x="95" y="566" type="curve"/>
			<point x="123" y="566" type="line"/>
			<point x="201" y="763"/>
			<point x="259" y="813"/>
			<point x="316" y="813" type="curve" smooth="yes"/>
			<point x="324" y="813"/>
			<point x="328" y="810"/>
			<point x="332" y="786" type="curve" smooth="yes"/>
			<point x="468" y="40" type="line" smooth="yes"/>
			<point x="476" y="-5"/>
			<point x="487" y="-20"/>
			<point x="517" y="-20" type="curve" smooth="yes"/>
			<point x="604" y="-20"/>
			<point x="719" y="72"/>
		</contour>
	</outline>
	<anchor name="top" x="532" y="852"/>
	<anchor name="bottom" x="330" y="0"/>
</glyph>
<glyph name="y" format="2">
	<unicode hex="0079"/>
	<advance width="860"/>
	<outline>
		<contour>
			<point x="79" y="537" type="line"/>
			<point x="149" y="743"/>
			<point x="216" y="804"/>
			<point x="280" y="804" type="curve" smooth="yes"/>
			<point x="302" y="804"/>
			<point x="309" y="796"/>
			<point x="336" y="659" type="curve" smooth="yes"/>
			<point x="363" y="522"/>
			<point x="394" y="222"/>
			<point x="415" y="-168" type="curve"/>
			<point x="476" y="-75" type="line"/>
			<point x="460" y="283"/>
			<point x="428" y="571"/>
			<point x="395" y="715" type="curve" smooth="yes"/>
			<point x="362" y="859"/>
			<point x="346" y="872"/>
			<point x="305" y="872" type="curve" smooth="yes"/>
			<point x="213" y="872"/>
			<point x="117" y="789"/>
			<point x="49" y="537" type="curve"/>
		</contour>
		<contour>
			<point x="426" y="-112" type="line"/>
			<point x="265" y="-354"/>
			<point x="110" y="-461"/>
			<point x="4" y="-461" type="curve" smooth="yes"/>
			<point x="-31" y="-461"/>
			<point x="-61" y="-442"/>
			<point x="-81" y="-426" type="curve" smooth="yes"/>
			<point x="-101" y="-410"/>
			<point x="-115" y="-397"/>
			<point x="-124" y="-397" type="curve" smooth="yes"/>
			<point x="-145" y="-397"/>
			<point x="-168" y="-419"/>
			<point x="-168" y="-457" type="curve" smooth="yes"/>
			<point x="-168" y="-497"/>
			<point x="-131" y="-530"/>
			<point x="-59" y="-530" type="curve" smooth="yes"/>
			<point x="103" y="-530"/>
			<point x="310" y="-371"/>
			<point x="502" y="-55" type="curve" smooth="yes"/>
			<point x="694" y="261"/>
			<point x="826" y="638"/>
			<point x="826" y="826" type="curve" smooth="yes"/>
			<point x="826" y="853"/>
			<point x="821" y="858"/>
			<point x="798" y="858" type="curve" smooth="yes"/>
			<point x="784" y="858"/>
			<point x="766" y="856"/>
			<point x="750" y="852" type="curve"/>
			<point x="757" y="581"/>
			<point x="650" y="232"/>
			<point x="455" y="-68" type="curve"/>
		</contour>
	</outline>
	<anchor name="top" x="519" y="852"/>
	<anchor name="bottom" x="587" y="-195"/>
</glyph>
<glyph name="z" format="2">
	<unicode hex="007A"/>
	<advance width="753"/>
	<outline>
		<contour>
			<point x="7" y="5" type="line"/>
			<point x="34" y="-20" type="line"/>
			<point x="764" y="848" type="line"/>
			<point x="736" y="872" type="line"/>
		</contour>
		<contour>
			<point x="119" y="606" type="line"/>
			<point x="248" y="813"/>
			<point x="292" y="816"/>
			<point x="365" y="796" type="curve" smooth="yes"/>
			<point x="623" y="725" type="line"/>
			<point x="688" y="779" type="line"/>
			<point x="397" y="856" type="line" smooth="yes"/>
			<point x="274" y="887"/>
			<point x="231" y="857"/>
			<point x="99" y="616" type="curve"/>
		</contour>
		<contour>
			<point x="355" y="-2" type="line" smooth="yes"/>
			<point x="474" y="-51"/>
			<point x="538" y="-12"/>
			<point x="676" y="221" type="curve"/>
			<point x="656" y="231" type="line"/>
			<point x="524" y="40"/>
			<point x="448" y="31"/>
			<point x="363" y="69" type="curve" smooth="yes"/>
			<point x="152" y="162" type="line"/>
			<point x="94" y="105" type="line"/>
		</contour>
	</outline>
	<anchor name="top" x="465" y="852"/>
	<anchor name="bottom" x="325" y="0"/>
</glyph>
<glyph name="braceleft" format="2">
	<unicode hex="007B"/>
	<advance width="546"/>
	<outline>
		<contour>
			<point x="84" y="552" type="line"/>
			<point x="176" y="548" type="line" smooth="yes"/>
			<point x="237" y="545"/>
			<point x="261" y="517"/>
			<point x="261" y="472" type="curve" smooth="yes"/>
			<point x="261" y="329"/>
			<point x="72" y="62"/>
			<point x="72" y="-90" type="curve" smooth="yes"/>
			<point x="72" y="-175"/>
			<point x="113" y="-251"/>
			<point x="215" y="-264" type="curve" smooth="yes"/>
			<point x="277" y="-272" type="line"/>
			<point x="285" y="-243" type="line"/>
			<point x="238" y="-237" type="line" smooth="yes"/>
			<point x="166" y="-228"/>
			<point x="135" y="-187"/>
			<point x="135" y="-121" type="curve" smooth="yes"/>
			<point x="135" y="32"/>
			<point x="309" y="296"/>
			<point x="309" y="451" type="curve" smooth="yes"/>
			<point x="309" y="515"/>
			<point x="280" y="565"/>
			<point x="200" y="578" type="curve"/>
			<point x="192" y="556" type="line"/>
			<point x="332" y="570"/>
			<point x="389" y="649"/>
			<point x="428" y="778" type="curve" smooth="yes"/>
			<point x="467" y="907"/>
			<point x="472" y="1048"/>
			<point x="509" y="1173" type="curve" smooth="yes"/>
			<point x="546" y="1298"/>
			<point x="614" y="1358"/>
			<point x="724" y="1371" type="curve" smooth="yes"/>
			<point x="785" y="1378" type="line"/>
			<point x="785" y="1410" type="line"/>
			<point x="718" y="1402" type="line" smooth="yes"/>
			<point x="551" y="1382"/>
			<point x="462" y="1273"/>
			<point x="425" y="1150" type="curve" smooth="yes"/>
			<point x="388" y="1027"/>
			<point x="395" y="880"/>
			<point x="360" y="757" type="curve" smooth="yes"/>
			<point x="325" y="634"/>
			<point x="279" y="593"/>
			<point x="177" y="589" type="curve" smooth="yes"/>
			<point x="94" y="585" type="line"/>
		</contour>
	</outline>
</glyph>
<glyph name="bar" format="2">
	<unicode hex="007C"/>
	<advance width="444"/>
	<outline>
		<contour>
			<point x="-85" y="-530" type="line"/>
			<point x="-32" y="-530" type="line"/>
			<point x="556" y="1470" type="line"/>
			<point x="503" y="1470" type="line"/>
		</contour>
	</outline>
</glyph>
<glyph name="braceright" format="2">
  <advance width="544"/>
  <unicode hex="007D"/>
  <outline>
    <contour>
      <point x="550.0" y="586.0" type="line"/>
      <point x="458.0" y="590.0" type="line" smooth="yes"/>
      <point x="397.0" y="593.0"/>
      <point x="373.0" y="621.0"/>
      <point x="373.0" y="666.0" type="curve" smooth="yes"/>
      <point x="373.0" y="809.0"/>
      <point x="562.0" y="1076.0"/>
      <point x="562.0" y="1228.0" type="curve" smooth="yes"/>
      <point x="562.0" y="1313.0"/>
      <point x="521.0" y="1389.0"/>
      <point x="419.0" y="1402.0" type="curve" smooth="yes"/>
      <point x="357.0" y="1410.0" type="line"/>
      <point x="349.0" y="1381.0" type="line"/>
      <point x="396.0" y="1375.0" type="line" smooth="yes"/>
      <point x="468.0" y="1366.0"/>
      <point x="499.0" y="1325.0"/>
      <point x="499.0" y="1259.0" type="curve" smooth="yes"/>
      <point x="499.0" y="1106.0"/>
      <point x="325.0" y="842.0"/>
      <point x="325.0" y="687.0" type="curve" smooth="yes"/>
      <point x="325.0" y="623.0"/>
      <point x="354.0" y="573.0"/>
      <point x="434.0" y="560.0" type="curve"/>
      <point x="442.0" y="582.0" type="line"/>
      <point x="302.0" y="568.0"/>
      <point x="245.0" y="489.0"/>
      <point x="206.0" y="360.0" type="curve" smooth="yes"/>
      <point x="167.0" y="231.0"/>
      <point x="162.0" y="90.0"/>
      <point x="125.0" y="-35.0" type="curve" smooth="yes"/>
      <point x="88.0" y="-160.0"/>
      <point x="20.0" y="-220.0"/>
      <point x="-90.0" y="-233.0" type="curve" smooth="yes"/>
      <point x="-151.0" y="-240.0" type="line"/>
      <point x="-151.0" y="-272.0" type="line"/>
      <point x="-84.0" y="-264.0" type="line" smooth="yes"/>
      <point x="83.0" y="-244.0"/>
      <point x="172.0" y="-135.0"/>
      <point x="209.0" y="-12.0" type="curve" smooth="yes"/>
      <point x="246.0" y="111.0"/>
      <point x="239.0" y="258.0"/>
      <point x="274.0" y="381.0" type="curve" smooth="yes"/>
      <point x="309.0" y="504.0"/>
      <point x="355.0" y="545.0"/>
      <point x="457.0" y="549.0" type="curve" smooth="yes"/>
      <point x="540.0" y="553.0" type="line"/>
    </contour>
  </outline>
</glyph>
<glyph name="asciitilde" format="2">
	<unicode hex="007E"/>
	<advance width="1000"/>
	<outline>
		<contour>
			<point x="893" y="537" type="curve"/>
			<point x="851" y="537" type="line"/>
			<point x="806" y="422"/>
			<point x="747" y="372"/>
			<point x="661" y="372" type="curve" smooth="yes"/>
			<point x="510" y="372"/>
			<point x="514" y="543"/>
			<point x="353" y="543" type="curve" smooth="yes"/>
			<point x="245" y="543"/>
			<point x="168" y="480"/>
			<point x="113" y="335" type="curve"/>
			<point x="155" y="335" type="line"/>
			<point x="200" y="450"/>
			<point x="259" y="500"/>
			<point x="345" y="500" type="curve" smooth="yes"/>
			<point x="496" y="500"/>
			<point x="492" y="329"/>
			<point x="653" y="329" type="curve" smooth="yes"/>
			<point x="761" y="329"/>
			<point x="838" y="392"/>
		</contour>
	</outline>
</glyph>
<glyph name="exclamdown" format="2">
	<unicode hex="00A1"/>
	<advance width="380"/>
	<outline>
		<contour>
			<point x="-129" y="-471" type="line" smooth="yes"/>
			<point x="-136" y="-494"/>
			<point x="-121" y="-503"/>
			<point x="-91" y="-503" type="curve" smooth="yes"/>
			<point x="-62" y="-503"/>
			<point x="-50" y="-494"/>
			<point x="-43" y="-471" type="curve" smooth="yes"/>
			<point x="-37" y="-451" type="line" smooth="yes"/>
			<point x="-27" y="-420"/>
			<point x="120" y="130"/>
			<point x="213" y="451" type="curve"/>
			<point x="181" y="451" type="line"/>
			<point x="78" y="130"/>
			<point x="-115" y="-423"/>
			<point x="-123" y="-451" type="curve" smooth="yes"/>
		</contour>
		<contour>
			<point x="280" y="702" type="curve" smooth="yes"/>
			<point x="334" y="702"/>
			<point x="374" y="746"/>
			<point x="374" y="800" type="curve" smooth="yes"/>
			<point x="374" y="836"/>
			<point x="351" y="862"/>
			<point x="313" y="862" type="curve" smooth="yes"/>
			<point x="259" y="862"/>
			<point x="219" y="818"/>
			<point x="219" y="764" type="curve" smooth="yes"/>
			<point x="219" y="728"/>
			<point x="242" y="702"/>
		</contour>
	</outline>
</glyph>
<glyph name="currency" format="2">
	<unicode hex="00A4"/>
	<advance width="853"/>
	<outline>
		<contour>
			<point x="212" y="705" type="line"/>
			<point x="277" y="611" type="line"/>
			<point x="315" y="636" type="line"/>
			<point x="249" y="731" type="line"/>
		</contour>
		<contour>
			<point x="758" y="711" type="line"/>
			<point x="636" y="617" type="line"/>
			<point x="658" y="580" type="line"/>
			<point x="785" y="673" type="line"/>
		</contour>
		<contour>
			<point x="646" y="167" type="line"/>
			<point x="581" y="261" type="line"/>
			<point x="543" y="236" type="line"/>
			<point x="609" y="141" type="line"/>
		</contour>
		<contour>
			<point x="73" y="199" type="line"/>
			<point x="100" y="161" type="line"/>
			<point x="222" y="255" type="line"/>
			<point x="200" y="292" type="line"/>
		</contour>
		<contour>
			<point x="473" y="703" type="curve" smooth="yes"/>
			<point x="288" y="703"/>
			<point x="157" y="551"/>
			<point x="157" y="386" type="curve" smooth="yes"/>
			<point x="157" y="257"/>
			<point x="246" y="169"/>
			<point x="385" y="169" type="curve" smooth="yes"/>
			<point x="570" y="169"/>
			<point x="701" y="321"/>
			<point x="701" y="486" type="curve" smooth="yes"/>
			<point x="701" y="615"/>
			<point x="612" y="703"/>
		</contour>
		<contour>
			<point x="392" y="209" type="curve" smooth="yes"/>
			<point x="277" y="209"/>
			<point x="203" y="280"/>
			<point x="203" y="390" type="curve" smooth="yes"/>
			<point x="203" y="535"/>
			<point x="312" y="663"/>
			<point x="466" y="663" type="curve" smooth="yes"/>
			<point x="581" y="663"/>
			<point x="655" y="592"/>
			<point x="655" y="482" type="curve" smooth="yes"/>
			<point x="655" y="337"/>
			<point x="546" y="209"/>
		</contour>
	</outline>
</glyph>
<glyph name="brokenbar" format="2">
	<unicode hex="00A6"/>
	<advance width="444"/>
	<outline>
		<contour>
			<point x="319" y="660" type="line"/>
			<point x="557" y="1470" type="line"/>
			<point x="504" y="1470" type="line"/>
			<point x="266" y="660" type="line"/>
		</contour>
		<contour>
			<point x="-84" y="-530" type="line"/>
			<point x="-31" y="-530" type="line"/>
			<point x="207" y="280" type="line"/>
			<point x="154" y="280" type="line"/>
		</contour>
	</outline>
</glyph>
<glyph name="section" format="2">
	<unicode hex="00A7"/>
	<advance width="939"/>
	<outline>
		<contour>
			<point x="536" y="829" type="curve"/>
			<point x="511" y="851" type="line"/>
			<point x="235" y="788"/>
			<point x="124" y="674"/>
			<point x="124" y="515" type="curve" smooth="yes"/>
			<point x="124" y="205"/>
			<point x="564" y="285"/>
			<point x="564" y="11" type="curve" smooth="yes"/>
			<point x="564" y="-150"/>
			<point x="442" y="-243"/>
			<point x="262" y="-243" type="curve" smooth="yes"/>
			<point x="106" y="-243"/>
			<point x="86" y="-113"/>
			<point x="19" y="-113" type="curve" smooth="yes"/>
			<point x="-7" y="-113"/>
			<point x="-28" y="-134"/>
			<point x="-28" y="-162" type="curve" smooth="yes"/>
			<point x="-28" y="-215"/>
			<point x="47" y="-275"/>
			<point x="238" y="-275" type="curve" smooth="yes"/>
			<point x="472" y="-275"/>
			<point x="627" y="-146"/>
			<point x="627" y="37" type="curve" smooth="yes"/>
			<point x="627" y="344"/>
			<point x="184" y="271"/>
			<point x="184" y="538" type="curve" smooth="yes"/>
			<point x="184" y="669"/>
			<point x="289" y="781"/>
		</contour>
		<contour>
			<point x="827" y="547" type="curve" smooth="yes"/>
			<point x="827" y="416"/>
			<point x="722" y="304"/>
			<point x="475" y="256" type="curve"/>
			<point x="500" y="234" type="line"/>
			<point x="776" y="297"/>
			<point x="887" y="411"/>
			<point x="887" y="570" type="curve" smooth="yes"/>
			<point x="887" y="880"/>
			<point x="447" y="800"/>
			<point x="447" y="1074" type="curve" smooth="yes"/>
			<point x="447" y="1235"/>
			<point x="569" y="1328"/>
			<point x="749" y="1328" type="curve" smooth="yes"/>
			<point x="905" y="1328"/>
			<point x="925" y="1198"/>
			<point x="992" y="1198" type="curve" smooth="yes"/>
			<point x="1018" y="1198"/>
			<point x="1039" y="1219"/>
			<point x="1039" y="1247" type="curve" smooth="yes"/>
			<point x="1039" y="1300"/>
			<point x="964" y="1360"/>
			<point x="773" y="1360" type="curve" smooth="yes"/>
			<point x="539" y="1360"/>
			<point x="384" y="1231"/>
			<point x="384" y="1048" type="curve" smooth="yes"/>
			<point x="384" y="741"/>
			<point x="827" y="814"/>
		</contour>
	</outline>
</glyph>
<glyph name="copyright" format="2">
	<unicode hex="00A9"/>
	<advance width="1657"/>
	<outline>
		<contour>
			<point x="880" y="332" type="curve" smooth="yes"/>
			<point x="700" y="332"/>
			<point x="594" y="460"/>
			<point x="634" y="690" type="curve" smooth="yes"/>
			<point x="671" y="902"/>
			<point x="826" y="1015"/>
			<point x="1026" y="1015" type="curve" smooth="yes"/>
			<point x="1096" y="1015"/>
			<point x="1154" y="1004"/>
			<point x="1216" y="961" type="curve"/>
			<point x="1183" y="1016" type="line"/>
			<point x="1213" y="832" type="line"/>
			<point x="1234" y="832" type="line"/>
			<point x="1269" y="1082" type="line"/>
			<point x="1257" y="1082" type="line"/>
			<point x="1203" y="1038" type="line"/>
			<point x="1232" y="1035" type="line"/>
			<point x="1171" y="1058"/>
			<point x="1117" y="1065"/>
			<point x="1052" y="1065" type="curve" smooth="yes"/>
			<point x="801" y="1065"/>
			<point x="591" y="919"/>
			<point x="547" y="684" type="curve" smooth="yes"/>
			<point x="498" y="424"/>
			<point x="631" y="286"/>
			<point x="865" y="286" type="curve" smooth="yes"/>
			<point x="942" y="286"/>
			<point x="1038" y="301"/>
			<point x="1102" y="326" type="curve"/>
			<point x="1170" y="488" type="line"/>
			<point x="1140" y="488" type="line"/>
			<point x="1020" y="322" type="line"/>
			<point x="1079" y="376" type="line"/>
			<point x="1017" y="346"/>
			<point x="940" y="332"/>
		</contour>
		<contour>
			<point x="825" y="22" type="curve" smooth="yes"/>
			<point x="446" y="22"/>
			<point x="252" y="269"/>
			<point x="252" y="581" type="curve" smooth="yes"/>
			<point x="252" y="972"/>
			<point x="537" y="1318"/>
			<point x="981" y="1318" type="curve" smooth="yes"/>
			<point x="1360" y="1318"/>
			<point x="1554" y="1071"/>
			<point x="1554" y="759" type="curve" smooth="yes"/>
			<point x="1554" y="368"/>
			<point x="1269" y="22"/>
		</contour>
		<contour>
			<point x="980" y="1360" type="curve" smooth="yes"/>
			<point x="504" y="1360"/>
			<point x="201" y="993"/>
			<point x="201" y="582" type="curve" smooth="yes"/>
			<point x="201" y="243"/>
			<point x="412" y="-20"/>
			<point x="826" y="-20" type="curve" smooth="yes"/>
			<point x="1302" y="-20"/>
			<point x="1605" y="347"/>
			<point x="1605" y="758" type="curve" smooth="yes"/>
			<point x="1605" y="1097"/>
			<point x="1394" y="1360"/>
		</contour>
	</outline>
</glyph>
<glyph name="ordfeminine" format="2">
	<unicode hex="00AA"/>
	<advance width="869"/>
	<outline>
		<contour>
			<point x="175" y="485" type="line"/>
			<point x="723" y="485" type="line"/>
			<point x="738" y="534" type="line"/>
			<point x="190" y="534" type="line"/>
		</contour>
		<contour>
			<point x="633" y="739" type="line" smooth="yes"/>
			<point x="616" y="693"/>
			<point x="623" y="679"/>
			<point x="673" y="679" type="curve" smooth="yes"/>
			<point x="726.4475806452" y="679"/>
			<point x="807" y="705"/>
			<point x="914" y="807" type="curve"/>
			<point x="900" y="827" type="line"/>
			<point x="804" y="748"/>
			<point x="736" y="722"/>
			<point x="660" y="733" type="curve"/>
			<point x="690" y="712" type="line"/>
			<point x="917" y="1340" type="line"/>
			<point x="852" y="1340" type="line"/>
			<point x="831" y="1279" type="line"/>
			<point x="769" y="1108" type="line" smooth="yes"/>
			<point x="701" y="921"/>
			<point x="526" y="739"/>
			<point x="428" y="739" type="curve" smooth="yes"/>
			<point x="367" y="739"/>
			<point x="339" y="780"/>
			<point x="339" y="845" type="curve" smooth="yes"/>
			<point x="339" y="1015"/>
			<point x="520" y="1326"/>
			<point x="707" y="1326" type="curve" smooth="yes"/>
			<point x="767" y="1326"/>
			<point x="800" y="1291"/>
			<point x="812" y="1222" type="curve"/>
			<point x="853" y="1255" type="line"/>
			<point x="822" y="1320"/>
			<point x="782" y="1355"/>
			<point x="706" y="1355" type="curve" smooth="yes"/>
			<point x="473" y="1355"/>
			<point x="263" y="1037"/>
			<point x="263" y="819" type="curve" smooth="yes"/>
			<point x="263" y="734"/>
			<point x="300" y="679"/>
			<point x="393" y="679" type="curve" smooth="yes"/>
			<point x="498" y="679"/>
			<point x="648" y="832"/>
			<point x="745" y="1004" type="curve"/>
			<point x="721" y="977" type="line"/>
		</contour>
	</outline>
</glyph>
<glyph name="guillemotleft" format="2">
	<unicode hex="00AB"/>
	<advance width="815"/>
	<outline>
		<contour>
			<point x="149" y="454" type="line"/>
			<point x="126" y="381" type="line"/>
			<point x="537" y="782" type="line"/>
			<point x="518" y="806" type="line"/>
			<point x="79" y="451" type="line"/>
			<point x="70" y="421" type="line"/>
			<point x="295" y="66" type="line"/>
			<point x="323" y="81" type="line"/>
		</contour>
		<contour>
			<point x="453" y="454" type="line"/>
			<point x="430" y="381" type="line"/>
			<point x="841" y="782" type="line"/>
			<point x="822" y="806" type="line"/>
			<point x="383" y="451" type="line"/>
			<point x="374" y="421" type="line"/>
			<point x="599" y="66" type="line"/>
			<point x="627" y="81" type="line"/>
		</contour>
	</outline>
</glyph>
<glyph name="logicalnot" format="2">
	<unicode hex="00AC"/>
	<advance width="1000"/>
	<outline>
		<contour>
			<point x="207" y="648" type="line"/>
			<point x="193" y="604" type="line"/>
			<point x="862" y="604" type="line"/>
			<point x="745" y="224" type="line"/>
			<point x="791" y="224" type="line"/>
			<point x="921" y="648" type="line"/>
		</contour>
	</outline>
</glyph>
<glyph name="registered" format="2">
	<unicode hex="00AE"/>
	<advance width="1113"/>
	<outline>
		<contour>
			<point x="896" y="738" type="line"/>
			<point x="858" y="738"/>
			<point x="853" y="741"/>
			<point x="845" y="782" type="curve" smooth="yes"/>
			<point x="827" y="880" type="line" smooth="yes"/>
			<point x="817" y="933"/>
			<point x="805" y="949"/>
			<point x="748" y="949" type="curve"/>
			<point x="755" y="945" type="line"/>
			<point x="850" y="952"/>
			<point x="913" y="1005"/>
			<point x="913" y="1072" type="curve" smooth="yes"/>
			<point x="913" y="1129"/>
			<point x="874" y="1166"/>
			<point x="771" y="1166" type="curve" smooth="yes"/>
			<point x="675" y="1166" type="line"/>
			<point x="667" y="1133" type="line"/>
			<point x="756" y="1133" type="line" smooth="yes"/>
			<point x="825" y="1133"/>
			<point x="849" y="1107"/>
			<point x="849" y="1065" type="curve" smooth="yes"/>
			<point x="849" y="1004"/>
			<point x="809" y="964"/>
			<point x="720" y="964" type="curve" smooth="yes"/>
			<point x="619" y="964" type="line"/>
			<point x="607" y="929" type="line"/>
			<point x="723" y="929" type="line" smooth="yes"/>
			<point x="755" y="929"/>
			<point x="767" y="923"/>
			<point x="776" y="873" type="curve" smooth="yes"/>
			<point x="792" y="780" type="line" smooth="yes"/>
			<point x="802.5283018868" y="716.8301886792"/>
			<point x="808" y="713"/>
			<point x="890" y="716" type="curve"/>
		</contour>
		<contour>
			<point x="714" y="1166" type="line"/>
			<point x="588" y="1166" type="line"/>
			<point x="583" y="1148" type="line"/>
			<point x="646" y="1134" type="line"/>
			<point x="529" y="750" type="line"/>
			<point x="456" y="735" type="line"/>
			<point x="451" y="717" type="line"/>
			<point x="644" y="717" type="line"/>
			<point x="649" y="735" type="line"/>
			<point x="587" y="750" type="line"/>
		</contour>
		<contour>
			<point x="666" y="546" type="curve" smooth="yes"/>
			<point x="454" y="546"/>
			<point x="317" y="672"/>
			<point x="317" y="873" type="curve" smooth="yes"/>
			<point x="317" y="1117"/>
			<point x="485" y="1319"/>
			<point x="748" y="1319" type="curve" smooth="yes"/>
			<point x="960" y="1319"/>
			<point x="1097" y="1194"/>
			<point x="1097" y="993" type="curve" smooth="yes"/>
			<point x="1097" y="749"/>
			<point x="929" y="547"/>
		</contour>
		<contour>
			<point x="752" y="1360" type="curve" smooth="yes"/>
			<point x="456" y="1360"/>
			<point x="270" y="1132"/>
			<point x="270" y="868" type="curve" smooth="yes"/>
			<point x="270" y="644"/>
			<point x="420" y="506"/>
			<point x="662" y="506" type="curve" smooth="yes"/>
			<point x="958" y="506"/>
			<point x="1144" y="734"/>
			<point x="1144" y="998" type="curve" smooth="yes"/>
			<point x="1144" y="1222"/>
			<point x="994" y="1360"/>
		</contour>
	</outline>
</glyph>
<glyph name="degree" format="2">
  <advance width="770"/>
  <unicode hex="00B0"/>
  <outline>
    <contour>
      <point x="606.0" y="1350.0" type="curve" smooth="yes"/>
      <point x="400.0" y="1350.0"/>
      <point x="265.0" y="1177.0"/>
      <point x="265.0" y="1003.0" type="curve" smooth="yes"/>
      <point x="265.0" y="854.0"/>
      <point x="368.0" y="750.0"/>
      <point x="532.0" y="750.0" type="curve" smooth="yes"/>
      <point x="738.0" y="750.0"/>
      <point x="873.0" y="923.0"/>
      <point x="873.0" y="1097.0" type="curve" smooth="yes"/>
      <point x="873.0" y="1246.0"/>
      <point x="770.0" y="1350.0"/>
    </contour>
    <contour>
      <point x="537.0" y="793.0" type="curve" smooth="yes"/>
      <point x="394.0" y="793.0"/>
      <point x="315.0" y="871.0"/>
      <point x="315.0" y="1011.0" type="curve" smooth="yes"/>
      <point x="315.0" y="1154.0"/>
      <point x="424.0" y="1307.0"/>
      <point x="601.0" y="1307.0" type="curve" smooth="yes"/>
      <point x="744.0" y="1307.0"/>
      <point x="823.0" y="1229.0"/>
      <point x="823.0" y="1089.0" type="curve" smooth="yes"/>
      <point x="823.0" y="946.0"/>
      <point x="714.0" y="793.0"/>
    </contour>
  </outline>
</glyph>
<glyph name="plusminus" format="2">
  <advance width="1000"/>
  <unicode hex="00B1"/>
  <outline>
    <contour>
      <point x="607.0" y="852.0" type="line"/>
      <point x="389.0" y="138.0" type="line"/>
      <point x="435.0" y="138.0" type="line"/>
      <point x="653.0" y="852.0" type="line"/>
    </contour>
    <contour>
      <point x="170.0" y="513.0" type="line"/>
      <point x="156.0" y="469.0" type="line"/>
      <point x="870.0" y="469.0" type="line"/>
      <point x="884.0" y="513.0" type="line"/>
    </contour>
    <contour>
      <point x="26.0" y="44.0" type="line"/>
      <point x="13.0" y="0.0" type="line"/>
      <point x="727.0" y="0.0" type="line"/>
      <point x="740.0" y="44.0" type="line"/>
    </contour>
  </outline>
</glyph>
<glyph name="uni00B2" format="2">
	<unicode hex="00B2"/>
	<advance width="634"/>
	<outline>
		<contour>
			<point x="525" y="618" type="line"/>
			<point x="587" y="646" type="line"/>
			<point x="217" y="646" type="line"/>
			<point x="193" y="610" type="line"/>
			<point x="476" y="850" type="line" smooth="yes"/>
			<point x="683" y="1025"/>
			<point x="723" y="1096"/>
			<point x="723" y="1193" type="curve" smooth="yes"/>
			<point x="723" y="1289"/>
			<point x="654" y="1354"/>
			<point x="545" y="1354" type="curve" smooth="yes"/>
			<point x="405" y="1354"/>
			<point x="321" y="1267"/>
			<point x="282" y="1102" type="curve"/>
			<point x="307" y="1097" type="line"/>
			<point x="351" y="1245"/>
			<point x="416" y="1301"/>
			<point x="523" y="1301" type="curve" smooth="yes"/>
			<point x="608" y="1301"/>
			<point x="655" y="1252"/>
			<point x="655" y="1171" type="curve" smooth="yes"/>
			<point x="655" y="1087"/>
			<point x="609" y="1011"/>
			<point x="436" y="858" type="curve" smooth="yes"/>
			<point x="143" y="600" type="line"/>
			<point x="141" y="592" type="line"/>
			<point x="544" y="592" type="line"/>
			<point x="574" y="581" type="line"/>
			<point x="584" y="581" type="line"/>
			<point x="687" y="784" type="line"/>
			<point x="668" y="784" type="line"/>
		</contour>
	</outline>
</glyph>
<glyph name="uni00B3" format="2">
	<unicode hex="00B3"/>
	<advance width="609"/>
	<outline>
		<contour>
			<point x="372" y="951" type="line"/>
			<point x="423" y="967" type="line" smooth="yes"/>
			<point x="538" y="1003"/>
			<point x="604" y="952"/>
			<point x="604" y="855" type="curve" smooth="yes"/>
			<point x="604" y="723"/>
			<point x="504" y="613"/>
			<point x="332" y="613" type="curve" smooth="yes"/>
			<point x="256" y="613"/>
			<point x="223" y="679"/>
			<point x="181" y="679" type="curve" smooth="yes"/>
			<point x="157" y="679"/>
			<point x="143" y="663"/>
			<point x="143" y="641" type="curve" smooth="yes"/>
			<point x="143" y="610"/>
			<point x="179" y="578"/>
			<point x="300" y="578" type="curve" smooth="yes"/>
			<point x="527" y="578"/>
			<point x="674" y="712"/>
			<point x="674" y="874" type="curve" smooth="yes"/>
			<point x="674" y="976"/>
			<point x="605" y="1034"/>
			<point x="497" y="1019" type="curve"/>
			<point x="499" y="1008" type="line"/>
			<point x="657" y="1075"/>
			<point x="697" y="1147"/>
			<point x="697" y="1222" type="curve" smooth="yes"/>
			<point x="697" y="1296"/>
			<point x="645" y="1354"/>
			<point x="544" y="1354" type="curve" smooth="yes"/>
			<point x="429" y="1354"/>
			<point x="341" y="1288"/>
			<point x="303" y="1153" type="curve"/>
			<point x="328" y="1145" type="line"/>
			<point x="371" y="1261"/>
			<point x="431" y="1306"/>
			<point x="515" y="1306" type="curve" smooth="yes"/>
			<point x="588" y="1306"/>
			<point x="628" y="1263"/>
			<point x="628" y="1198" type="curve" smooth="yes"/>
			<point x="628" y="1117"/>
			<point x="574" y="1050"/>
			<point x="364" y="977" type="curve"/>
		</contour>
	</outline>
</glyph>
<glyph name="uni00B5" format="2">
	<unicode hex="00B5"/>
	<advance width="980"/>
	<outline>
		<contour>
			<point x="703" y="599" type="line" smooth="yes"/>
			<point x="612" y="299"/>
			<point x="428" y="34"/>
			<point x="272" y="34" type="curve" smooth="yes"/>
			<point x="216" y="34"/>
			<point x="184" y="57"/>
			<point x="181" y="108" type="curve" smooth="yes"/>
			<point x="180" y="130"/>
			<point x="183" y="157"/>
			<point x="193" y="189" type="curve" smooth="yes"/>
			<point x="394" y="852" type="line"/>
			<point x="329" y="852" type="line"/>
			<point x="-89" y="-520" type="line"/>
			<point x="-79" y="-520" type="line"/>
			<point x="0" y="-514" type="line"/>
			<point x="144" y="168" type="line"/>
			<point x="137" y="152" type="line"/>
			<point x="116" y="37"/>
			<point x="170" y="-20"/>
			<point x="261" y="-20" type="curve" smooth="yes"/>
			<point x="391" y="-20"/>
			<point x="500" y="97"/>
			<point x="684" y="475" type="curve"/>
			<point x="669" y="475" type="line"/>
			<point x="540" y="59" type="line" smooth="yes"/>
			<point x="521" y="-2"/>
			<point x="524" y="-20"/>
			<point x="586" y="-20" type="curve" smooth="yes"/>
			<point x="656" y="-20"/>
			<point x="758" y="27"/>
			<point x="896" y="175" type="curve"/>
			<point x="879" y="194" type="line"/>
			<point x="723" y="49"/>
			<point x="636" y="39"/>
			<point x="572" y="46" type="curve"/>
			<point x="595" y="24" type="line"/>
			<point x="845" y="852" type="line"/>
			<point x="780" y="852" type="line"/>
		</contour>
	</outline>
</glyph>
<glyph name="paragraph" format="2">
  <advance width="1122"/>
  <unicode hex="00B6"/>
  <outline>
    <contour>
      <point x="453.0" y="-255.0" type="line"/>
      <point x="922.0" y="1280.0" type="line"/>
      <point x="1083.0" y="1280.0" type="line"/>
      <point x="1102.0" y="1340.0" type="line"/>
      <point x="879.0" y="1340.0" type="line"/>
      <point x="392.0" y="-255.0" type="line"/>
    </contour>
    <contour>
      <point x="662.0" y="-255.0" type="line"/>
      <point x="1132.0" y="1282.0" type="line"/>
      <point x="1314.0" y="1310.0" type="line"/>
      <point x="1323.0" y="1340.0" type="line"/>
      <point x="1088.0" y="1340.0" type="line"/>
      <point x="601.0" y="-255.0" type="line"/>
    </contour>
    <contour>
      <point x="917.0" y="1340.0" type="line"/>
      <point x="678.0" y="1340.0" type="line" smooth="yes"/>
      <point x="349.0" y="1340.0"/>
      <point x="223.0" y="1098.1234801699275"/>
      <point x="223.0" y="896.0" type="curve" smooth="yes"/>
      <point x="223.0" y="770.0"/>
      <point x="292.0" y="677.0"/>
      <point x="490.0" y="677.0" type="curve" smooth="yes"/>
      <point x="715.0" y="677.0" type="line"/>
    </contour>
  </outline>
</glyph>
<glyph name="uni00B9" format="2">
	<unicode hex="00B9"/>
	<advance width="473"/>
	<outline>
		<contour>
			<point x="305" y="637" type="line"/>
			<point x="164" y="613" type="line"/>
			<point x="157" y="592" type="line"/>
			<point x="484" y="592" type="line"/>
			<point x="491" y="613" type="line"/>
			<point x="373" y="637" type="line"/>
			<point x="590" y="1345" type="line"/>
			<point x="575" y="1345" type="line"/>
			<point x="273" y="1199" type="line"/>
			<point x="280" y="1177" type="line"/>
			<point x="517" y="1259" type="line"/>
			<point x="497" y="1264" type="line"/>
		</contour>
	</outline>
</glyph>
<glyph name="ordmasculine" format="2">
	<unicode hex="00BA"/>
	<advance width="818"/>
	<outline>
		<contour>
			<point x="156" y="485" type="line"/>
			<point x="704" y="485" type="line"/>
			<point x="719" y="534" type="line"/>
			<point x="171" y="534" type="line"/>
		</contour>
		<contour>
			<point x="696" y="1360" type="curve" smooth="yes"/>
			<point x="470" y="1360"/>
			<point x="305" y="1119"/>
			<point x="305" y="881" type="curve" smooth="yes"/>
			<point x="305" y="751"/>
			<point x="369" y="679"/>
			<point x="490" y="679" type="curve" smooth="yes"/>
			<point x="716" y="679"/>
			<point x="881" y="920"/>
			<point x="881" y="1158" type="curve" smooth="yes"/>
			<point x="881" y="1288"/>
			<point x="817" y="1360"/>
		</contour>
		<contour>
			<point x="493" y="708" type="curve" smooth="yes"/>
			<point x="410" y="708"/>
			<point x="371" y="757"/>
			<point x="371" y="876" type="curve" smooth="yes"/>
			<point x="371" y="1074"/>
			<point x="508" y="1331"/>
			<point x="693" y="1331" type="curve" smooth="yes"/>
			<point x="776" y="1331"/>
			<point x="815" y="1282"/>
			<point x="815" y="1163" type="curve" smooth="yes"/>
			<point x="815" y="965"/>
			<point x="678" y="708"/>
		</contour>
	</outline>
</glyph>
<glyph name="guillemotright" format="2">
  <advance width="849"/>
  <unicode hex="00BB"/>
  <outline>
    <contour>
      <point x="381.0" y="418.0" type="line"/>
      <point x="404.0" y="491.0" type="line"/>
      <point x="-7.0" y="90.0" type="line"/>
      <point x="12.0" y="66.0" type="line"/>
      <point x="451.0" y="421.0" type="line"/>
      <point x="460.0" y="451.0" type="line"/>
      <point x="235.0" y="806.0" type="line"/>
      <point x="207.0" y="791.0" type="line"/>
    </contour>
    <contour>
      <point x="685.0" y="418.0" type="line"/>
      <point x="708.0" y="491.0" type="line"/>
      <point x="297.0" y="90.0" type="line"/>
      <point x="316.0" y="66.0" type="line"/>
      <point x="755.0" y="421.0" type="line"/>
      <point x="764.0" y="451.0" type="line"/>
      <point x="539.0" y="806.0" type="line"/>
      <point x="511.0" y="791.0" type="line"/>
    </contour>
  </outline>
</glyph>
<glyph name="questiondown" format="2">
	<unicode hex="00BF"/>
	<advance width="842"/>
	<outline>
		<contour>
			<point x="617" y="702" type="curve" smooth="yes"/>
			<point x="671" y="702"/>
			<point x="711" y="746"/>
			<point x="711" y="800" type="curve" smooth="yes"/>
			<point x="711" y="836"/>
			<point x="688" y="862"/>
			<point x="650" y="862" type="curve" smooth="yes"/>
			<point x="596" y="862"/>
			<point x="556" y="818"/>
			<point x="556" y="764" type="curve" smooth="yes"/>
			<point x="556" y="728"/>
			<point x="579" y="702"/>
		</contour>
		<contour>
			<point x="374" y="-513" type="curve" smooth="yes"/>
			<point x="508" y="-513"/>
			<point x="536" y="-481"/>
			<point x="536" y="-444" type="curve" smooth="yes"/>
			<point x="536" y="-420"/>
			<point x="519" y="-401"/>
			<point x="483" y="-401" type="curve" smooth="yes"/>
			<point x="428" y="-401"/>
			<point x="397" y="-455"/>
			<point x="283" y="-455" type="curve" smooth="yes"/>
			<point x="158" y="-455"/>
			<point x="16" y="-326"/>
			<point x="16" y="-141" type="curve" smooth="yes"/>
			<point x="16" y="43"/>
			<point x="119" y="163"/>
			<point x="476" y="129" type="curve"/>
			<point x="561" y="451" type="line"/>
			<point x="535" y="451" type="line"/>
			<point x="422" y="144" type="line"/>
			<point x="475" y="197" type="line"/>
			<point x="81" y="232"/>
			<point x="-34" y="87"/>
			<point x="-34" y="-121" type="curve" smooth="yes"/>
			<point x="-34" y="-342"/>
			<point x="159" y="-513"/>
		</contour>
	</outline>
</glyph>
<glyph name="AE" format="2">
	<unicode hex="00C6"/>
	<advance width="1856"/>
	<outline>
		<contour>
			<point x="99" y="52" type="line"/>
			<point x="1223" y="1317" type="line"/>
			<point x="1212" y="1324" type="line"/>
			<point x="822" y="50" type="line"/>
			<point x="654" y="22" type="line"/>
			<point x="648" y="0" type="line"/>
			<point x="879" y="0" type="line"/>
			<point x="1289" y="1340" type="line"/>
			<point x="1008" y="1340" type="line"/>
			<point x="1002" y="1318" type="line"/>
			<point x="1144" y="1291" type="line"/>
			<point x="42" y="52" type="line"/>
			<point x="-132" y="22" type="line"/>
			<point x="-139" y="0" type="line"/>
			<point x="246" y="0" type="line"/>
			<point x="253" y="22" type="line"/>
		</contour>
		<contour>
			<point x="1564" y="-46" type="line"/>
			<point x="1572" y="-46" type="line"/>
			<point x="1783" y="338" type="line"/>
			<point x="1764" y="349" type="line"/>
			<point x="1487" y="17" type="line"/>
			<point x="1559" y="42" type="line"/>
			<point x="823" y="42" type="line"/>
			<point x="809" y="0" type="line"/>
			<point x="1504" y="0" type="line"/>
		</contour>
		<contour>
			<point x="514" y="525" type="line"/>
			<point x="990" y="525" type="line"/>
			<point x="1004" y="567" type="line"/>
			<point x="528" y="567" type="line"/>
		</contour>
		<contour>
			<point x="1460" y="434" type="line"/>
			<point x="1484" y="434" type="line"/>
			<point x="1552" y="701" type="line"/>
			<point x="1648" y="969" type="line"/>
			<point x="1624" y="969" type="line"/>
			<point x="1500" y="732" type="line"/>
			<point x="1079" y="720" type="line"/>
			<point x="1066" y="682" type="line"/>
			<point x="1483" y="673" type="line"/>
		</contour>
		<contour>
			<point x="1887" y="1004" type="line"/>
			<point x="1910" y="1005" type="line"/>
			<point x="1961" y="1377" type="line"/>
			<point x="1952" y="1377" type="line"/>
			<point x="1876" y="1340" type="line"/>
			<point x="1259" y="1340" type="line"/>
			<point x="1245" y="1298" type="line"/>
			<point x="1902" y="1298" type="line"/>
			<point x="1858" y="1313" type="line"/>
		</contour>
	</outline>
	<anchor name="UCtop" x="1255" y="1340"/>
	<anchor name="bottom" x="856" y="0"/>
</glyph>
<glyph name="Ccedilla" format="2">
	<unicode hex="00C7"/>
	<advance width="1291"/>
	<outline>
		<contour>
			<point x="1047" y="105" type="line"/>
			<point x="942" y="40"/>
			<point x="806" y="19"/>
			<point x="690" y="19" type="curve" smooth="yes"/>
			<point x="429" y="19"/>
			<point x="245" y="183"/>
			<point x="245" y="511" type="curve" smooth="yes"/>
			<point x="245" y="954"/>
			<point x="539" y="1315"/>
			<point x="999" y="1315" type="curve" smooth="yes"/>
			<point x="1123" y="1315"/>
			<point x="1233" y="1286"/>
			<point x="1327" y="1203" type="curve"/>
			<point x="1262" y="1278" type="line"/>
			<point x="1311" y="956" type="line"/>
			<point x="1336" y="956" type="line"/>
			<point x="1371" y="1386" type="line"/>
			<point x="1364" y="1386" type="line"/>
			<point x="1284" y="1309" type="line"/>
			<point x="1343" y="1303" type="line"/>
			<point x="1239" y="1343"/>
			<point x="1156" y="1360"/>
			<point x="1039" y="1360" type="curve" smooth="yes"/>
			<point x="538" y="1360"/>
			<point x="163" y="992"/>
			<point x="163" y="500" type="curve" smooth="yes"/>
			<point x="163" y="161"/>
			<point x="370" y="-20"/>
			<point x="697" y="-20" type="curve" smooth="yes"/>
			<point x="809" y="-20"/>
			<point x="961" y="3"/>
			<point x="1077" y="42" type="curve"/>
			<point x="1200" y="301" type="line"/>
			<point x="1175" y="301" type="line"/>
			<point x="969" y="44" type="line"/>
		</contour>
		<contour>
			<point x="477" y="-490" type="curve" smooth="yes"/>
			<point x="404" y="-490"/>
			<point x="395" y="-428"/>
			<point x="353" y="-428" type="curve" smooth="yes"/>
			<point x="334" y="-428"/>
			<point x="315" y="-446"/>
			<point x="315" y="-470" type="curve" smooth="yes"/>
			<point x="315" y="-503"/>
			<point x="348" y="-530"/>
			<point x="440" y="-530" type="curve" smooth="yes"/>
			<point x="589" y="-530"/>
			<point x="697" y="-438"/>
			<point x="697" y="-317" type="curve" smooth="yes"/>
			<point x="697" y="-257"/>
			<point x="646" y="-195"/>
			<point x="516" y="-156" type="curve"/>
			<point x="524" y="-176" type="line"/>
			<point x="703" y="0" type="line"/>
			<point x="661" y="0" type="line"/>
			<point x="453" y="-210" type="line"/>
			<point x="452" y="-214" type="line"/>
			<point x="585" y="-250"/>
			<point x="636" y="-298"/>
			<point x="636" y="-354" type="curve" smooth="yes"/>
			<point x="636" y="-433"/>
			<point x="574" y="-490"/>
		</contour>
	</outline>
</glyph>
<glyph name="multiply" format="2">
	<unicode hex="00D7"/>
	<advance width="1000"/>
	<outline>
		<contour>
			<point x="121" y="169" type="line"/>
			<point x="144" y="135" type="line"/>
			<point x="884" y="697" type="line"/>
			<point x="860" y="731" type="line"/>
		</contour>
		<contour>
			<point x="291" y="705" type="line"/>
			<point x="678" y="135" type="line"/>
			<point x="714" y="161" type="line"/>
			<point x="326" y="731" type="line"/>
		</contour>
	</outline>
</glyph>
<glyph name="Oslash" format="2">
	<unicode hex="00D8"/>
	<advance width="1441"/>
	<outline>
		<contour>
			<point x="1619" y="1340" type="line"/>
			<point x="1538" y="1340" type="line"/>
			<point x="1321" y="1155" type="line"/>
			<point x="1298" y="1135" type="line"/>
			<point x="255" y="240" type="line"/>
			<point x="231" y="220" type="line"/>
			<point x="-28" y="0" type="line"/>
			<point x="53" y="0" type="line"/>
			<point x="265" y="180" type="line"/>
			<point x="288" y="200" type="line"/>
			<point x="1330" y="1095" type="line"/>
			<point x="1354" y="1115" type="line"/>
		</contour>
		<contour>
			<point x="241" y="476" type="curve" smooth="yes"/>
			<point x="241" y="892"/>
			<point x="519" y="1321"/>
			<point x="944" y="1321" type="curve" smooth="yes"/>
			<point x="1218" y="1321"/>
			<point x="1350" y="1139"/>
			<point x="1350" y="864" type="curve" smooth="yes"/>
			<point x="1350" y="448"/>
			<point x="1072" y="19"/>
			<point x="647" y="19" type="curve" smooth="yes"/>
			<point x="373" y="19"/>
			<point x="241" y="201"/>
		</contour>
		<contour>
			<point x="1427" y="856" type="curve" smooth="yes"/>
			<point x="1427" y="1144"/>
			<point x="1273" y="1360"/>
			<point x="945" y="1360" type="curve" smooth="yes"/>
			<point x="487" y="1360"/>
			<point x="164" y="938"/>
			<point x="164" y="484" type="curve" smooth="yes"/>
			<point x="164" y="196"/>
			<point x="318" y="-20"/>
			<point x="646" y="-20" type="curve" smooth="yes"/>
			<point x="1104" y="-20"/>
			<point x="1427" y="402"/>
		</contour>
	</outline>
	<anchor name="UCtop" x="1025" y="1340"/>
	<anchor name="bottom" x="616" y="0"/>
</glyph>
<glyph name="Thorn" format="2">
	<unicode hex="00DE"/>
	<advance width="1089"/>
	<outline>
		<contour>
			<point x="479" y="363" type="curve" smooth="yes"/>
			<point x="253" y="363" type="line"/>
			<point x="239" y="321" type="line"/>
			<point x="530" y="321" type="line" smooth="yes"/>
			<point x="915" y="321"/>
			<point x="1095" y="540"/>
			<point x="1095" y="779" type="curve" smooth="yes"/>
			<point x="1095" y="943"/>
			<point x="992" y="1063"/>
			<point x="714" y="1063" type="curve" smooth="yes"/>
			<point x="467" y="1063" type="line"/>
			<point x="453" y="1021" type="line"/>
			<point x="658" y="1021" type="line" smooth="yes"/>
			<point x="928" y="1021"/>
			<point x="1022" y="930"/>
			<point x="1022" y="781" type="curve" smooth="yes"/>
			<point x="1022" y="552"/>
			<point x="872" y="363"/>
		</contour>
		<contour>
			<point x="501" y="1290" type="line"/>
			<point x="121" y="50" type="line"/>
			<point x="-47" y="22" type="line"/>
			<point x="-53" y="0" type="line"/>
			<point x="346" y="0" type="line"/>
			<point x="352" y="22" type="line"/>
			<point x="193" y="50" type="line"/>
			<point x="573" y="1290" type="line"/>
			<point x="741" y="1318" type="line"/>
			<point x="747" y="1340" type="line"/>
			<point x="348" y="1340" type="line"/>
			<point x="342" y="1318" type="line"/>
		</contour>
	</outline>
</glyph>
<glyph name="germandbls" format="2">
  <advance width="1032"/>
  <unicode hex="00DF"/>
  <outline>
    <contour>
      <point x="113.0" y="807.0" type="line"/>
      <point x="342.0" y="807.0" type="line"/>
      <point x="351.0" y="852.0" type="line"/>
      <point x="122.0" y="852.0" type="line"/>
    </contour>
    <contour>
      <point x="229" y="75" type="curve" smooth="yes"/>
      <point x="423" y="983" type="line" smooth="yes"/>
      <point x="486" y="1276"/>
      <point x="601" y="1382"/>
      <point x="757" y="1382" type="curve" smooth="yes"/>
      <point x="883" y="1382"/>
      <point x="937" y="1313"/>
      <point x="937" y="1225" type="curve" smooth="yes"/>
      <point x="937.0" y="1134.0"/>
      <point x="894" y="1055.0"/>
      <point x="774" y="947" type="curve" smooth="yes"/>
      <point x="654" y="839"/>
      <point x="611.0" y="767"/>
      <point x="611" y="680" type="curve" smooth="yes"/>
      <point x="611" y="600"/>
      <point x="642" y="538"/>
      <point x="730" y="442" type="curve" smooth="yes"/>
      <point x="818" y="346"/>
      <point x="839" y="289"/>
      <point x="839" y="220" type="curve" smooth="yes"/>
      <point x="839" y="87"/>
      <point x="757" y="19"/>
      <point x="648" y="19" type="curve" smooth="yes"/>
      <point x="606" y="19"/>
      <point x="575" y="36"/>
      <point x="551" y="66" type="curve" smooth="yes"/>
      <point x="527" y="96"/>
      <point x="514" y="125"/>
      <point x="496" y="125" type="curve" smooth="yes"/>
      <point x="472" y="125"/>
      <point x="450" y="103"/>
      <point x="450" y="76" type="curve" smooth="yes"/>
      <point x="450" y="31"/>
      <point x="505" y="-20"/>
      <point x="608" y="-20" type="curve" smooth="yes"/>
      <point x="775" y="-20"/>
      <point x="899" y="90"/>
      <point x="899" y="250" type="curve" smooth="yes"/>
      <point x="899" y="328"/>
      <point x="870" y="400"/>
      <point x="782" y="496" type="curve" smooth="yes"/>
      <point x="694" y="592"/>
      <point x="669" y="648"/>
      <point x="669" y="713" type="curve" smooth="yes"/>
      <point x="669.0" y="789.0"/>
      <point x="701" y="849"/>
      <point x="831" y="955" type="curve" smooth="yes"/>
      <point x="962" y="1061"/>
      <point x="1007.0" y="1132"/>
      <point x="1007" y="1230" type="curve" smooth="yes"/>
      <point x="1007" y="1336"/>
      <point x="928" y="1419"/>
      <point x="785" y="1419" type="curve" smooth="yes"/>
      <point x="587" y="1419"/>
      <point x="417" y="1286"/>
      <point x="338" y="914" type="curve" smooth="yes"/>
      <point x="145" y="4" type="line" smooth="yes"/>
      <point x="63" y="-382"/>
      <point x="-39" y="-486"/>
      <point x="-160" y="-486" type="curve" smooth="yes"/>
      <point x="-196" y="-486"/>
      <point x="-227" y="-476"/>
      <point x="-259" y="-446" type="curve" smooth="yes"/>
      <point x="-291" y="-416"/>
      <point x="-304" y="-393"/>
      <point x="-315" y="-393" type="curve" smooth="yes"/>
      <point x="-342" y="-393"/>
      <point x="-369" y="-413"/>
      <point x="-369" y="-440" type="curve" smooth="yes"/>
      <point x="-369" y="-484"/>
      <point x="-316" y="-530"/>
      <point x="-209" y="-530" type="curve" smooth="yes"/>
      <point x="-17" y="-530"/>
      <point x="130" y="-389"/>
    </contour>
  </outline>
</glyph>
<glyph name="ae" format="2">
	<unicode hex="00E6"/>
	<advance width="1241"/>
	<outline>
		<contour>
			<point x="758" y="664" type="line"/>
			<point x="819" y="852" type="line"/>
			<point x="754" y="852" type="line"/>
			<point x="730" y="770" type="line"/>
			<point x="669" y="558" type="line" smooth="yes"/>
			<point x="595" y="303"/>
			<point x="375" y="44"/>
			<point x="223" y="44" type="curve" smooth="yes"/>
			<point x="136" y="44"/>
			<point x="102" y="94"/>
			<point x="102" y="192" type="curve" smooth="yes"/>
			<point x="102" y="424"/>
			<point x="349" y="827"/>
			<point x="602" y="827" type="curve" smooth="yes"/>
			<point x="680" y="827"/>
			<point x="714" y="782"/>
			<point x="737" y="706" type="curve"/>
			<point x="776" y="738" type="line"/>
			<point x="743" y="809"/>
			<point x="700" y="857"/>
			<point x="603" y="857" type="curve" smooth="yes"/>
			<point x="309" y="857"/>
			<point x="25" y="452"/>
			<point x="25" y="164" type="curve" smooth="yes"/>
			<point x="25" y="52"/>
			<point x="72" y="-20"/>
			<point x="190" y="-20" type="curve" smooth="yes"/>
			<point x="315" y="-20"/>
			<point x="493" y="161"/>
			<point x="616" y="373" type="curve"/>
			<point x="612" y="373" type="line"/>
			<point x="558" y="106"/>
			<point x="640" y="-20"/>
			<point x="793" y="-20" type="curve" smooth="yes"/>
			<point x="909" y="-20"/>
			<point x="1013" y="32"/>
			<point x="1139" y="277" type="curve"/>
			<point x="1109" y="277" type="line"/>
			<point x="994" y="82"/>
			<point x="896" y="44"/>
			<point x="818" y="44" type="curve" smooth="yes"/>
			<point x="731" y="44"/>
			<point x="668" y="90"/>
			<point x="668" y="253" type="curve" smooth="yes"/>
			<point x="668" y="602"/>
			<point x="867" y="831"/>
			<point x="1060" y="831" type="curve" smooth="yes"/>
			<point x="1149" y="831"/>
			<point x="1172" y="780"/>
			<point x="1172" y="715" type="curve" smooth="yes"/>
			<point x="1172" y="643"/>
			<point x="1150" y="584"/>
			<point x="671" y="429" type="curve"/>
			<point x="668" y="399" type="line"/>
			<point x="871" y="462"/>
			<point x="1058" y="526"/>
			<point x="1193" y="587" type="curve"/>
			<point x="1227" y="631"/>
			<point x="1243" y="681"/>
			<point x="1243" y="733" type="curve" smooth="yes"/>
			<point x="1243" y="808"/>
			<point x="1198" y="872"/>
			<point x="1090" y="872" type="curve" smooth="yes"/>
			<point x="956" y="872"/>
			<point x="834" y="792"/>
			<point x="745" y="664" type="curve"/>
		</contour>
	</outline>
	<anchor name="top" x="786" y="852"/>
	<anchor name="bottom" x="525" y="0"/>
</glyph>
<glyph name="ccedilla" format="2">
	<unicode hex="00E7"/>
	<advance width="663"/>
	<outline>
		<contour>
			<point x="52" y="-530" type="curve" smooth="yes"/>
			<point x="201" y="-530"/>
			<point x="309" y="-438"/>
			<point x="309" y="-317" type="curve" smooth="yes"/>
			<point x="309" y="-257"/>
			<point x="258" y="-195"/>
			<point x="128" y="-156" type="curve"/>
			<point x="136" y="-176" type="line"/>
			<point x="315" y="0" type="line"/>
			<point x="273" y="0" type="line"/>
			<point x="65" y="-210" type="line"/>
			<point x="64" y="-214" type="line"/>
			<point x="197" y="-250"/>
			<point x="248" y="-298"/>
			<point x="248" y="-354" type="curve" smooth="yes"/>
			<point x="248" y="-433"/>
			<point x="186" y="-490"/>
			<point x="89" y="-490" type="curve" smooth="yes"/>
			<point x="16" y="-490"/>
			<point x="7" y="-428"/>
			<point x="-35" y="-428" type="curve" smooth="yes"/>
			<point x="-54" y="-428"/>
			<point x="-73" y="-446"/>
			<point x="-73" y="-470" type="curve" smooth="yes"/>
			<point x="-73" y="-503"/>
			<point x="-40" y="-530"/>
		</contour>
		<contour>
			<point x="497" y="833" type="curve" smooth="yes"/>
			<point x="541" y="833"/>
			<point x="569" y="809"/>
			<point x="590" y="785" type="curve" smooth="yes"/>
			<point x="611" y="761"/>
			<point x="623" y="737"/>
			<point x="635" y="737" type="curve" smooth="yes"/>
			<point x="665" y="737"/>
			<point x="681" y="757"/>
			<point x="681" y="782" type="curve" smooth="yes"/>
			<point x="681" y="835"/>
			<point x="630" y="872"/>
			<point x="534" y="872" type="curve" smooth="yes"/>
			<point x="356" y="872"/>
			<point x="58" y="648"/>
			<point x="58" y="216" type="curve" smooth="yes"/>
			<point x="58" y="54"/>
			<point x="136" y="-20"/>
			<point x="247" y="-20" type="curve" smooth="yes"/>
			<point x="373" y="-20"/>
			<point x="468" y="49"/>
			<point x="580" y="277" type="curve"/>
			<point x="551" y="277" type="line"/>
			<point x="447" y="97"/>
			<point x="356" y="44"/>
			<point x="267" y="44" type="curve" smooth="yes"/>
			<point x="173" y="44"/>
			<point x="129" y="104"/>
			<point x="129" y="253" type="curve" smooth="yes"/>
			<point x="129" y="594"/>
			<point x="344" y="833"/>
		</contour>
	</outline>
</glyph>
<glyph name="eth" format="2">
	<unicode hex="00F0"/>
	<advance width="819"/>
	<outline>
		<contour>
			<point x="703" y="710" type="line"/>
			<point x="687" y="828"/>
			<point x="607" y="872"/>
			<point x="521" y="872" type="curve" smooth="yes"/>
			<point x="257" y="872"/>
			<point x="63" y="557"/>
			<point x="63" y="245" type="curve" smooth="yes"/>
			<point x="63" y="74"/>
			<point x="138" y="-20"/>
			<point x="280" y="-20" type="curve" smooth="yes"/>
			<point x="540" y="-20"/>
			<point x="761" y="288"/>
			<point x="761" y="767" type="curve" smooth="yes"/>
			<point x="761" y="1059"/>
			<point x="645" y="1298"/>
			<point x="342" y="1417" type="curve"/>
			<point x="325" y="1390" type="line"/>
			<point x="584" y="1280"/>
			<point x="710" y="1038"/>
			<point x="689" y="692" type="curve"/>
		</contour>
		<contour>
			<point x="277" y="12" type="curve" smooth="yes"/>
			<point x="180" y="12"/>
			<point x="130" y="77"/>
			<point x="130" y="236" type="curve" smooth="yes"/>
			<point x="130" y="499"/>
			<point x="302" y="840"/>
			<point x="524" y="840" type="curve" smooth="yes"/>
			<point x="621" y="840"/>
			<point x="671" y="775"/>
			<point x="671" y="616" type="curve" smooth="yes"/>
			<point x="671" y="353"/>
			<point x="499" y="12"/>
		</contour>
		<contour>
			<point x="353" y="1021" type="line"/>
			<point x="865" y="1345" type="line"/>
			<point x="840" y="1386" type="line"/>
			<point x="328" y="1063" type="line"/>
		</contour>
	</outline>
</glyph>
<glyph name="divide" format="2">
	<unicode hex="00F7"/>
	<advance width="1000"/>
	<outline>
		<contour>
			<point x="152" y="456" type="line"/>
			<point x="139" y="412" type="line"/>
			<point x="853" y="412" type="line"/>
			<point x="866" y="456" type="line"/>
		</contour>
		<contour>
			<point x="597" y="822" type="curve" smooth="yes"/>
			<point x="552" y="822"/>
			<point x="518" y="786"/>
			<point x="518" y="742" type="curve" smooth="yes"/>
			<point x="518" y="698"/>
			<point x="552" y="662"/>
			<point x="597" y="662" type="curve" smooth="yes"/>
			<point x="642" y="662"/>
			<point x="676" y="698"/>
			<point x="676" y="742" type="curve" smooth="yes"/>
			<point x="676" y="786"/>
			<point x="642" y="822"/>
		</contour>
		<contour>
			<point x="406" y="198" type="curve" smooth="yes"/>
			<point x="361" y="198"/>
			<point x="327" y="162"/>
			<point x="327" y="118" type="curve" smooth="yes"/>
			<point x="327" y="74"/>
			<point x="361" y="38"/>
			<point x="406" y="38" type="curve" smooth="yes"/>
			<point x="451" y="38"/>
			<point x="485" y="74"/>
			<point x="485" y="118" type="curve" smooth="yes"/>
			<point x="485" y="162"/>
			<point x="451" y="198"/>
		</contour>
	</outline>
</glyph>
<glyph name="oslash" format="2">
	<unicode hex="00F8"/>
	<advance width="832"/>
	<outline>
		<contour>
			<point x="537" y="872" type="curve" smooth="yes"/>
			<point x="273" y="872"/>
			<point x="79" y="557"/>
			<point x="79" y="245" type="curve" smooth="yes"/>
			<point x="79" y="74"/>
			<point x="154" y="-20"/>
			<point x="296" y="-20" type="curve" smooth="yes"/>
			<point x="560" y="-20"/>
			<point x="754" y="295"/>
			<point x="754" y="607" type="curve" smooth="yes"/>
			<point x="754" y="778"/>
			<point x="679" y="872"/>
		</contour>
		<contour>
			<point x="293" y="12" type="curve" smooth="yes"/>
			<point x="196" y="12"/>
			<point x="146" y="77"/>
			<point x="146" y="236" type="curve" smooth="yes"/>
			<point x="146" y="499"/>
			<point x="318" y="840"/>
			<point x="540" y="840" type="curve" smooth="yes"/>
			<point x="637" y="840"/>
			<point x="687" y="775"/>
			<point x="687" y="616" type="curve" smooth="yes"/>
			<point x="687" y="353"/>
			<point x="515" y="12"/>
		</contour>
		<contour>
			<point x="796" y="852" type="line"/>
			<point x="703" y="755" type="line"/>
			<point x="679" y="736" type="line"/>
			<point x="129" y="153" type="line"/>
			<point x="104" y="137" type="line"/>
			<point x="-30" y="0" type="line"/>
			<point x="39" y="0" type="line"/>
			<point x="132" y="97" type="line"/>
			<point x="156" y="116" type="line"/>
			<point x="706" y="699" type="line"/>
			<point x="731" y="715" type="line"/>
			<point x="865" y="852" type="line"/>
		</contour>
	</outline>
	<anchor name="top" x="526" y="852"/>
	<anchor name="bottom" x="286" y="0"/>
</glyph>
<glyph name="thorn" format="2">
	<unicode hex="00FE"/>
	<advance width="845"/>
	<outline>
		<contour>
			<point x="146" y="202" type="curve" smooth="yes"/>
			<point x="177" y="323" type="line" smooth="yes"/>
			<point x="238" y="561"/>
			<point x="408" y="810"/>
			<point x="581" y="810" type="curve" smooth="yes"/>
			<point x="670" y="810"/>
			<point x="716" y="741"/>
			<point x="716" y="604" type="curve" smooth="yes"/>
			<point x="716" y="297"/>
			<point x="477" y="11"/>
			<point x="290" y="11" type="curve" smooth="yes"/>
			<point x="198" y="11"/>
			<point x="141" y="82"/>
			<point x="141" y="161" type="curve" smooth="yes"/>
			<point x="141" y="174"/>
			<point x="142" y="188"/>
		</contour>
		<contour>
			<point x="208" y="443" type="line"/>
			<point x="492" y="1419" type="line"/>
			<point x="475" y="1419" type="line"/>
			<point x="253" y="1379" type="line"/>
			<point x="249" y="1366" type="line"/>
			<point x="306" y="1352.4105960265"/>
			<point x="364" y="1338.582781457"/>
			<point x="400" y="1330" type="curve"/>
			<point x="-97" y="-461" type="line"/>
			<point x="-244" y="-487" type="line"/>
			<point x="-251" y="-510" type="line"/>
			<point x="140" y="-510" type="line"/>
			<point x="147" y="-487" type="line"/>
			<point x="-30" y="-461" type="line"/>
			<point x="119" y="104" type="line"/>
			<point x="79" y="104" type="line"/>
			<point x="94" y="33"/>
			<point x="169" y="-20"/>
			<point x="283" y="-20" type="curve" smooth="yes"/>
			<point x="533" y="-20"/>
			<point x="798" y="294"/>
			<point x="798" y="649" type="curve" smooth="yes"/>
			<point x="798" y="790"/>
			<point x="732" y="872"/>
			<point x="610" y="872" type="curve" smooth="yes"/>
			<point x="495" y="872"/>
			<point x="331" y="765"/>
			<point x="195" y="460" type="curve"/>
		</contour>
	</outline>
</glyph>
<glyph name="Aogonek" format="2">
  <advance width="1292"/>
  <unicode hex="0104"/>
  <outline>
    <contour>
      <point x="409.0" y="555.0" type="line"/>
      <point x="952.0" y="555.0" type="line"/>
      <point x="966.0" y="597.0" type="line"/>
      <point x="424.0" y="597.0" type="line"/>
    </contour>
    <contour>
      <point x="1033.0" y="50.0" type="line"/>
      <point x="936.0" y="1360.0" type="line"/>
      <point x="916.0" y="1360.0" type="line"/>
      <point x="55.0" y="50.0" type="line"/>
      <point x="-115.0" y="22.0" type="line"/>
      <point x="-121.0" y="0.0" type="line"/>
      <point x="257.0" y="0.0" type="line"/>
      <point x="264.0" y="22.0" type="line"/>
      <point x="106.0" y="50.0" type="line"/>
      <point x="904.0" y="1265.0" type="line"/>
      <point x="877.0" y="1265.0" type="line"/>
      <point x="963.0" y="50.0" type="line"/>
      <point x="795.0" y="22.0" type="line"/>
      <point x="788.0" y="0.0" type="line"/>
      <point x="1185.0" y="0.0" type="line"/>
      <point x="1192.0" y="22.0" type="line"/>
    </contour>
    <contour>
      <point x="802.0" y="-382.0" type="curve" smooth="yes"/>
      <point x="802.0" y="-322.0"/>
      <point x="813.0" y="-276.0"/>
      <point x="917.0" y="-124.0" type="curve" smooth="yes"/>
      <point x="1014.0" y="17.0" type="line"/>
      <point x="983.0" y="17.0" type="line"/>
      <point x="863.0" y="-143.0" type="line" smooth="yes"/>
      <point x="752.0" y="-291.0"/>
      <point x="737.0" y="-347.0"/>
      <point x="737.0" y="-404.0" type="curve" smooth="yes"/>
      <point x="737.0" y="-481.0"/>
      <point x="788.0" y="-530.0"/>
      <point x="876.0" y="-530.0" type="curve" smooth="yes"/>
      <point x="941.0" y="-530.0"/>
      <point x="992.0" y="-499.0"/>
      <point x="1079.0" y="-406.0" type="curve"/>
      <point x="1066.0" y="-392.0" type="line"/>
      <point x="998.0" y="-456.0"/>
      <point x="954.0" y="-474.0"/>
      <point x="901.0" y="-474.0" type="curve" smooth="yes"/>
      <point x="849.0" y="-474.0"/>
      <point x="802.0" y="-445.0"/>
    </contour>
  </outline>
</glyph>
<glyph name="aogonek" format="2">
	<unicode hex="0105"/>
	<advance width="875"/>
	<outline>
		<contour>
			<point x="853" y="175" type="curve"/>
			<point x="836" y="194" type="line"/>
			<point x="680" y="49"/>
			<point x="593" y="39"/>
			<point x="529" y="46" type="curve"/>
			<point x="552" y="24" type="line"/>
			<point x="819" y="852" type="line"/>
			<point x="754" y="852" type="line"/>
			<point x="730" y="770" type="line"/>
			<point x="669" y="558" type="line" smooth="yes"/>
			<point x="595" y="303"/>
			<point x="375" y="44"/>
			<point x="223" y="44" type="curve" smooth="yes"/>
			<point x="136" y="44"/>
			<point x="102" y="94"/>
			<point x="102" y="192" type="curve" smooth="yes"/>
			<point x="102" y="424"/>
			<point x="349" y="827"/>
			<point x="602" y="827" type="curve" smooth="yes"/>
			<point x="680" y="827"/>
			<point x="714" y="782"/>
			<point x="737" y="706" type="curve"/>
			<point x="776" y="738" type="line"/>
			<point x="743" y="809"/>
			<point x="700" y="857"/>
			<point x="603" y="857" type="curve" smooth="yes"/>
			<point x="309" y="857"/>
			<point x="25" y="452"/>
			<point x="25" y="164" type="curve" smooth="yes"/>
			<point x="25" y="52"/>
			<point x="72" y="-20"/>
			<point x="190" y="-20" type="curve" smooth="yes"/>
			<point x="319" y="-20"/>
			<point x="504" y="173"/>
			<point x="627" y="394" type="curve"/>
			<point x="614" y="394" type="line"/>
			<point x="500" y="59" type="line" smooth="yes"/>
			<point x="479" y="-1"/>
			<point x="480" y="-20"/>
			<point x="543" y="-20" type="curve" smooth="yes"/>
			<point x="586" y="-20"/>
			<point x="641" y="-2"/>
			<point x="710" y="46" type="curve"/>
			<point x="702" y="55" type="line"/>
			<point x="509" y="-141" type="line" smooth="yes"/>
			<point x="361" y="-291"/>
			<point x="341" y="-336"/>
			<point x="341" y="-404" type="curve" smooth="yes"/>
			<point x="341" y="-481"/>
			<point x="392" y="-530"/>
			<point x="480" y="-530" type="curve" smooth="yes"/>
			<point x="545" y="-530"/>
			<point x="596" y="-499"/>
			<point x="683" y="-406" type="curve"/>
			<point x="670" y="-392" type="line"/>
			<point x="602" y="-456"/>
			<point x="558" y="-474"/>
			<point x="505" y="-474" type="curve" smooth="yes"/>
			<point x="453" y="-474"/>
			<point x="407" y="-447"/>
			<point x="407" y="-384" type="curve" smooth="yes"/>
			<point x="407" y="-324"/>
			<point x="426" y="-282"/>
			<point x="573" y="-125" type="curve" smooth="yes"/>
			<point x="701" y="11" type="line" smooth="yes"/>
			<point x="754" y="68"/>
			<point x="809" y="127"/>
		</contour>
	</outline>
</glyph>
<glyph name="Dcroat" format="2">
	<unicode hex="0110"/>
	<advance width="1372"/>
	<outline>
		<contour>
			<point x="151" y="654" type="line"/>
			<point x="695" y="654" type="line"/>
			<point x="711" y="707" type="line"/>
			<point x="167" y="707" type="line"/>
		</contour>
		<contour>
			<point x="418" y="42" type="curve" smooth="yes"/>
			<point x="127" y="42" type="line"/>
			<point x="130" y="0" type="line"/>
			<point x="452" y="0" type="line" smooth="yes"/>
			<point x="1030" y="0"/>
			<point x="1357" y="364"/>
			<point x="1357" y="844" type="curve" smooth="yes"/>
			<point x="1357" y="1153"/>
			<point x="1161" y="1340"/>
			<point x="756" y="1340" type="curve" smooth="yes"/>
			<point x="540" y="1340" type="line"/>
			<point x="508" y="1298" type="line"/>
			<point x="714" y="1298" type="line" smooth="yes"/>
			<point x="1102" y="1298"/>
			<point x="1279" y="1148"/>
			<point x="1279" y="829" type="curve" smooth="yes"/>
			<point x="1279" y="460"/>
			<point x="1066" y="42"/>
		</contour>
		<contour>
			<point x="505" y="1290" type="line"/>
			<point x="125" y="50" type="line"/>
			<point x="-43" y="22" type="line"/>
			<point x="-49" y="0" type="line"/>
			<point x="182" y="0" type="line"/>
			<point x="592" y="1340" type="line"/>
			<point x="352" y="1340" type="line"/>
			<point x="346" y="1318" type="line"/>
		</contour>
	</outline>
</glyph>
<glyph name="dcroat" format="2">
	<unicode hex="0111"/>
	<advance width="884"/>
	<outline>
		<contour>
			<point x="737" y="706" type="curve"/>
			<point x="776" y="738" type="line"/>
			<point x="743" y="809"/>
			<point x="700" y="857"/>
			<point x="603" y="857" type="curve" smooth="yes"/>
			<point x="309" y="857"/>
			<point x="25" y="452"/>
			<point x="25" y="164" type="curve" smooth="yes"/>
			<point x="25" y="52"/>
			<point x="72" y="-20"/>
			<point x="190" y="-20" type="curve" smooth="yes"/>
			<point x="322" y="-20"/>
			<point x="512" y="181"/>
			<point x="635" y="408" type="curve"/>
			<point x="624" y="408" type="line"/>
			<point x="515" y="59" type="line" smooth="yes"/>
			<point x="496" y="-1"/>
			<point x="495" y="-20"/>
			<point x="558" y="-20" type="curve" smooth="yes"/>
			<point x="628" y="-20"/>
			<point x="730" y="27"/>
			<point x="868" y="175" type="curve"/>
			<point x="851" y="194" type="line"/>
			<point x="695" y="49"/>
			<point x="608" y="39"/>
			<point x="544" y="46" type="curve"/>
			<point x="567" y="24" type="line"/>
			<point x="989" y="1419" type="line"/>
			<point x="972" y="1419" type="line"/>
			<point x="750" y="1379" type="line"/>
			<point x="746" y="1366" type="line"/>
			<point x="803" y="1352.4105960265"/>
			<point x="861" y="1338.582781457"/>
			<point x="897" y="1330" type="curve"/>
			<point x="669" y="558" type="line" smooth="yes"/>
			<point x="594" y="303"/>
			<point x="375" y="44"/>
			<point x="223" y="44" type="curve" smooth="yes"/>
			<point x="136" y="44"/>
			<point x="102" y="94"/>
			<point x="102" y="192" type="curve" smooth="yes"/>
			<point x="102" y="424"/>
			<point x="349" y="827"/>
			<point x="602" y="827" type="curve" smooth="yes"/>
			<point x="680" y="827"/>
			<point x="714" y="782"/>
		</contour>
		<contour>
			<point x="536" y="1052" type="line"/>
			<point x="1051" y="1052" type="line"/>
			<point x="1067" y="1105" type="line"/>
			<point x="552" y="1105" type="line"/>
		</contour>
	</outline>
</glyph>
<glyph name="Eogonek" format="2">
	<unicode hex="0118"/>
	<advance width="1155"/>
	<outline>
		<contour>
			<point x="501" y="1290" type="line"/>
			<point x="121" y="50" type="line"/>
			<point x="-47" y="22" type="line"/>
			<point x="-53" y="0" type="line"/>
			<point x="178" y="0" type="line"/>
			<point x="588" y="1340" type="line"/>
			<point x="348" y="1340" type="line"/>
			<point x="342" y="1318" type="line"/>
		</contour>
		<contour>
			<point x="759" y="434" type="line"/>
			<point x="783" y="434" type="line"/>
			<point x="851" y="701" type="line"/>
			<point x="947" y="969" type="line"/>
			<point x="923" y="969" type="line"/>
			<point x="799" y="732" type="line"/>
			<point x="378" y="720" type="line"/>
			<point x="365" y="682" type="line"/>
			<point x="782" y="673" type="line"/>
		</contour>
		<contour>
			<point x="1209" y="1005" type="line"/>
			<point x="1260" y="1377" type="line"/>
			<point x="1251" y="1377" type="line"/>
			<point x="1175" y="1340" type="line"/>
			<point x="518" y="1340" type="line"/>
			<point x="504" y="1298" type="line"/>
			<point x="1201" y="1298" type="line"/>
			<point x="1157" y="1313" type="line"/>
			<point x="1186" y="1004" type="line"/>
		</contour>
		<contour>
			<point x="863" y="-46" type="line"/>
			<point x="871" y="-46" type="line"/>
			<point x="1082" y="338" type="line"/>
			<point x="1063" y="349" type="line"/>
			<point x="786" y="17" type="line"/>
			<point x="858" y="42" type="line"/>
			<point x="122" y="42" type="line"/>
			<point x="108" y="0" type="line"/>
			<point x="803" y="0" type="line"/>
		</contour>
		<contour>
			<point x="530" y="-382" type="curve" smooth="yes"/>
			<point x="530" y="-322"/>
			<point x="548" y="-272"/>
			<point x="698" y="-118" type="curve" smooth="yes"/>
			<point x="829" y="17" type="line"/>
			<point x="796" y="17" type="line"/>
			<point x="636" y="-136" type="line" smooth="yes"/>
			<point x="488" y="-278"/>
			<point x="465" y="-334"/>
			<point x="465" y="-404" type="curve" smooth="yes"/>
			<point x="465" y="-481"/>
			<point x="516" y="-530"/>
			<point x="604" y="-530" type="curve" smooth="yes"/>
			<point x="669" y="-530"/>
			<point x="720" y="-499"/>
			<point x="807" y="-406" type="curve"/>
			<point x="794" y="-392" type="line"/>
			<point x="726" y="-456"/>
			<point x="682" y="-474"/>
			<point x="629" y="-474" type="curve" smooth="yes"/>
			<point x="577" y="-474"/>
			<point x="530" y="-445"/>
		</contour>
	</outline>
</glyph>
<glyph name="eogonek" format="2">
	<unicode hex="0119"/>
	<advance width="698"/>
	<outline>
		<contour>
			<point x="507" y="129" type="line" smooth="yes"/>
			<point x="536" y="167"/>
			<point x="565" y="217"/>
			<point x="596" y="277" type="curve"/>
			<point x="566" y="277" type="line"/>
			<point x="451" y="82"/>
			<point x="353" y="44"/>
			<point x="275" y="44" type="curve" smooth="yes"/>
			<point x="188" y="44"/>
			<point x="125" y="90"/>
			<point x="125" y="253" type="curve" smooth="yes"/>
			<point x="125" y="586"/>
			<point x="346" y="831"/>
			<point x="517" y="831" type="curve" smooth="yes"/>
			<point x="606" y="831"/>
			<point x="629" y="780"/>
			<point x="629" y="719" type="curve" smooth="yes"/>
			<point x="629" y="635"/>
			<point x="603" y="583"/>
			<point x="128" y="429" type="curve"/>
			<point x="125" y="399" type="line"/>
			<point x="328" y="462"/>
			<point x="515" y="526"/>
			<point x="650" y="587" type="curve"/>
			<point x="684" y="631"/>
			<point x="700" y="681"/>
			<point x="700" y="733" type="curve" smooth="yes"/>
			<point x="700" y="808"/>
			<point x="655" y="872"/>
			<point x="547" y="872" type="curve" smooth="yes"/>
			<point x="332" y="872"/>
			<point x="53" y="600"/>
			<point x="53" y="216" type="curve" smooth="yes"/>
			<point x="53" y="44"/>
			<point x="143" y="-20"/>
			<point x="250" y="-20" type="curve" smooth="yes"/>
			<point x="306" y="-20"/>
			<point x="359" y="-8"/>
			<point x="414" y="33" type="curve"/>
			<point x="407" y="40" type="line"/>
			<point x="291" y="-103" type="line" smooth="yes"/>
			<point x="162" y="-262"/>
			<point x="125" y="-336"/>
			<point x="125" y="-404" type="curve" smooth="yes"/>
			<point x="125" y="-481"/>
			<point x="176" y="-530"/>
			<point x="264" y="-530" type="curve" smooth="yes"/>
			<point x="329" y="-530"/>
			<point x="380" y="-499"/>
			<point x="467" y="-406" type="curve"/>
			<point x="454" y="-392" type="line"/>
			<point x="386" y="-456"/>
			<point x="342" y="-474"/>
			<point x="289" y="-474" type="curve" smooth="yes"/>
			<point x="237" y="-474"/>
			<point x="191" y="-447"/>
			<point x="191" y="-384" type="curve" smooth="yes"/>
			<point x="191" y="-324"/>
			<point x="207" y="-267"/>
			<point x="346" y="-84" type="curve" smooth="yes"/>
		</contour>
	</outline>
</glyph>
<glyph name="Hbar" format="2">
	<unicode hex="0126"/>
	<advance width="1405"/>
	<outline>
		<contour>
			<point x="327" y="668" type="line"/>
			<point x="1223" y="668" type="line"/>
			<point x="1237" y="710" type="line"/>
			<point x="341" y="710" type="line"/>
		</contour>
		<contour>
			<point x="247" y="976" type="line"/>
			<point x="1501" y="976" type="line"/>
			<point x="1517" y="1029" type="line"/>
			<point x="263" y="1029" type="line"/>
		</contour>
		<contour>
			<point x="503" y="1290" type="line"/>
			<point x="123" y="50" type="line"/>
			<point x="-45" y="22" type="line"/>
			<point x="-51" y="0" type="line"/>
			<point x="348" y="0" type="line"/>
			<point x="354" y="22" type="line"/>
			<point x="195" y="50" type="line"/>
			<point x="575" y="1290" type="line"/>
			<point x="743" y="1318" type="line"/>
			<point x="749" y="1340" type="line"/>
			<point x="350" y="1340" type="line"/>
			<point x="344" y="1318" type="line"/>
		</contour>
		<contour>
			<point x="1358" y="1290" type="line"/>
			<point x="978" y="50" type="line"/>
			<point x="810" y="22" type="line"/>
			<point x="804" y="0" type="line"/>
			<point x="1203" y="0" type="line"/>
			<point x="1209" y="22" type="line"/>
			<point x="1050" y="50" type="line"/>
			<point x="1430" y="1290" type="line"/>
			<point x="1598" y="1318" type="line"/>
			<point x="1604" y="1340" type="line"/>
			<point x="1205" y="1340" type="line"/>
			<point x="1199" y="1318" type="line"/>
		</contour>
	</outline>
</glyph>
<glyph name="hbar" format="2">
  <advance width="887"/>
  <unicode hex="0127"/>
  <outline>
    <contour>
      <point x="165.0" y="253.0" type="line" smooth="yes"/>
      <point x="255.0" y="549.0"/>
      <point x="476.0" y="814.0"/>
      <point x="654.0" y="814.0" type="curve" smooth="yes"/>
      <point x="706.0" y="814.0"/>
      <point x="735.0" y="793.0"/>
      <point x="735.0" y="740.0" type="curve" smooth="yes"/>
      <point x="735.0" y="712.0"/>
      <point x="726.0" y="673.0"/>
      <point x="707.0" y="624.0" type="curve" smooth="yes"/>
      <point x="487.0" y="59.0" type="line" smooth="yes"/>
      <point x="464.0" y="1.0"/>
      <point x="473.0" y="-20.0"/>
      <point x="530.0" y="-20.0" type="curve" smooth="yes"/>
      <point x="600.0" y="-20.0"/>
      <point x="702.0" y="27.0"/>
      <point x="840.0" y="175.0" type="curve"/>
      <point x="823.0" y="194.0" type="line"/>
      <point x="667.0" y="49.0"/>
      <point x="580.0" y="39.0"/>
      <point x="516.0" y="46.0" type="curve"/>
      <point x="539.0" y="24.0" type="line"/>
      <point x="766.0" y="605.0" type="line" smooth="yes"/>
      <point x="789.0" y="662.0"/>
      <point x="802.0" y="714.0"/>
      <point x="802.0" y="755.0" type="curve" smooth="yes"/>
      <point x="802.0" y="828.0"/>
      <point x="762.0" y="872.0"/>
      <point x="666.0" y="872.0" type="curve" smooth="yes"/>
      <point x="531.0" y="872.0"/>
      <point x="370.0" y="759.0"/>
      <point x="184.0" y="377.0" type="curve"/>
      <point x="199.0" y="377.0" type="line"/>
      <point x="509.0" y="1419.0" type="line"/>
      <point x="492.0" y="1419.0" type="line"/>
      <point x="270.0" y="1379.0" type="line"/>
      <point x="266.0" y="1366.0" type="line"/>
      <point x="323.0" y="1352.41059602649"/>
      <point x="381.0" y="1338.5827814569536"/>
      <point x="417.0" y="1330.0" type="curve"/>
      <point x="23.0" y="0.0" type="line"/>
      <point x="88.0" y="0.0" type="line"/>
    </contour>
    <contour>
      <point x="165.0" y="1052.0" type="line"/>
      <point x="680.0" y="1052.0" type="line"/>
      <point x="696.0" y="1105.0" type="line"/>
      <point x="181.0" y="1105.0" type="line"/>
    </contour>
  </outline>
</glyph>
<glyph name="Iogonek" format="2">
	<unicode hex="012E"/>
	<advance width="544"/>
	<outline>
		<contour>
			<point x="501" y="1290" type="line"/>
			<point x="121" y="50" type="line"/>
			<point x="-47" y="22" type="line"/>
			<point x="-53" y="0" type="line"/>
			<point x="346" y="0" type="line"/>
			<point x="352" y="22" type="line"/>
			<point x="193" y="50" type="line"/>
			<point x="573" y="1290" type="line"/>
			<point x="741" y="1318" type="line"/>
			<point x="747" y="1340" type="line"/>
			<point x="348" y="1340" type="line"/>
			<point x="342" y="1318" type="line"/>
		</contour>
		<contour>
			<point x="-75" y="-382" type="curve" smooth="yes"/>
			<point x="-75" y="-322"/>
			<point x="-54" y="-280"/>
			<point x="59" y="-127" type="curve" smooth="yes"/>
			<point x="165" y="17" type="line"/>
			<point x="132" y="17" type="line"/>
			<point x="-1" y="-145" type="line" smooth="yes"/>
			<point x="-122" y="-292"/>
			<point x="-140" y="-347"/>
			<point x="-140" y="-404" type="curve" smooth="yes"/>
			<point x="-140" y="-481"/>
			<point x="-89" y="-530"/>
			<point x="-1" y="-530" type="curve" smooth="yes"/>
			<point x="64" y="-530"/>
			<point x="115" y="-499"/>
			<point x="202" y="-406" type="curve"/>
			<point x="189" y="-392" type="line"/>
			<point x="121" y="-456"/>
			<point x="77" y="-474"/>
			<point x="24" y="-474" type="curve" smooth="yes"/>
			<point x="-28" y="-474"/>
			<point x="-75" y="-445"/>
		</contour>
	</outline>
</glyph>
<glyph name="iogonek" format="2">
	<unicode hex="012F"/>
	<advance width="499"/>
	<outline>
		<contour>
			<point x="420" y="1341" type="curve" smooth="yes"/>
			<point x="420" y="1297"/>
			<point x="452" y="1264"/>
			<point x="497" y="1264" type="curve" smooth="yes"/>
			<point x="545" y="1264"/>
			<point x="574" y="1297"/>
			<point x="574" y="1341" type="curve" smooth="yes"/>
			<point x="574" y="1383"/>
			<point x="545" y="1415"/>
			<point x="497" y="1415" type="curve" smooth="yes"/>
			<point x="452" y="1415"/>
			<point x="420" y="1383"/>
		</contour>
		<contour>
			<point x="359" y="81" type="line" smooth="yes"/>
			<point x="393" y="111"/>
			<point x="422" y="140"/>
			<point x="453" y="175" type="curve"/>
			<point x="436" y="194" type="line"/>
			<point x="280" y="49"/>
			<point x="193" y="39"/>
			<point x="129" y="46" type="curve"/>
			<point x="155" y="23" type="line"/>
			<point x="419" y="793" type="line" smooth="yes"/>
			<point x="439" y="852"/>
			<point x="438" y="872"/>
			<point x="378" y="872" type="curve" smooth="yes"/>
			<point x="313" y="872"/>
			<point x="201" y="824"/>
			<point x="55" y="652" type="curve"/>
			<point x="73" y="634" type="line"/>
			<point x="234" y="796"/>
			<point x="324" y="812"/>
			<point x="392" y="807" type="curve"/>
			<point x="366" y="829" type="line"/>
			<point x="102" y="59" type="line" smooth="yes"/>
			<point x="82" y="0"/>
			<point x="83" y="-20"/>
			<point x="143" y="-20" type="curve" smooth="yes"/>
			<point x="175" y="-20"/>
			<point x="215" y="-10"/>
			<point x="262" y="16" type="curve"/>
			<point x="257" y="23" type="line"/>
			<point x="71" y="-143" type="line" smooth="yes"/>
			<point x="-82" y="-279"/>
			<point x="-101" y="-336"/>
			<point x="-101" y="-404" type="curve" smooth="yes"/>
			<point x="-101" y="-481"/>
			<point x="-50" y="-530"/>
			<point x="38" y="-530" type="curve" smooth="yes"/>
			<point x="103" y="-530"/>
			<point x="154" y="-499"/>
			<point x="241" y="-406" type="curve"/>
			<point x="228" y="-392" type="line"/>
			<point x="160" y="-456"/>
			<point x="116" y="-474"/>
			<point x="63" y="-474" type="curve" smooth="yes"/>
			<point x="11" y="-474"/>
			<point x="-35" y="-447"/>
			<point x="-35" y="-380" type="curve" smooth="yes"/>
			<point x="-35" y="-315"/>
			<point x="-13" y="-256"/>
			<point x="131" y="-125" type="curve" smooth="yes"/>
		</contour>
	</outline>
</glyph>
<glyph name="dotlessi" format="2">
	<unicode hex="0131"/>
	<advance width="498"/>
	<outline>
		<contour>
			<point x="102" y="59" type="line" smooth="yes"/>
			<point x="82" y="0"/>
			<point x="83" y="-20"/>
			<point x="143" y="-20" type="curve" smooth="yes"/>
			<point x="213" y="-20"/>
			<point x="315" y="27"/>
			<point x="453" y="175" type="curve"/>
			<point x="436" y="194" type="line"/>
			<point x="280" y="49"/>
			<point x="193" y="39"/>
			<point x="129" y="46" type="curve"/>
			<point x="155" y="23" type="line"/>
			<point x="419" y="793" type="line" smooth="yes"/>
			<point x="439" y="852"/>
			<point x="438" y="872"/>
			<point x="378" y="872" type="curve" smooth="yes"/>
			<point x="313" y="872"/>
			<point x="201" y="824"/>
			<point x="55" y="652" type="curve"/>
			<point x="73" y="634" type="line"/>
			<point x="234" y="796"/>
			<point x="324" y="812"/>
			<point x="392" y="807" type="curve"/>
			<point x="366" y="829" type="line"/>
		</contour>
	</outline>
	<anchor name="top" x="378" y="852"/>
	<anchor name="bottom" x="156" y="0"/>
	<anchor name="right" x="334" y="0"/>
</glyph>
<glyph name="kgreenlandic" format="2">
	<unicode hex="0138"/>
	<advance width="890"/>
	<outline>
		<contour>
			<point x="420" y="856" type="line"/>
			<point x="406" y="862"/>
			<point x="368" y="868"/>
			<point x="338" y="868" type="curve" smooth="yes"/>
			<point x="235" y="868"/>
			<point x="150" y="818"/>
			<point x="56" y="630" type="curve"/>
			<point x="78" y="619" type="line"/>
			<point x="149" y="741"/>
			<point x="222" y="811"/>
			<point x="301" y="811" type="curve" smooth="yes"/>
			<point x="323" y="811"/>
			<point x="334" y="809"/>
			<point x="341" y="807" type="curve"/>
			<point x="102" y="0" type="line"/>
			<point x="167" y="0" type="line"/>
		</contour>
		<contour>
			<point x="880" y="746" type="curve" smooth="yes"/>
			<point x="913" y="746"/>
			<point x="940" y="770"/>
			<point x="940" y="811" type="curve" smooth="yes"/>
			<point x="940" y="844"/>
			<point x="914" y="871"/>
			<point x="847" y="871" type="curve" smooth="yes"/>
			<point x="724" y="871"/>
			<point x="549" y="748"/>
			<point x="300" y="461" type="curve"/>
			<point x="298" y="454" type="line"/>
			<point x="444" y="53"/>
			<point x="510" y="-16"/>
			<point x="583" y="-16" type="curve" smooth="yes"/>
			<point x="638" y="-16"/>
			<point x="702" y="17"/>
			<point x="843" y="177" type="curve"/>
			<point x="822" y="198" type="line"/>
			<point x="703" y="71"/>
			<point x="647" y="37"/>
			<point x="604" y="37" type="curve" smooth="yes"/>
			<point x="552" y="37"/>
			<point x="479" y="126"/>
			<point x="345" y="496" type="curve"/>
			<point x="340" y="462" type="line"/>
			<point x="516" y="671"/>
			<point x="700" y="816"/>
			<point x="778" y="816" type="curve" smooth="yes"/>
			<point x="801" y="816"/>
			<point x="819" y="804"/>
			<point x="835" y="784" type="curve" smooth="yes"/>
			<point x="851" y="764"/>
			<point x="863" y="746"/>
		</contour>
	</outline>
</glyph>
<glyph name="Lslash" format="2">
	<unicode hex="0141"/>
	<advance width="1087"/>
	<outline>
		<contour>
			<point x="600" y="1290" type="line"/>
			<point x="768" y="1318" type="line"/>
			<point x="774" y="1340" type="line"/>
			<point x="375" y="1340" type="line"/>
			<point x="369" y="1318" type="line"/>
			<point x="528" y="1290" type="line"/>
			<point x="148" y="50" type="line"/>
			<point x="-20" y="22" type="line"/>
			<point x="-26" y="0" type="line"/>
			<point x="205" y="0" type="line"/>
		</contour>
		<contour>
			<point x="763" y="17" type="line"/>
			<point x="835" y="42" type="line"/>
			<point x="99" y="42" type="line"/>
			<point x="85" y="0" type="line"/>
			<point x="780" y="0" type="line"/>
			<point x="840" y="-46" type="line"/>
			<point x="848" y="-46" type="line"/>
			<point x="1030" y="331" type="line"/>
			<point x="1011" y="342" type="line"/>
		</contour>
		<contour>
			<point x="783" y="886" type="line"/>
			<point x="391" y="679" type="line"/>
			<point x="361" y="674" type="line"/>
			<point x="139" y="557" type="line"/>
			<point x="119" y="491" type="line"/>
			<point x="341" y="608" type="line"/>
			<point x="370" y="613" type="line"/>
			<point x="762" y="820" type="line"/>
		</contour>
	</outline>
</glyph>
<glyph name="lslash" format="2">
	<unicode hex="0142"/>
	<advance width="584"/>
	<outline>
		<contour>
			<point x="74" y="476" type="line"/>
			<point x="51" y="399" type="line"/>
			<point x="291" y="573" type="line"/>
			<point x="335" y="590" type="line"/>
			<point x="594" y="777" type="line"/>
			<point x="618" y="854" type="line"/>
			<point x="359" y="667" type="line"/>
			<point x="315" y="650" type="line"/>
		</contour>
		<contour>
			<point x="503" y="1330" type="curve"/>
			<point x="127" y="59" type="line" smooth="yes"/>
			<point x="110" y="0"/>
			<point x="110" y="-20"/>
			<point x="170" y="-20" type="curve" smooth="yes"/>
			<point x="240" y="-20"/>
			<point x="341" y="27"/>
			<point x="475" y="175" type="curve"/>
			<point x="457" y="194" type="line"/>
			<point x="305" y="49"/>
			<point x="219" y="39"/>
			<point x="154" y="46" type="curve"/>
			<point x="181" y="23" type="line"/>
			<point x="595" y="1419" type="line"/>
			<point x="578" y="1419" type="line"/>
			<point x="356" y="1379" type="line"/>
			<point x="352" y="1366" type="line"/>
			<point x="409" y="1352.4105960265"/>
			<point x="467" y="1338.582781457"/>
		</contour>
	</outline>
</glyph>
<glyph name="Eng" format="2">
	<unicode hex="014A"/>
	<advance width="1382"/>
	<outline>
		<contour>
			<point x="1045" y="71" type="line"/>
			<point x="576" y="1340" type="line"/>
			<point x="351" y="1340" type="line"/>
			<point x="344" y="1318" type="line"/>
			<point x="497" y="1281" type="line"/>
			<point x="120" y="50" type="line"/>
			<point x="-48" y="22" type="line"/>
			<point x="-54" y="0" type="line"/>
			<point x="318" y="0" type="line"/>
			<point x="324" y="22" type="line"/>
			<point x="165" y="50" type="line"/>
			<point x="550" y="1303" type="line"/>
			<point x="521" y="1286" type="line"/>
			<point x="1006" y="-20" type="line"/>
		</contour>
		<contour>
			<point x="1037" y="-15" type="curve" smooth="yes"/>
			<point x="1436" y="1290" type="line"/>
			<point x="1604" y="1318" type="line"/>
			<point x="1610" y="1340" type="line"/>
			<point x="1238" y="1340" type="line"/>
			<point x="1232" y="1318" type="line"/>
			<point x="1391" y="1290" type="line"/>
			<point x="978" y="-54" type="line" smooth="yes"/>
			<point x="877" y="-383"/>
			<point x="768" y="-473"/>
			<point x="620" y="-473" type="curve" smooth="yes"/>
			<point x="543" y="-473"/>
			<point x="520" y="-415"/>
			<point x="482" y="-415" type="curve" smooth="yes"/>
			<point x="455" y="-415"/>
			<point x="431" y="-434"/>
			<point x="431" y="-470" type="curve" smooth="yes"/>
			<point x="431" y="-502.0161248385"/>
			<point x="464.3562138911" y="-530"/>
			<point x="549" y="-530" type="curve" smooth="yes"/>
			<point x="796" y="-530"/>
			<point x="917" y="-407"/>
		</contour>
	</outline>
</glyph>
<glyph name="OE" format="2">
	<unicode hex="0152"/>
	<advance width="1979"/>
	<outline>
		<contour>
			<point x="1340" y="1340" type="line"/>
			<point x="930" y="0" type="line"/>
			<point x="1002" y="0" type="line"/>
			<point x="1412" y="1340" type="line"/>
		</contour>
		<contour>
			<point x="1070" y="1340" type="line" smooth="yes"/>
			<point x="492" y="1340"/>
			<point x="165" y="976"/>
			<point x="165" y="496" type="curve" smooth="yes"/>
			<point x="165" y="187"/>
			<point x="361" y="0"/>
			<point x="766" y="0" type="curve" smooth="yes"/>
			<point x="1627" y="0" type="line"/>
			<point x="1687" y="-46" type="line"/>
			<point x="1695" y="-46" type="line"/>
			<point x="1906" y="338" type="line"/>
			<point x="1887" y="349" type="line"/>
			<point x="1610" y="17" type="line"/>
			<point x="1682" y="42" type="line"/>
			<point x="808" y="42" type="line"/>
			<point x="420" y="42"/>
			<point x="243" y="192"/>
			<point x="243" y="511" type="curve" smooth="yes"/>
			<point x="243" y="880"/>
			<point x="456" y="1298"/>
			<point x="1104" y="1298" type="curve" smooth="yes"/>
			<point x="2025" y="1298" type="line"/>
			<point x="1981" y="1313" type="line"/>
			<point x="2010" y="1004" type="line"/>
			<point x="2033" y="1005" type="line"/>
			<point x="2084" y="1377" type="line"/>
			<point x="2075" y="1377" type="line"/>
			<point x="1999" y="1340" type="line"/>
		</contour>
		<contour>
			<point x="1607" y="434" type="line"/>
			<point x="1675" y="701" type="line"/>
			<point x="1771" y="969" type="line"/>
			<point x="1747" y="969" type="line"/>
			<point x="1623" y="732" type="line"/>
			<point x="1202" y="720" type="line"/>
			<point x="1189" y="682" type="line"/>
			<point x="1606" y="673" type="line"/>
			<point x="1583" y="434" type="line"/>
		</contour>
	</outline>
</glyph>
<glyph name="oe" format="2">
	<unicode hex="0153"/>
	<advance width="1269"/>
	<outline>
		<contour>
			<point x="521" y="872" type="curve" smooth="yes"/>
			<point x="257" y="872"/>
			<point x="63" y="557"/>
			<point x="63" y="245" type="curve" smooth="yes"/>
			<point x="63" y="74"/>
			<point x="138" y="-20"/>
			<point x="280" y="-20" type="curve" smooth="yes"/>
			<point x="425" y="-20"/>
			<point x="555" y="88"/>
			<point x="637" y="225" type="curve"/>
			<point x="630" y="225" type="line"/>
			<point x="631" y="56"/>
			<point x="715" y="-20"/>
			<point x="821" y="-20" type="curve" smooth="yes"/>
			<point x="937" y="-20"/>
			<point x="1041" y="32"/>
			<point x="1167" y="277" type="curve"/>
			<point x="1137" y="277" type="line"/>
			<point x="1022" y="82"/>
			<point x="924" y="44"/>
			<point x="846" y="44" type="curve" smooth="yes"/>
			<point x="759" y="44"/>
			<point x="696" y="90"/>
			<point x="696" y="253" type="curve" smooth="yes"/>
			<point x="696" y="602"/>
			<point x="895" y="831"/>
			<point x="1088" y="831" type="curve" smooth="yes"/>
			<point x="1177" y="831"/>
			<point x="1200" y="780"/>
			<point x="1200" y="715" type="curve" smooth="yes"/>
			<point x="1200" y="643"/>
			<point x="1178" y="584"/>
			<point x="699" y="429" type="curve"/>
			<point x="696" y="399" type="line"/>
			<point x="899" y="462"/>
			<point x="1086" y="526"/>
			<point x="1221" y="587" type="curve"/>
			<point x="1255" y="631"/>
			<point x="1271" y="681"/>
			<point x="1271" y="733" type="curve" smooth="yes"/>
			<point x="1271" y="808"/>
			<point x="1226" y="872"/>
			<point x="1118" y="872" type="curve" smooth="yes"/>
			<point x="966" y="872"/>
			<point x="812" y="760"/>
			<point x="720" y="601" type="curve"/>
			<point x="729" y="601" type="line"/>
			<point x="729" y="771"/>
			<point x="663" y="872"/>
		</contour>
		<contour>
			<point x="277" y="12" type="curve" smooth="yes"/>
			<point x="180" y="12"/>
			<point x="130" y="77"/>
			<point x="130" y="236" type="curve" smooth="yes"/>
			<point x="130" y="499"/>
			<point x="302" y="840"/>
			<point x="524" y="840" type="curve" smooth="yes"/>
			<point x="621" y="840"/>
			<point x="671" y="775"/>
			<point x="671" y="616" type="curve" smooth="yes"/>
			<point x="671" y="353"/>
			<point x="499" y="12"/>
		</contour>
	</outline>
	<anchor name="top" x="812" y="852"/>
	<anchor name="bottom" x="551" y="0"/>
</glyph>
<glyph name="Scedilla" format="2">
	<unicode hex="015E"/>
	<advance width="963"/>
	<outline>
		<contour>
			<point x="993" y="1182" type="curve"/>
			<point x="920" y="1275" type="line"/>
			<point x="962" y="965" type="line"/>
			<point x="986" y="965" type="line"/>
			<point x="1027" y="1386" type="line"/>
			<point x="1018" y="1386" type="line"/>
			<point x="934" y="1303" type="line"/>
			<point x="991" y="1300" type="line"/>
			<point x="918" y="1339"/>
			<point x="835" y="1360"/>
			<point x="724" y="1360" type="curve" smooth="yes"/>
			<point x="457" y="1360"/>
			<point x="315" y="1192"/>
			<point x="315" y="1011" type="curve" smooth="yes"/>
			<point x="315" y="844"/>
			<point x="421" y="773"/>
			<point x="538" y="703" type="curve" smooth="yes"/>
			<point x="655" y="633"/>
			<point x="784" y="565"/>
			<point x="784" y="385" type="curve" smooth="yes"/>
			<point x="784" y="168"/>
			<point x="623" y="19"/>
			<point x="355" y="19" type="curve" smooth="yes"/>
			<point x="269" y="19"/>
			<point x="183" y="31"/>
			<point x="107" y="85" type="curve"/>
			<point x="187" y="19" type="line"/>
			<point x="95" y="359" type="line"/>
			<point x="69" y="359" type="line"/>
			<point x="86" y="27" type="line"/>
			<point x="171" y="-8"/>
			<point x="236" y="-20"/>
			<point x="349" y="-20" type="curve" smooth="yes"/>
			<point x="649" y="-20"/>
			<point x="847" y="150"/>
			<point x="847" y="416" type="curve" smooth="yes"/>
			<point x="847" y="612"/>
			<point x="704" y="685"/>
			<point x="585" y="758" type="curve" smooth="yes"/>
			<point x="466" y="831"/>
			<point x="375" y="896"/>
			<point x="375" y="1040" type="curve" smooth="yes"/>
			<point x="375" y="1190"/>
			<point x="483" y="1326"/>
			<point x="706" y="1326" type="curve" smooth="yes"/>
			<point x="800" y="1326"/>
			<point x="893" y="1293"/>
		</contour>
		<contour>
			<point x="181" y="-530" type="curve" smooth="yes"/>
			<point x="330" y="-530"/>
			<point x="438" y="-438"/>
			<point x="438" y="-317" type="curve" smooth="yes"/>
			<point x="438" y="-257"/>
			<point x="387" y="-195"/>
			<point x="257" y="-156" type="curve"/>
			<point x="265" y="-176" type="line"/>
			<point x="444" y="0" type="line"/>
			<point x="402" y="0" type="line"/>
			<point x="194" y="-210" type="line"/>
			<point x="193" y="-214" type="line"/>
			<point x="326" y="-250"/>
			<point x="377" y="-298"/>
			<point x="377" y="-354" type="curve" smooth="yes"/>
			<point x="377" y="-433"/>
			<point x="315" y="-490"/>
			<point x="218" y="-490" type="curve" smooth="yes"/>
			<point x="145" y="-490"/>
			<point x="136" y="-428"/>
			<point x="94" y="-428" type="curve" smooth="yes"/>
			<point x="75" y="-428"/>
			<point x="56" y="-446"/>
			<point x="56" y="-470" type="curve" smooth="yes"/>
			<point x="56" y="-503"/>
			<point x="89" y="-530"/>
		</contour>
	</outline>
</glyph>
<glyph name="scedilla" format="2">
	<unicode hex="015F"/>
	<advance width="581"/>
	<outline>
		<contour>
			<point x="-20" y="-530" type="curve" smooth="yes"/>
			<point x="129" y="-530"/>
			<point x="237" y="-438"/>
			<point x="237" y="-317" type="curve" smooth="yes"/>
			<point x="237" y="-257"/>
			<point x="186" y="-195"/>
			<point x="56" y="-156" type="curve"/>
			<point x="64" y="-176" type="line"/>
			<point x="243" y="0" type="line"/>
			<point x="201" y="0" type="line"/>
			<point x="-7" y="-210" type="line"/>
			<point x="-8" y="-214" type="line"/>
			<point x="125" y="-250"/>
			<point x="176" y="-298"/>
			<point x="176" y="-354" type="curve" smooth="yes"/>
			<point x="176" y="-433"/>
			<point x="114" y="-490"/>
			<point x="17" y="-490" type="curve" smooth="yes"/>
			<point x="-56" y="-490"/>
			<point x="-65" y="-428"/>
			<point x="-107" y="-428" type="curve" smooth="yes"/>
			<point x="-126" y="-428"/>
			<point x="-145" y="-446"/>
			<point x="-145" y="-470" type="curve" smooth="yes"/>
			<point x="-145" y="-503"/>
			<point x="-112" y="-530"/>
		</contour>
		<contour>
			<point x="57" y="125" type="curve" smooth="yes"/>
			<point x="33" y="125"/>
			<point x="11" y="103"/>
			<point x="11" y="76" type="curve" smooth="yes"/>
			<point x="11" y="31"/>
			<point x="66" y="-20"/>
			<point x="169" y="-20" type="curve" smooth="yes"/>
			<point x="336" y="-20"/>
			<point x="446" y="101"/>
			<point x="446" y="231" type="curve" smooth="yes"/>
			<point x="446" y="306"/>
			<point x="414" y="379"/>
			<point x="334" y="478" type="curve" smooth="yes"/>
			<point x="254" y="577"/>
			<point x="230" y="625"/>
			<point x="230" y="678" type="curve" smooth="yes"/>
			<point x="230" y="785"/>
			<point x="300" y="837"/>
			<point x="390" y="837" type="curve" smooth="yes"/>
			<point x="433" y="837"/>
			<point x="465" y="817"/>
			<point x="489" y="786" type="curve" smooth="yes"/>
			<point x="513" y="755"/>
			<point x="524" y="724"/>
			<point x="538" y="724" type="curve" smooth="yes"/>
			<point x="568" y="724"/>
			<point x="584" y="744"/>
			<point x="584" y="769" type="curve" smooth="yes"/>
			<point x="584" y="817"/>
			<point x="523" y="872"/>
			<point x="418" y="872" type="curve" smooth="yes"/>
			<point x="286" y="872"/>
			<point x="174" y="788"/>
			<point x="174" y="645" type="curve" smooth="yes"/>
			<point x="174" y="588"/>
			<point x="196" y="528"/>
			<point x="281" y="422" type="curve" smooth="yes"/>
			<point x="366" y="316"/>
			<point x="390" y="253"/>
			<point x="390" y="192" type="curve" smooth="yes"/>
			<point x="390" y="96"/>
			<point x="310" y="19"/>
			<point x="209" y="19" type="curve" smooth="yes"/>
			<point x="167" y="19"/>
			<point x="136" y="36"/>
			<point x="112" y="66" type="curve" smooth="yes"/>
			<point x="88" y="96"/>
			<point x="75" y="125"/>
		</contour>
	</outline>
</glyph>
<glyph name="uni0162" format="2">
	<unicode hex="0162"/>
	<advance width="1188"/>
	<outline>
		<contour>
			<point x="1327" y="1298" type="line"/>
			<point x="1282" y="1308" type="line"/>
			<point x="1289" y="985" type="line"/>
			<point x="1315" y="985" type="line"/>
			<point x="1391" y="1404" type="line"/>
			<point x="1381" y="1404" type="line"/>
			<point x="1282" y="1330" type="line"/>
			<point x="1318" y="1340" type="line"/>
			<point x="419" y="1340" type="line"/>
			<point x="459" y="1330" type="line"/>
			<point x="394" y="1404" type="line"/>
			<point x="384" y="1404" type="line"/>
			<point x="222" y="987" type="line"/>
			<point x="243" y="976" type="line"/>
			<point x="453" y="1308" type="line"/>
			<point x="382" y="1298" type="line"/>
		</contour>
		<contour>
			<point x="828" y="1323" type="line"/>
			<point x="438" y="50" type="line"/>
			<point x="270" y="22" type="line"/>
			<point x="264" y="0" type="line"/>
			<point x="663" y="0" type="line"/>
			<point x="669" y="22" type="line"/>
			<point x="510" y="50" type="line"/>
			<point x="900" y="1323" type="line"/>
		</contour>
		<contour>
			<point x="229" y="-530" type="curve" smooth="yes"/>
			<point x="378" y="-530"/>
			<point x="486" y="-438"/>
			<point x="486" y="-317" type="curve" smooth="yes"/>
			<point x="486" y="-257"/>
			<point x="435" y="-195"/>
			<point x="305" y="-156" type="curve"/>
			<point x="313" y="-176" type="line"/>
			<point x="492" y="0" type="line"/>
			<point x="450" y="0" type="line"/>
			<point x="242" y="-210" type="line"/>
			<point x="241" y="-214" type="line"/>
			<point x="374" y="-250"/>
			<point x="425" y="-298"/>
			<point x="425" y="-354" type="curve" smooth="yes"/>
			<point x="425" y="-433"/>
			<point x="363" y="-490"/>
			<point x="266" y="-490" type="curve" smooth="yes"/>
			<point x="193" y="-490"/>
			<point x="184" y="-428"/>
			<point x="142" y="-428" type="curve" smooth="yes"/>
			<point x="123" y="-428"/>
			<point x="104" y="-446"/>
			<point x="104" y="-470" type="curve" smooth="yes"/>
			<point x="104" y="-503"/>
			<point x="137" y="-530"/>
		</contour>
	</outline>
</glyph>
<glyph name="uni0163" format="2">
	<unicode hex="0163"/>
	<advance width="543"/>
	<outline>
		<contour>
			<point x="144" y="807" type="line"/>
			<point x="564" y="807" type="line"/>
			<point x="573" y="852" type="line"/>
			<point x="157" y="852" type="line"/>
		</contour>
		<contour>
			<point x="206" y="230" type="curve" smooth="yes"/>
			<point x="429" y="1026" type="line"/>
			<point x="364" y="1026" type="line"/>
			<point x="134" y="204" type="line" smooth="yes"/>
			<point x="118" y="147"/>
			<point x="110" y="103"/>
			<point x="110" y="70" type="curve" smooth="yes"/>
			<point x="110" y="6"/>
			<point x="138" y="-20"/>
			<point x="190" y="-20" type="curve" smooth="yes"/>
			<point x="259" y="-20"/>
			<point x="372" y="58"/>
			<point x="488" y="249" type="curve"/>
			<point x="463" y="265" type="line"/>
			<point x="377" y="127"/>
			<point x="273" y="38"/>
			<point x="215" y="38" type="curve" smooth="yes"/>
			<point x="191" y="38"/>
			<point x="178" y="50"/>
			<point x="178" y="86" type="curve" smooth="yes"/>
			<point x="178" y="115"/>
			<point x="187" y="161"/>
		</contour>
		<contour>
			<point x="25" y="-530" type="curve" smooth="yes"/>
			<point x="174" y="-530"/>
			<point x="282" y="-438"/>
			<point x="282" y="-317" type="curve" smooth="yes"/>
			<point x="282" y="-257"/>
			<point x="231" y="-195"/>
			<point x="101" y="-156" type="curve"/>
			<point x="109" y="-176" type="line"/>
			<point x="330" y="53" type="line"/>
			<point x="288" y="53" type="line"/>
			<point x="38" y="-210" type="line"/>
			<point x="37" y="-214" type="line"/>
			<point x="170" y="-250"/>
			<point x="221" y="-298"/>
			<point x="221" y="-354" type="curve" smooth="yes"/>
			<point x="221" y="-433"/>
			<point x="159" y="-490"/>
			<point x="62" y="-490" type="curve" smooth="yes"/>
			<point x="-11" y="-490"/>
			<point x="-20" y="-428"/>
			<point x="-62" y="-428" type="curve" smooth="yes"/>
			<point x="-81" y="-428"/>
			<point x="-100" y="-446"/>
			<point x="-100" y="-470" type="curve" smooth="yes"/>
			<point x="-100" y="-503"/>
			<point x="-67" y="-530"/>
		</contour>
	</outline>
</glyph>
<glyph name="Tbar" format="2">
	<unicode hex="0166"/>
	<advance width="1194"/>
	<outline>
		<contour>
			<point x="357" y="670" type="line"/>
			<point x="974" y="670" type="line"/>
			<point x="990" y="723" type="line"/>
			<point x="373" y="723" type="line"/>
		</contour>
		<contour>
			<point x="1328" y="1298" type="line"/>
			<point x="1283" y="1308" type="line"/>
			<point x="1290" y="985" type="line"/>
			<point x="1316" y="985" type="line"/>
			<point x="1392" y="1404" type="line"/>
			<point x="1382" y="1404" type="line"/>
			<point x="1283" y="1330" type="line"/>
			<point x="1319" y="1340" type="line"/>
			<point x="420" y="1340" type="line"/>
			<point x="460" y="1330" type="line"/>
			<point x="395" y="1404" type="line"/>
			<point x="385" y="1404" type="line"/>
			<point x="223" y="987" type="line"/>
			<point x="244" y="976" type="line"/>
			<point x="454" y="1308" type="line"/>
			<point x="383" y="1298" type="line"/>
		</contour>
		<contour>
			<point x="829" y="1323" type="line"/>
			<point x="439" y="50" type="line"/>
			<point x="271" y="22" type="line"/>
			<point x="265" y="0" type="line"/>
			<point x="664" y="0" type="line"/>
			<point x="670" y="22" type="line"/>
			<point x="511" y="50" type="line"/>
			<point x="901" y="1323" type="line"/>
		</contour>
	</outline>
</glyph>
<glyph name="tbar" format="2">
	<unicode hex="0167"/>
	<advance width="560"/>
	<outline>
		<contour>
			<point x="61" y="472" type="line"/>
			<point x="481" y="472" type="line"/>
			<point x="498" y="525" type="line"/>
			<point x="78" y="525" type="line"/>
		</contour>
		<contour>
			<point x="154" y="807" type="line"/>
			<point x="574" y="807" type="line"/>
			<point x="583" y="852" type="line"/>
			<point x="167" y="852" type="line"/>
		</contour>
		<contour>
			<point x="188" y="86" type="curve" smooth="yes"/>
			<point x="188" y="115"/>
			<point x="197" y="161"/>
			<point x="216" y="230" type="curve" smooth="yes"/>
			<point x="439" y="1026" type="line"/>
			<point x="374" y="1026" type="line"/>
			<point x="144" y="204" type="line" smooth="yes"/>
			<point x="128" y="147"/>
			<point x="120" y="103"/>
			<point x="120" y="70" type="curve" smooth="yes"/>
			<point x="120" y="6"/>
			<point x="148" y="-20"/>
			<point x="200" y="-20" type="curve" smooth="yes"/>
			<point x="269" y="-20"/>
			<point x="382" y="58"/>
			<point x="498" y="249" type="curve"/>
			<point x="473" y="265" type="line"/>
			<point x="387" y="127"/>
			<point x="283" y="38"/>
			<point x="225" y="38" type="curve" smooth="yes"/>
			<point x="201" y="38"/>
			<point x="188" y="50"/>
		</contour>
	</outline>
</glyph>
<glyph name="Uogonek" format="2">
	<unicode hex="0172"/>
	<advance width="1376"/>
	<outline>
		<contour>
			<point x="326" y="552" type="curve" smooth="yes"/>
			<point x="552" y="1290" type="line"/>
			<point x="720" y="1318" type="line"/>
			<point x="726" y="1340" type="line"/>
			<point x="327" y="1340" type="line"/>
			<point x="321" y="1318" type="line"/>
			<point x="480" y="1290" type="line"/>
			<point x="259" y="566" type="line" smooth="yes"/>
			<point x="133" y="155"/>
			<point x="278" y="-20"/>
			<point x="592" y="-20" type="curve" smooth="yes"/>
			<point x="877" y="-20"/>
			<point x="1073" y="116"/>
			<point x="1179" y="462" type="curve" smooth="yes"/>
			<point x="1432" y="1290" type="line"/>
			<point x="1600" y="1318" type="line"/>
			<point x="1606" y="1340" type="line"/>
			<point x="1234" y="1340" type="line"/>
			<point x="1228" y="1318" type="line"/>
			<point x="1387" y="1290" type="line"/>
			<point x="1139" y="484" type="line" smooth="yes"/>
			<point x="1041" y="164"/>
			<point x="867" y="36"/>
			<point x="601" y="36" type="curve" smooth="yes"/>
			<point x="320" y="36"/>
			<point x="219" y="202"/>
		</contour>
		<contour>
			<point x="406" y="-382" type="curve" smooth="yes"/>
			<point x="406" y="-322"/>
			<point x="427" y="-280"/>
			<point x="540" y="-127" type="curve" smooth="yes"/>
			<point x="646" y="17" type="line"/>
			<point x="613" y="17" type="line"/>
			<point x="480" y="-145" type="line" smooth="yes"/>
			<point x="359" y="-292"/>
			<point x="341" y="-347"/>
			<point x="341" y="-404" type="curve" smooth="yes"/>
			<point x="341" y="-481"/>
			<point x="392" y="-530"/>
			<point x="480" y="-530" type="curve" smooth="yes"/>
			<point x="545" y="-530"/>
			<point x="596" y="-499"/>
			<point x="683" y="-406" type="curve"/>
			<point x="670" y="-392" type="line"/>
			<point x="602" y="-456"/>
			<point x="558" y="-474"/>
			<point x="505" y="-474" type="curve" smooth="yes"/>
			<point x="453" y="-474"/>
			<point x="406" y="-445"/>
		</contour>
	</outline>
</glyph>
<glyph name="uogonek" format="2">
	<unicode hex="0173"/>
	<advance width="932"/>
	<outline>
		<contour>
			<point x="919" y="175" type="curve"/>
			<point x="902" y="194" type="line"/>
			<point x="746" y="49"/>
			<point x="659" y="39"/>
			<point x="595" y="46" type="curve"/>
			<point x="618" y="24" type="line"/>
			<point x="868" y="852" type="line"/>
			<point x="803" y="852" type="line"/>
			<point x="726" y="599" type="line" smooth="yes"/>
			<point x="635" y="299"/>
			<point x="429" y="34"/>
			<point x="273" y="34" type="curve" smooth="yes"/>
			<point x="217" y="34"/>
			<point x="186" y="57"/>
			<point x="186" y="108" type="curve" smooth="yes"/>
			<point x="186" y="130"/>
			<point x="191" y="157"/>
			<point x="203" y="189" type="curve" smooth="yes"/>
			<point x="421" y="793" type="line" smooth="yes"/>
			<point x="439" y="844"/>
			<point x="411" y="872"/>
			<point x="378" y="872" type="curve" smooth="yes"/>
			<point x="313" y="872"/>
			<point x="201" y="824"/>
			<point x="55" y="652" type="curve"/>
			<point x="73" y="634" type="line"/>
			<point x="234" y="796"/>
			<point x="324" y="812"/>
			<point x="392" y="807" type="curve"/>
			<point x="369" y="828" type="line"/>
			<point x="140" y="196" type="line" smooth="yes"/>
			<point x="127" y="159"/>
			<point x="120" y="127"/>
			<point x="120" y="99" type="curve" smooth="yes"/>
			<point x="120" y="21"/>
			<point x="171" y="-20"/>
			<point x="258" y="-20" type="curve" smooth="yes"/>
			<point x="388" y="-20"/>
			<point x="523" y="97"/>
			<point x="707" y="475" type="curve"/>
			<point x="692" y="475" type="line"/>
			<point x="563" y="59" type="line" smooth="yes"/>
			<point x="544" y="-2"/>
			<point x="547" y="-20"/>
			<point x="609" y="-20" type="curve" smooth="yes"/>
			<point x="651" y="-20"/>
			<point x="704" y="-3"/>
			<point x="769" y="41" type="curve"/>
			<point x="760" y="52" type="line"/>
			<point x="564" y="-140" type="line" smooth="yes"/>
			<point x="417" y="-283"/>
			<point x="394" y="-336"/>
			<point x="394" y="-404" type="curve" smooth="yes"/>
			<point x="394" y="-481"/>
			<point x="445" y="-530"/>
			<point x="533" y="-530" type="curve" smooth="yes"/>
			<point x="598" y="-530"/>
			<point x="649" y="-499"/>
			<point x="736" y="-406" type="curve"/>
			<point x="723" y="-392" type="line"/>
			<point x="655" y="-456"/>
			<point x="611" y="-474"/>
			<point x="558" y="-474" type="curve" smooth="yes"/>
			<point x="506" y="-474"/>
			<point x="460" y="-447"/>
			<point x="460" y="-384" type="curve" smooth="yes"/>
			<point x="460" y="-324"/>
			<point x="480" y="-275"/>
			<point x="626" y="-125" type="curve" smooth="yes"/>
			<point x="770" y="23" type="line" smooth="yes"/>
			<point x="807" y="60"/>
			<point x="872" y="126"/>
		</contour>
	</outline>
</glyph>
<glyph name="uni018F" format="2">
	<unicode hex="018F"/>
	<advance width="1327"/>
	<outline>
		<contour>
			<point x="148" y="527" type="line"/>
			<point x="132" y="459"/>
			<point x="125" y="397"/>
			<point x="125" y="341" type="curve" smooth="yes"/>
			<point x="125" y="104"/>
			<point x="263" y="-20"/>
			<point x="523" y="-20" type="curve" smooth="yes"/>
			<point x="967" y="-20"/>
			<point x="1317" y="383"/>
			<point x="1317" y="868" type="curve" smooth="yes"/>
			<point x="1317" y="1174"/>
			<point x="1147" y="1360"/>
			<point x="824" y="1360" type="curve" smooth="yes"/>
			<point x="629" y="1360"/>
			<point x="498" y="1309"/>
			<point x="277" y="1156" type="curve"/>
			<point x="295" y="1125" type="line"/>
			<point x="495" y="1263"/>
			<point x="609" y="1304"/>
			<point x="812" y="1304" type="curve" smooth="yes"/>
			<point x="1080" y="1304"/>
			<point x="1243" y="1128"/>
			<point x="1243" y="836" type="curve" smooth="yes"/>
			<point x="1243" y="397"/>
			<point x="942" y="20"/>
			<point x="534" y="20" type="curve" smooth="yes"/>
			<point x="303" y="20"/>
			<point x="194" y="134"/>
			<point x="194" y="330" type="curve" smooth="yes"/>
			<point x="194" y="384"/>
			<point x="202" y="445"/>
			<point x="219" y="512" type="curve"/>
			<point x="163" y="485" type="line"/>
			<point x="1187" y="485" type="line"/>
			<point x="1201" y="527" type="line"/>
		</contour>
	</outline>
</glyph>
<glyph name="Ohorn" format="2">
	<unicode hex="01A0"/>
	<advance width="1431"/>
	<outline>
		<contour>
			<point x="239" y="476" type="curve" smooth="yes"/>
			<point x="239" y="892"/>
			<point x="517" y="1321"/>
			<point x="942" y="1321" type="curve" smooth="yes"/>
			<point x="1216" y="1321"/>
			<point x="1348" y="1139"/>
			<point x="1348" y="864" type="curve" smooth="yes"/>
			<point x="1348" y="448"/>
			<point x="1070" y="19"/>
			<point x="645" y="19" type="curve" smooth="yes"/>
			<point x="371" y="19"/>
			<point x="239" y="201"/>
		</contour>
		<contour>
			<point x="1425" y="856" type="curve" smooth="yes"/>
			<point x="1425" y="1067"/>
			<point x="1342" y="1231"/>
			<point x="1187" y="1306" type="curve"/>
			<point x="1187" y="1291" type="line"/>
			<point x="1429" y="1253"/>
			<point x="1538" y="1339.1298076923"/>
			<point x="1538" y="1504" type="curve" smooth="yes"/>
			<point x="1538" y="1557"/>
			<point x="1513" y="1574"/>
			<point x="1483" y="1574" type="curve" smooth="yes"/>
			<point x="1448" y="1574"/>
			<point x="1426" y="1549"/>
			<point x="1426" y="1523" type="curve" smooth="yes"/>
			<point x="1426" y="1517"/>
			<point x="1460" y="1481"/>
			<point x="1460" y="1433" type="curve" smooth="yes"/>
			<point x="1460" y="1359"/>
			<point x="1408" y="1317"/>
			<point x="1275" y="1317" type="curve" smooth="yes"/>
			<point x="1177" y="1317"/>
			<point x="1067" y="1360"/>
			<point x="943" y="1360" type="curve" smooth="yes"/>
			<point x="485" y="1360"/>
			<point x="162" y="938"/>
			<point x="162" y="484" type="curve" smooth="yes"/>
			<point x="162" y="196"/>
			<point x="316" y="-20"/>
			<point x="644" y="-20" type="curve" smooth="yes"/>
			<point x="1102" y="-20"/>
			<point x="1425" y="402"/>
		</contour>
	</outline>
	<anchor name="UCtop" x="998" y="1340"/>
	<anchor name="bottom" x="589" y="0"/>
</glyph>
<glyph name="ohorn" format="2">
	<unicode hex="01A1"/>
	<advance width="814"/>
	<outline>
		<contour>
			<point x="277" y="12" type="curve" smooth="yes"/>
			<point x="180" y="12"/>
			<point x="130" y="77"/>
			<point x="130" y="236" type="curve" smooth="yes"/>
			<point x="130" y="499"/>
			<point x="302" y="840"/>
			<point x="524" y="840" type="curve" smooth="yes"/>
			<point x="621" y="840"/>
			<point x="671" y="775"/>
			<point x="671" y="616" type="curve" smooth="yes"/>
			<point x="671" y="353"/>
			<point x="499" y="12"/>
		</contour>
		<contour>
			<point x="738" y="607" type="curve" smooth="yes"/>
			<point x="738" y="712"/>
			<point x="709" y="790"/>
			<point x="647" y="834" type="curve"/>
			<point x="647" y="818" type="line"/>
			<point x="797" y="794"/>
			<point x="904" y="869"/>
			<point x="904" y="1016" type="curve" smooth="yes"/>
			<point x="904" y="1069"/>
			<point x="879" y="1086"/>
			<point x="849" y="1086" type="curve" smooth="yes"/>
			<point x="814" y="1086"/>
			<point x="792" y="1061"/>
			<point x="792" y="1035" type="curve" smooth="yes"/>
			<point x="792" y="1029"/>
			<point x="826" y="993"/>
			<point x="826" y="945" type="curve" smooth="yes"/>
			<point x="826" y="889"/>
			<point x="781" y="846"/>
			<point x="691" y="846" type="curve" smooth="yes"/>
			<point x="617" y="846"/>
			<point x="599" y="872"/>
			<point x="521" y="872" type="curve" smooth="yes"/>
			<point x="257" y="872"/>
			<point x="63" y="557"/>
			<point x="63" y="245" type="curve" smooth="yes"/>
			<point x="63" y="74"/>
			<point x="138" y="-20"/>
			<point x="280" y="-20" type="curve" smooth="yes"/>
			<point x="544" y="-20"/>
			<point x="738" y="295"/>
		</contour>
	</outline>
	<anchor name="top" x="510" y="852"/>
	<anchor name="bottom" x="270" y="0"/>
</glyph>
<glyph name="Uhorn" format="2">
	<unicode hex="01AF"/>
	<advance width="1361"/>
	<outline>
		<contour>
			<point x="326" y="552" type="curve" smooth="yes"/>
			<point x="552" y="1290" type="line"/>
			<point x="720" y="1318" type="line"/>
			<point x="726" y="1340" type="line"/>
			<point x="327" y="1340" type="line"/>
			<point x="321" y="1318" type="line"/>
			<point x="480" y="1290" type="line"/>
			<point x="259" y="566" type="line" smooth="yes"/>
			<point x="133" y="155"/>
			<point x="278" y="-20"/>
			<point x="592" y="-20" type="curve" smooth="yes"/>
			<point x="877" y="-20"/>
			<point x="1073" y="116"/>
			<point x="1179" y="462" type="curve" smooth="yes"/>
			<point x="1433" y="1293" type="line"/>
			<point x="1651" y="1295"/>
			<point x="1736" y="1361"/>
			<point x="1736" y="1504" type="curve" smooth="yes"/>
			<point x="1736" y="1557"/>
			<point x="1711" y="1574"/>
			<point x="1681" y="1574" type="curve" smooth="yes"/>
			<point x="1646" y="1574"/>
			<point x="1624" y="1549"/>
			<point x="1624" y="1523" type="curve" smooth="yes"/>
			<point x="1624" y="1517"/>
			<point x="1658" y="1481"/>
			<point x="1658" y="1433" type="curve" smooth="yes"/>
			<point x="1658" y="1375"/>
			<point x="1605" y="1340"/>
			<point x="1478" y="1340" type="curve" smooth="yes"/>
			<point x="1234" y="1340" type="line"/>
			<point x="1228" y="1318" type="line"/>
			<point x="1387" y="1290" type="line"/>
			<point x="1139" y="484" type="line" smooth="yes"/>
			<point x="1041" y="164"/>
			<point x="867" y="36"/>
			<point x="601" y="36" type="curve" smooth="yes"/>
			<point x="320" y="36"/>
			<point x="219" y="202"/>
		</contour>
	</outline>
	<anchor name="UCtop" x="979" y="1340"/>
	<anchor name="bottom" x="590" y="0"/>
</glyph>
<glyph name="uhorn" format="2">
	<unicode hex="01B0"/>
	<advance width="1006"/>
	<outline>
		<contour>
			<point x="563" y="59" type="line" smooth="yes"/>
			<point x="544" y="-2"/>
			<point x="547" y="-20"/>
			<point x="609" y="-20" type="curve" smooth="yes"/>
			<point x="679" y="-20"/>
			<point x="781" y="27"/>
			<point x="919" y="175" type="curve"/>
			<point x="902" y="194" type="line"/>
			<point x="746" y="49"/>
			<point x="659" y="39"/>
			<point x="595" y="46" type="curve"/>
			<point x="618" y="24" type="line"/>
			<point x="868" y="852" type="line"/>
			<point x="803" y="852" type="line"/>
			<point x="726" y="599" type="line" smooth="yes"/>
			<point x="635" y="299"/>
			<point x="429" y="34"/>
			<point x="273" y="34" type="curve" smooth="yes"/>
			<point x="217" y="34"/>
			<point x="186" y="57"/>
			<point x="186" y="108" type="curve" smooth="yes"/>
			<point x="186" y="130"/>
			<point x="191" y="157"/>
			<point x="203" y="189" type="curve" smooth="yes"/>
			<point x="421" y="793" type="line" smooth="yes"/>
			<point x="439" y="844"/>
			<point x="411" y="872"/>
			<point x="378" y="872" type="curve" smooth="yes"/>
			<point x="313" y="872"/>
			<point x="201" y="824"/>
			<point x="55" y="652" type="curve"/>
			<point x="73" y="634" type="line"/>
			<point x="234" y="796"/>
			<point x="324" y="812"/>
			<point x="392" y="807" type="curve"/>
			<point x="369" y="828" type="line"/>
			<point x="140" y="196" type="line" smooth="yes"/>
			<point x="127" y="159"/>
			<point x="120" y="127"/>
			<point x="120" y="99" type="curve" smooth="yes"/>
			<point x="120" y="21"/>
			<point x="171" y="-20"/>
			<point x="258" y="-20" type="curve" smooth="yes"/>
			<point x="388" y="-20"/>
			<point x="523" y="97"/>
			<point x="707" y="475" type="curve"/>
			<point x="692" y="475" type="line"/>
		</contour>
		<contour>
			<point x="1122" y="1016" type="curve" smooth="yes"/>
			<point x="1122" y="1069"/>
			<point x="1097" y="1086"/>
			<point x="1067" y="1086" type="curve" smooth="yes"/>
			<point x="1032" y="1086"/>
			<point x="1010" y="1061"/>
			<point x="1010" y="1035" type="curve" smooth="yes"/>
			<point x="1010" y="1029"/>
			<point x="1044" y="993"/>
			<point x="1044" y="945" type="curve" smooth="yes"/>
			<point x="1044" y="898"/>
			<point x="997" y="852"/>
			<point x="895" y="852" type="curve" smooth="yes"/>
			<point x="826" y="852" type="line"/>
			<point x="816" y="820" type="line"/>
			<point x="880" y="820" type="line" smooth="yes"/>
			<point x="1045" y="820"/>
			<point x="1122" y="887"/>
		</contour>
	</outline>
	<anchor name="top" x="585" y="852"/>
	<anchor name="bottom" x="386" y="0"/>
</glyph>
